<?xml version="1.0" encoding="UTF-8"?>
<svg xmlns="http://www.w3.org/2000/svg" xmlns:xlink="http://www.w3.org/1999/xlink" width="40px" height="40px" viewBox="0 0 40 40" version="1.1">
<g id="surface1">
<path style=" stroke:none;fill-rule:evenodd;fill:rgb(9.411765%,9.019608%,9.019608%);fill-opacity:1;" d="M 19.492188 1.789062 C 18.941406 1.988281 18.636719 2.195312 18.140625 2.726562 C 18.019531 2.859375 17.707031 3.1875 17.449219 3.460938 C 16.675781 4.28125 16.480469 4.507812 16.355469 4.722656 C 16.289062 4.835938 16.191406 4.957031 16.140625 4.992188 C 16.085938 5.027344 15.875 5.269531 15.671875 5.535156 C 15.46875 5.796875 15.214844 6.121094 15.113281 6.253906 C 14.742188 6.726562 13.800781 8.40625 13.800781 8.589844 C 13.800781 8.632812 13.75 8.792969 13.683594 8.941406 C 13.527344 9.3125 13.171875 10.289062 13.121094 10.496094 C 13.0625 10.722656 13.078125 10.71875 12.261719 10.710938 C 10.761719 10.691406 9.578125 10.890625 7.738281 11.464844 C 7.453125 11.550781 7.066406 11.660156 6.878906 11.707031 C 6.453125 11.804688 5.898438 12.023438 5.582031 12.21875 C 5.449219 12.296875 5.042969 12.511719 4.679688 12.695312 C 2.613281 13.722656 2.136719 14.136719 2.140625 14.886719 C 2.144531 15.203125 2.171875 15.28125 2.589844 16.21875 C 2.839844 16.78125 3.46875 17.964844 3.609375 18.140625 C 3.84375 18.433594 3.941406 18.570312 4.304688 19.125 C 4.492188 19.40625 4.800781 19.84375 4.992188 20.09375 C 5.347656 20.5625 5.523438 20.824219 5.695312 21.132812 C 5.808594 21.347656 6.441406 21.941406 6.746094 22.125 C 6.8125 22.164062 6.988281 22.308594 7.140625 22.445312 C 7.476562 22.742188 8.246094 23.324219 8.59375 23.542969 C 8.808594 23.679688 8.839844 23.714844 8.824219 23.800781 C 8.808594 23.898438 8.429688 24.996094 8.390625 25.0625 C 8.355469 25.117188 8.046875 26.476562 8.003906 26.765625 C 7.785156 28.179688 7.792969 30.347656 8.023438 31.859375 C 8.515625 35.140625 8.761719 35.417969 10.921875 35.171875 C 11.21875 35.136719 11.605469 35.097656 11.78125 35.082031 C 12.367188 35.035156 13.273438 34.859375 13.898438 34.671875 C 14.054688 34.625 14.253906 34.566406 14.339844 34.539062 C 14.429688 34.515625 14.601562 34.460938 14.726562 34.421875 C 14.855469 34.382812 15.132812 34.3125 15.347656 34.265625 C 15.828125 34.164062 15.898438 34.140625 16.300781 33.949219 C 16.476562 33.863281 16.890625 33.667969 17.21875 33.511719 C 17.550781 33.355469 17.863281 33.1875 17.921875 33.136719 C 17.976562 33.089844 18.09375 33.003906 18.179688 32.953125 C 18.558594 32.734375 19.046875 32.402344 19.4375 32.109375 C 19.960938 31.710938 19.914062 31.722656 20.171875 31.929688 C 20.472656 32.175781 20.992188 32.539062 21.441406 32.816406 C 21.648438 32.945312 21.871094 33.09375 21.9375 33.144531 C 22.035156 33.226562 23.160156 33.792969 23.21875 33.792969 C 23.230469 33.792969 23.40625 33.871094 23.609375 33.96875 C 23.855469 34.089844 24.128906 34.179688 24.421875 34.246094 C 24.664062 34.296875 24.972656 34.375 25.101562 34.417969 C 25.234375 34.460938 25.421875 34.515625 25.519531 34.542969 C 25.617188 34.570312 25.835938 34.632812 26 34.6875 C 26.164062 34.738281 26.398438 34.800781 26.519531 34.824219 C 26.640625 34.851562 26.902344 34.90625 27.105469 34.945312 C 27.304688 34.988281 27.746094 35.050781 28.082031 35.082031 C 28.421875 35.117188 28.980469 35.171875 29.320312 35.207031 C 30.503906 35.328125 30.941406 35.148438 31.28125 34.40625 C 31.414062 34.117188 31.652344 33.066406 31.757812 32.277344 C 31.785156 32.09375 31.820312 31.855469 31.84375 31.746094 C 32.03125 30.789062 32.027344 28.054688 31.835938 26.78125 C 31.773438 26.347656 31.519531 25.242188 31.445312 25.054688 C 31.425781 25.011719 31.378906 24.875 31.34375 24.757812 C 31.304688 24.636719 31.257812 24.5 31.242188 24.457031 C 31.125 24.167969 31 23.8125 31 23.769531 C 31 23.746094 31.167969 23.613281 31.371094 23.480469 C 31.800781 23.195312 32.414062 22.722656 32.835938 22.351562 C 33 22.207031 33.148438 22.089844 33.164062 22.089844 C 33.183594 22.089844 33.296875 22.003906 33.417969 21.902344 C 33.535156 21.796875 33.714844 21.644531 33.8125 21.5625 C 33.914062 21.480469 34.050781 21.3125 34.125 21.1875 C 34.195312 21.066406 34.300781 20.910156 34.363281 20.839844 C 34.421875 20.773438 34.519531 20.628906 34.582031 20.519531 C 34.644531 20.410156 34.792969 20.191406 34.917969 20.035156 C 35.183594 19.695312 35.453125 19.300781 35.777344 18.785156 C 35.90625 18.578125 36.097656 18.316406 36.195312 18.207031 C 36.375 18.007812 37.085938 16.667969 37.34375 16.039062 C 37.402344 15.898438 37.480469 15.710938 37.523438 15.621094 C 38.0625 14.433594 37.714844 13.992188 35.21875 12.714844 C 34.421875 12.304688 34.113281 12.144531 34.0625 12.105469 C 33.976562 12.039062 33.175781 11.75 33 11.722656 C 32.902344 11.707031 32.695312 11.652344 32.539062 11.601562 C 31.476562 11.253906 30.285156 10.945312 29.699219 10.867188 C 29.546875 10.84375 29.265625 10.808594 29.078125 10.78125 C 28.894531 10.757812 28.316406 10.734375 27.796875 10.730469 C 26.722656 10.71875 26.785156 10.734375 26.71875 10.457031 C 26.667969 10.242188 26.605469 10.070312 26.28125 9.234375 C 26.171875 8.960938 26.0625 8.65625 26.039062 8.558594 C 25.988281 8.367188 25.503906 7.417969 25.3125 7.136719 C 25.25 7.046875 25.199219 6.960938 25.199219 6.949219 C 25.199219 6.898438 24.703125 6.179688 24.582031 6.050781 C 24.507812 5.972656 24.3125 5.726562 24.144531 5.503906 C 23.980469 5.285156 23.824219 5.089844 23.800781 5.074219 C 23.777344 5.0625 23.6875 4.945312 23.597656 4.8125 C 23.445312 4.585938 22.878906 3.953125 22.300781 3.363281 C 22.152344 3.210938 21.980469 3.015625 21.917969 2.933594 C 21.707031 2.648438 20.902344 1.964844 20.726562 1.925781 C 20.667969 1.910156 20.601562 1.886719 20.578125 1.871094 C 20.378906 1.71875 19.808594 1.675781 19.492188 1.789062 M 20.402344 5.496094 C 20.652344 5.738281 20.921875 5.980469 21 6.03125 C 21.1875 6.160156 21.792969 6.816406 21.921875 7.023438 C 21.976562 7.113281 22.085938 7.269531 22.167969 7.367188 C 22.25 7.460938 22.433594 7.695312 22.582031 7.878906 C 22.726562 8.066406 22.902344 8.285156 22.972656 8.363281 C 23.898438 9.417969 23.886719 11.03125 22.941406 11.710938 C 22.851562 11.773438 22.707031 11.894531 22.621094 11.972656 C 22.53125 12.054688 22.378906 12.183594 22.28125 12.257812 C 22.179688 12.335938 21.992188 12.503906 21.859375 12.640625 C 21.726562 12.773438 21.5 12.96875 21.355469 13.078125 C 21.078125 13.285156 20.777344 13.53125 20.480469 13.792969 C 20.382812 13.882812 20.238281 14 20.160156 14.054688 C 19.972656 14.195312 18.886719 15.289062 18.667969 15.5625 C 18.574219 15.683594 18.421875 15.878906 18.332031 16 C 18.21875 16.15625 18.046875 16.304688 17.734375 16.515625 C 17.496094 16.679688 17.210938 16.886719 17.101562 16.984375 C 16.992188 17.078125 16.878906 17.152344 16.851562 17.152344 C 16.777344 17.152344 16.441406 16.46875 16.335938 16.097656 C 16.285156 15.925781 16.171875 15.570312 16.082031 15.308594 C 15.53125 13.707031 15.535156 12.089844 16.101562 10.507812 C 16.160156 10.34375 16.257812 10.0625 16.324219 9.882812 C 16.496094 9.390625 16.933594 8.570312 17.183594 8.261719 C 17.410156 7.988281 17.855469 7.339844 17.921875 7.1875 C 18.003906 7 18.558594 6.328125 18.785156 6.132812 C 18.871094 6.0625 19.15625 5.789062 19.421875 5.527344 C 19.6875 5.269531 19.914062 5.054688 19.925781 5.054688 C 19.933594 5.054688 20.148438 5.253906 20.402344 5.496094 M 12.761719 13.652344 C 12.773438 13.675781 12.808594 13.867188 12.835938 14.082031 C 12.953125 14.996094 13.488281 16.925781 13.71875 17.253906 C 13.734375 17.277344 13.78125 17.417969 13.820312 17.570312 C 13.90625 17.902344 13.964844 18.027344 14.148438 18.269531 C 14.222656 18.367188 14.394531 18.636719 14.535156 18.867188 C 14.761719 19.246094 15.21875 19.941406 15.554688 20.417969 C 15.648438 20.554688 15.699219 20.695312 15.761719 21.015625 C 15.8125 21.269531 15.898438 21.546875 15.984375 21.726562 C 16.160156 22.097656 16.152344 22.113281 15.792969 22.144531 C 15.632812 22.15625 15.355469 22.183594 15.179688 22.207031 C 14.691406 22.265625 13.484375 22.257812 13.066406 22.191406 C 12.863281 22.160156 12.539062 22.113281 12.339844 22.089844 C 11.832031 22.023438 10.71875 21.652344 10.265625 21.394531 C 9.578125 21.007812 8.226562 19.703125 7.367188 18.597656 C 7.292969 18.507812 7.125 18.320312 6.988281 18.179688 C 6.730469 17.921875 5.964844 16.703125 5.800781 16.296875 C 5.757812 16.1875 5.675781 15.984375 5.617188 15.839844 C 5.445312 15.417969 5.441406 15.4375 5.726562 15.25 C 5.863281 15.15625 6.101562 15.042969 6.257812 14.996094 C 6.414062 14.949219 6.65625 14.859375 6.800781 14.796875 C 7.085938 14.664062 7.808594 14.382812 8.179688 14.257812 C 8.3125 14.210938 8.601562 14.140625 8.820312 14.097656 C 9.039062 14.054688 9.398438 13.972656 9.621094 13.914062 C 10.648438 13.636719 12.648438 13.46875 12.761719 13.652344 M 28.558594 13.613281 C 29.125 13.664062 29.9375 13.792969 30.179688 13.871094 C 30.46875 13.964844 30.773438 14.042969 31.121094 14.109375 C 31.550781 14.191406 31.882812 14.304688 32.605469 14.609375 C 32.921875 14.746094 33.347656 14.914062 33.550781 14.984375 C 33.925781 15.113281 34.359375 15.371094 34.359375 15.464844 C 34.359375 15.492188 34.316406 15.609375 34.261719 15.726562 C 34.207031 15.84375 34.160156 15.976562 34.160156 16.019531 C 34.160156 16.269531 33.066406 18.027344 32.761719 18.265625 C 32.671875 18.335938 32.429688 18.605469 32.222656 18.859375 C 32.015625 19.113281 31.644531 19.53125 31.394531 19.789062 C 31.144531 20.046875 30.886719 20.3125 30.824219 20.378906 C 30.757812 20.449219 30.585938 20.597656 30.441406 20.714844 C 30.296875 20.828125 30.152344 20.953125 30.121094 20.992188 C 29.828125 21.347656 29.625 21.351562 29.34375 21.015625 C 29.03125 20.640625 28.320312 19.988281 27.78125 19.582031 C 27.539062 19.398438 27.285156 19.199219 27.21875 19.140625 C 26.976562 18.914062 25.957031 18.355469 25.601562 18.25 C 25.304688 18.160156 24.949219 18.027344 23.523438 17.46875 C 23.363281 17.40625 23.210938 17.351562 23.191406 17.351562 C 23.167969 17.351562 23.023438 17.238281 22.875 17.09375 C 22.722656 16.949219 22.445312 16.734375 22.261719 16.613281 C 21.886719 16.363281 21.855469 16.320312 21.9375 16.167969 C 22.0625 15.929688 23.023438 15.097656 23.308594 14.980469 C 23.390625 14.945312 23.558594 14.839844 23.679688 14.746094 C 24.03125 14.472656 24.632812 14.183594 25.03125 14.09375 C 25.222656 14.050781 25.53125 13.96875 25.71875 13.910156 C 26.613281 13.625 27.550781 13.527344 28.558594 13.613281 M 20.492188 18.78125 C 21.484375 19.261719 21.675781 20.492188 20.875 21.230469 C 19.609375 22.398438 17.738281 20.671875 18.757812 19.273438 C 19.148438 18.734375 19.929688 18.511719 20.492188 18.78125 M 25.339844 21.398438 C 25.566406 21.535156 25.769531 21.652344 25.789062 21.652344 C 25.8125 21.652344 25.917969 21.730469 26.027344 21.828125 C 26.136719 21.921875 26.296875 22.042969 26.390625 22.089844 C 26.597656 22.195312 27.15625 22.757812 27.328125 23.03125 C 27.402344 23.144531 27.59375 23.433594 27.753906 23.667969 C 29.089844 25.625 29.558594 28.5 29.039062 31.523438 C 29.019531 31.644531 28.980469 31.863281 28.957031 32.011719 C 28.894531 32.382812 28.992188 32.375 27.558594 32.117188 C 27.460938 32.097656 27.109375 32.011719 26.78125 31.921875 C 26.449219 31.835938 26.027344 31.726562 25.839844 31.683594 C 25.085938 31.511719 24.183594 31.128906 23.339844 30.625 C 23.074219 30.46875 22.792969 30.320312 22.710938 30.292969 C 22.242188 30.136719 21.84375 29.730469 21.917969 29.480469 C 21.96875 29.320312 22.4375 28.375 22.519531 28.28125 C 22.605469 28.175781 22.957031 27.1875 23.117188 26.605469 C 23.164062 26.429688 23.21875 26.253906 23.238281 26.207031 C 23.28125 26.113281 23.414062 25.414062 23.5 24.855469 C 23.558594 24.460938 23.644531 23 23.636719 22.46875 C 23.636719 22.21875 23.652344 22.15625 23.804688 21.851562 C 23.992188 21.472656 24.027344 21.367188 24.082031 21.058594 C 24.101562 20.9375 24.140625 20.828125 24.167969 20.8125 C 24.226562 20.773438 24.808594 21.0625 25.339844 21.398438 M 19.578125 24.402344 C 19.757812 24.425781 20.054688 24.433594 20.246094 24.417969 C 20.65625 24.386719 20.660156 24.386719 20.582031 24.804688 C 20.4375 25.546875 20.371094 25.789062 20.191406 26.285156 C 20.105469 26.527344 19.992188 26.863281 19.941406 27.03125 C 19.65625 27.992188 18.074219 29.871094 17.179688 30.3125 C 16.960938 30.421875 16.664062 30.589844 16.519531 30.683594 C 16.183594 30.90625 15.167969 31.402344 15.050781 31.402344 C 15.035156 31.402344 14.90625 31.449219 14.761719 31.503906 C 14.617188 31.554688 14.347656 31.632812 14.160156 31.675781 C 13.972656 31.714844 13.496094 31.832031 13.101562 31.929688 C 12.320312 32.125 12.148438 32.160156 11.535156 32.261719 C 10.839844 32.371094 10.875 32.445312 10.675781 30.289062 C 10.554688 28.980469 10.710938 27.078125 11.027344 26.03125 C 11.339844 24.976562 11.410156 24.871094 11.71875 24.957031 C 12.511719 25.167969 14.777344 25.207031 16.28125 25.03125 C 16.617188 24.996094 16.707031 24.976562 17.261719 24.851562 C 17.566406 24.785156 18.460938 24.515625 18.78125 24.394531 C 18.902344 24.347656 19.035156 24.328125 19.121094 24.339844 C 19.195312 24.351562 19.402344 24.378906 19.578125 24.402344 "/>
<path style=" stroke:none;fill-rule:evenodd;fill:rgb(86.27451%,87.843137%,90.588235%);fill-opacity:1;" d="M 0 20.019531 L 0 40.039062 L 40 40.039062 L 40 0 L 0 0 L 0 20.019531 M 20.605469 1.796875 C 21.046875 1.984375 21.710938 2.527344 22.058594 2.984375 C 22.097656 3.039062 22.296875 3.253906 22.496094 3.460938 C 23.160156 4.152344 23.539062 4.578125 23.636719 4.75 C 23.691406 4.839844 23.765625 4.9375 23.800781 4.960938 C 23.835938 4.988281 23.996094 5.183594 24.160156 5.398438 C 24.324219 5.613281 24.539062 5.882812 24.636719 5.992188 C 24.738281 6.105469 24.847656 6.246094 24.878906 6.3125 C 24.910156 6.375 24.996094 6.5 25.0625 6.585938 C 25.199219 6.761719 25.40625 7.109375 25.699219 7.660156 C 26.023438 8.269531 26.105469 8.453125 26.128906 8.601562 C 26.144531 8.683594 26.203125 8.851562 26.261719 8.980469 C 26.320312 9.109375 26.421875 9.355469 26.480469 9.53125 C 26.542969 9.707031 26.625 9.921875 26.660156 10.011719 C 26.699219 10.097656 26.761719 10.277344 26.800781 10.40625 L 26.867188 10.644531 L 27.449219 10.632812 C 28.394531 10.609375 29.390625 10.710938 30.378906 10.921875 C 30.835938 11.019531 31.585938 11.214844 31.667969 11.253906 C 31.707031 11.277344 31.839844 11.316406 31.960938 11.34375 C 32.082031 11.371094 32.234375 11.414062 32.300781 11.441406 C 32.441406 11.503906 32.753906 11.59375 33.132812 11.683594 C 33.582031 11.792969 34.019531 11.984375 34.78125 12.398438 C 34.867188 12.449219 35.175781 12.609375 35.460938 12.753906 C 35.746094 12.902344 36.042969 13.058594 36.121094 13.101562 C 36.195312 13.148438 36.296875 13.207031 36.339844 13.230469 C 37.8125 14.035156 38.082031 14.605469 37.546875 15.761719 C 37.492188 15.882812 37.398438 16.097656 37.339844 16.238281 C 37.128906 16.746094 36.429688 18.054688 36.277344 18.230469 C 36.132812 18.390625 35.761719 18.925781 35.761719 18.964844 C 35.761719 18.984375 35.269531 19.714844 35.238281 19.742188 C 35.226562 19.753906 35.171875 19.824219 35.121094 19.902344 C 35.066406 19.976562 35.015625 20.046875 35 20.058594 C 34.925781 20.128906 34.644531 20.535156 34.621094 20.609375 C 34.605469 20.65625 34.523438 20.777344 34.4375 20.878906 C 34.351562 20.976562 34.253906 21.117188 34.21875 21.191406 C 34.152344 21.328125 33.738281 21.769531 33.671875 21.769531 C 33.65625 21.769531 33.574219 21.839844 33.488281 21.925781 C 33.40625 22.011719 33.269531 22.125 33.179688 22.179688 C 33.09375 22.238281 32.957031 22.34375 32.878906 22.414062 C 32.800781 22.488281 32.664062 22.601562 32.578125 22.671875 C 32.492188 22.738281 32.316406 22.878906 32.1875 22.984375 C 31.925781 23.191406 31.75 23.316406 31.347656 23.585938 C 31.050781 23.785156 31.054688 23.765625 31.199219 24.097656 C 31.3125 24.363281 31.441406 24.78125 31.441406 24.890625 C 31.441406 24.949219 31.457031 24.996094 31.476562 24.996094 C 31.519531 24.996094 31.640625 25.382812 31.71875 25.769531 C 31.746094 25.902344 31.777344 26.046875 31.785156 26.089844 C 31.796875 26.132812 31.820312 26.277344 31.839844 26.40625 C 31.859375 26.539062 31.902344 26.824219 31.9375 27.042969 C 32.132812 28.355469 32.117188 30.425781 31.898438 31.859375 C 31.863281 32.078125 31.816406 32.382812 31.796875 32.539062 C 31.472656 34.753906 30.992188 35.429688 29.808594 35.328125 C 28.890625 35.246094 28.671875 35.222656 28.378906 35.1875 C 28.203125 35.164062 27.890625 35.128906 27.679688 35.105469 C 27.472656 35.085938 27.128906 35.03125 26.921875 34.984375 C 26.710938 34.941406 26.476562 34.894531 26.398438 34.882812 C 26.242188 34.855469 25.839844 34.710938 25.78125 34.660156 C 25.761719 34.640625 25.699219 34.625 25.644531 34.625 C 25.589844 34.625 25.492188 34.609375 25.421875 34.589844 C 25.355469 34.570312 25.121094 34.496094 24.898438 34.429688 C 24.679688 34.363281 24.453125 34.308594 24.398438 34.308594 C 24.246094 34.308594 23.828125 34.167969 23.460938 33.996094 C 22.59375 33.585938 21.941406 33.253906 21.882812 33.195312 C 21.84375 33.160156 21.652344 33.035156 21.457031 32.925781 C 21.261719 32.8125 21.0625 32.6875 21.019531 32.648438 C 20.976562 32.605469 20.867188 32.527344 20.777344 32.476562 C 20.6875 32.421875 20.550781 32.328125 20.476562 32.269531 C 19.960938 31.855469 19.925781 31.835938 19.851562 31.902344 C 19.625 32.105469 18.625 32.800781 18.375 32.925781 C 18.308594 32.960938 18.164062 33.054688 18.0625 33.136719 C 17.851562 33.292969 17.054688 33.703125 16.691406 33.835938 C 16.566406 33.882812 16.449219 33.933594 16.441406 33.953125 C 16.429688 33.96875 16.328125 34.019531 16.21875 34.066406 C 16.109375 34.117188 15.988281 34.171875 15.949219 34.191406 C 15.914062 34.210938 15.84375 34.230469 15.796875 34.230469 C 15.753906 34.230469 15.675781 34.25 15.628906 34.273438 C 15.578125 34.300781 15.421875 34.34375 15.28125 34.371094 C 14.90625 34.441406 14.472656 34.546875 14.390625 34.589844 C 14.351562 34.609375 14.28125 34.625 14.226562 34.625 C 14.175781 34.625 14.117188 34.640625 14.097656 34.660156 C 14.046875 34.707031 13.699219 34.828125 13.488281 34.871094 C 13.398438 34.890625 13.242188 34.921875 13.148438 34.941406 C 12.769531 35.023438 12.484375 35.070312 12.160156 35.105469 C 11.972656 35.128906 11.675781 35.164062 11.5 35.1875 C 11.324219 35.210938 11 35.242188 10.78125 35.261719 C 10.558594 35.28125 10.25 35.308594 10.089844 35.324219 C 9.40625 35.394531 8.8125 35.089844 8.535156 34.523438 C 8.441406 34.328125 8.410156 34.242188 8.320312 33.871094 C 8.300781 33.792969 8.261719 33.632812 8.226562 33.511719 C 8.167969 33.285156 8.109375 32.96875 8.042969 32.496094 C 8.019531 32.34375 7.976562 32.039062 7.945312 31.820312 C 7.785156 30.753906 7.78125 30.664062 7.785156 29.195312 C 7.789062 28.25 7.804688 27.621094 7.835938 27.441406 C 7.863281 27.289062 7.902344 27.039062 7.921875 26.886719 C 7.941406 26.730469 7.96875 26.554688 7.980469 26.488281 C 8.128906 25.707031 8.195312 25.40625 8.269531 25.195312 C 8.304688 25.09375 8.347656 24.996094 8.367188 24.976562 C 8.386719 24.957031 8.398438 24.910156 8.398438 24.878906 C 8.398438 24.792969 8.570312 24.265625 8.675781 24.027344 C 8.777344 23.792969 8.78125 23.726562 8.691406 23.691406 C 8.515625 23.628906 7.480469 22.859375 7.121094 22.523438 C 7 22.414062 6.820312 22.269531 6.726562 22.207031 C 6.558594 22.097656 6.367188 21.941406 5.941406 21.558594 C 5.824219 21.453125 5.695312 21.300781 5.65625 21.222656 C 5.570312 21.039062 5.15625 20.417969 4.960938 20.179688 C 4.878906 20.082031 4.714844 19.855469 4.597656 19.679688 C 4.476562 19.507812 4.371094 19.355469 4.359375 19.34375 C 4.320312 19.3125 4.078125 18.953125 4.078125 18.929688 C 4.078125 18.917969 4.027344 18.828125 3.960938 18.734375 C 3.894531 18.636719 3.839844 18.535156 3.839844 18.511719 C 3.839844 18.488281 3.824219 18.46875 3.804688 18.46875 C 3.738281 18.46875 3.398438 17.992188 3.214844 17.644531 C 2.980469 17.199219 2.773438 16.792969 2.722656 16.671875 C 2.699219 16.621094 2.664062 16.550781 2.644531 16.515625 C 2.394531 16.121094 2.074219 15.21875 2.066406 14.90625 C 2.058594 14.164062 2.296875 13.90625 3.757812 13.085938 C 3.835938 13.039062 4.242188 12.832031 4.660156 12.617188 C 5.078125 12.40625 5.492188 12.1875 5.578125 12.136719 C 5.746094 12.03125 5.847656 11.984375 6.078125 11.886719 C 6.34375 11.777344 6.460938 11.742188 6.839844 11.644531 C 7.195312 11.554688 7.355469 11.507812 8.253906 11.21875 C 8.445312 11.15625 8.636719 11.105469 8.675781 11.105469 C 8.71875 11.105469 8.828125 11.078125 8.925781 11.042969 C 9.019531 11.007812 9.234375 10.953125 9.398438 10.925781 C 9.566406 10.894531 9.898438 10.835938 10.140625 10.789062 C 10.828125 10.664062 11.316406 10.625 12.183594 10.625 L 12.992188 10.625 L 13.027344 10.515625 C 13.074219 10.394531 13.105469 10.300781 13.300781 9.726562 C 13.375 9.503906 13.480469 9.226562 13.53125 9.109375 C 13.691406 8.753906 13.71875 8.675781 13.71875 8.578125 C 13.71875 8.527344 13.777344 8.382812 13.847656 8.253906 C 13.914062 8.125 14.054688 7.859375 14.160156 7.660156 C 14.570312 6.875 15.007812 6.199219 15.3125 5.875 C 15.402344 5.777344 15.480469 5.679688 15.480469 5.660156 C 15.480469 5.640625 15.519531 5.589844 15.566406 5.546875 C 15.609375 5.507812 15.703125 5.390625 15.773438 5.292969 C 15.839844 5.195312 15.960938 5.050781 16.042969 4.976562 C 16.125 4.898438 16.234375 4.765625 16.289062 4.675781 C 16.40625 4.492188 16.667969 4.1875 17.3125 3.507812 C 17.566406 3.238281 17.824219 2.953125 17.882812 2.875 C 18.039062 2.667969 18.796875 2.003906 18.980469 1.914062 C 19.449219 1.6875 19.488281 1.675781 19.90625 1.671875 C 20.273438 1.671875 20.339844 1.683594 20.605469 1.796875 "/>
<path style=" stroke:none;fill-rule:evenodd;fill:rgb(91.372549%,85.098039%,57.647059%);fill-opacity:1;" d="M 19.320312 1.753906 C 19.222656 1.800781 19.066406 1.871094 18.980469 1.914062 C 18.796875 2.003906 18.039062 2.667969 17.882812 2.875 C 17.824219 2.953125 17.566406 3.238281 17.3125 3.507812 C 16.667969 4.1875 16.40625 4.492188 16.289062 4.675781 C 16.234375 4.765625 16.125 4.898438 16.042969 4.976562 C 15.960938 5.050781 15.839844 5.195312 15.773438 5.292969 C 15.703125 5.390625 15.609375 5.507812 15.566406 5.546875 C 15.519531 5.589844 15.480469 5.640625 15.480469 5.660156 C 15.480469 5.679688 15.402344 5.777344 15.3125 5.875 C 15.007812 6.199219 14.570312 6.875 14.160156 7.660156 C 14.054688 7.859375 13.914062 8.125 13.847656 8.253906 C 13.777344 8.382812 13.71875 8.527344 13.71875 8.578125 C 13.71875 8.675781 13.691406 8.753906 13.53125 9.109375 C 13.480469 9.226562 13.375 9.503906 13.300781 9.726562 C 13.105469 10.300781 13.074219 10.394531 13.027344 10.515625 L 12.992188 10.625 L 12.183594 10.625 C 11.316406 10.625 10.828125 10.664062 10.140625 10.789062 C 9.898438 10.835938 9.566406 10.894531 9.398438 10.925781 C 9.234375 10.953125 9.019531 11.007812 8.925781 11.042969 C 8.828125 11.078125 8.71875 11.105469 8.675781 11.105469 C 8.636719 11.105469 8.445312 11.15625 8.253906 11.21875 C 7.355469 11.507812 7.195312 11.554688 6.839844 11.644531 C 6.460938 11.742188 6.34375 11.777344 6.078125 11.886719 C 5.847656 11.984375 5.746094 12.03125 5.578125 12.136719 C 5.492188 12.1875 5.078125 12.40625 4.660156 12.617188 C 4.242188 12.832031 3.835938 13.039062 3.757812 13.085938 C 2.296875 13.90625 2.058594 14.164062 2.066406 14.90625 C 2.074219 15.21875 2.394531 16.121094 2.644531 16.515625 C 2.664062 16.550781 2.699219 16.621094 2.722656 16.671875 C 2.773438 16.792969 2.980469 17.199219 3.214844 17.644531 C 3.398438 17.992188 3.738281 18.46875 3.804688 18.46875 C 3.824219 18.46875 3.839844 18.488281 3.839844 18.511719 C 3.839844 18.535156 3.894531 18.636719 3.960938 18.734375 C 4.027344 18.828125 4.078125 18.917969 4.078125 18.929688 C 4.078125 18.953125 4.320312 19.3125 4.359375 19.34375 C 4.371094 19.355469 4.476562 19.507812 4.597656 19.679688 C 4.714844 19.855469 4.878906 20.082031 4.960938 20.179688 C 5.15625 20.417969 5.570312 21.039062 5.65625 21.222656 C 5.695312 21.300781 5.824219 21.453125 5.941406 21.558594 C 6.367188 21.941406 6.558594 22.097656 6.726562 22.207031 C 6.820312 22.269531 7 22.414062 7.121094 22.523438 C 7.480469 22.859375 8.515625 23.628906 8.691406 23.691406 C 8.78125 23.726562 8.777344 23.792969 8.675781 24.027344 C 8.570312 24.265625 8.398438 24.792969 8.398438 24.878906 C 8.398438 24.910156 8.386719 24.957031 8.367188 24.976562 C 8.347656 24.996094 8.304688 25.09375 8.269531 25.195312 C 8.195312 25.40625 8.128906 25.707031 7.980469 26.488281 C 7.96875 26.554688 7.941406 26.730469 7.921875 26.886719 C 7.902344 27.039062 7.863281 27.289062 7.835938 27.441406 C 7.804688 27.621094 7.789062 28.25 7.785156 29.195312 C 7.78125 30.664062 7.785156 30.753906 7.945312 31.820312 C 7.976562 32.039062 8.019531 32.34375 8.042969 32.496094 C 8.109375 32.96875 8.167969 33.285156 8.226562 33.511719 C 8.261719 33.632812 8.300781 33.792969 8.320312 33.871094 C 8.410156 34.242188 8.441406 34.328125 8.535156 34.523438 C 8.8125 35.089844 9.40625 35.394531 10.089844 35.324219 C 10.25 35.308594 10.558594 35.28125 10.78125 35.261719 C 11 35.242188 11.324219 35.210938 11.5 35.1875 C 11.675781 35.164062 11.972656 35.128906 12.160156 35.105469 C 12.484375 35.070312 12.769531 35.023438 13.148438 34.941406 C 13.242188 34.921875 13.398438 34.890625 13.488281 34.871094 C 13.699219 34.828125 14.046875 34.707031 14.097656 34.660156 C 14.117188 34.640625 14.175781 34.625 14.226562 34.625 C 14.28125 34.625 14.351562 34.609375 14.390625 34.589844 C 14.472656 34.546875 14.90625 34.441406 15.28125 34.371094 C 15.421875 34.34375 15.578125 34.300781 15.628906 34.273438 C 15.675781 34.25 15.753906 34.230469 15.796875 34.230469 C 15.84375 34.230469 15.914062 34.210938 15.949219 34.191406 C 15.988281 34.171875 16.109375 34.117188 16.21875 34.066406 C 16.328125 34.019531 16.429688 33.96875 16.441406 33.953125 C 16.449219 33.933594 16.566406 33.882812 16.691406 33.835938 C 17.054688 33.703125 17.851562 33.292969 18.0625 33.136719 C 18.164062 33.054688 18.308594 32.960938 18.375 32.925781 C 18.625 32.800781 19.625 32.105469 19.851562 31.902344 C 19.925781 31.835938 19.960938 31.855469 20.476562 32.269531 C 20.550781 32.328125 20.6875 32.421875 20.777344 32.476562 C 20.867188 32.527344 20.976562 32.605469 21.019531 32.648438 C 21.0625 32.6875 21.261719 32.8125 21.457031 32.925781 C 21.652344 33.035156 21.84375 33.160156 21.882812 33.195312 C 21.941406 33.253906 22.59375 33.585938 23.460938 33.996094 C 23.828125 34.167969 24.246094 34.308594 24.398438 34.308594 C 24.453125 34.308594 24.679688 34.363281 24.898438 34.429688 C 25.121094 34.496094 25.355469 34.570312 25.421875 34.589844 C 25.492188 34.609375 25.589844 34.625 25.644531 34.625 C 25.699219 34.625 25.761719 34.640625 25.78125 34.660156 C 25.839844 34.710938 26.242188 34.855469 26.398438 34.882812 C 26.476562 34.894531 26.710938 34.941406 26.921875 34.984375 C 27.128906 35.03125 27.472656 35.085938 27.679688 35.105469 C 27.890625 35.128906 28.203125 35.164062 28.378906 35.1875 C 28.671875 35.222656 28.890625 35.246094 29.808594 35.328125 C 30.992188 35.429688 31.472656 34.753906 31.796875 32.539062 C 31.816406 32.382812 31.863281 32.078125 31.898438 31.859375 C 32.117188 30.425781 32.132812 28.355469 31.9375 27.042969 C 31.902344 26.824219 31.859375 26.539062 31.839844 26.40625 C 31.820312 26.277344 31.796875 26.132812 31.785156 26.089844 C 31.777344 26.046875 31.746094 25.902344 31.71875 25.769531 C 31.640625 25.382812 31.519531 24.996094 31.476562 24.996094 C 31.457031 24.996094 31.441406 24.949219 31.441406 24.890625 C 31.441406 24.78125 31.3125 24.363281 31.199219 24.097656 C 31.054688 23.765625 31.050781 23.785156 31.347656 23.585938 C 31.75 23.316406 31.925781 23.191406 32.1875 22.984375 C 32.316406 22.878906 32.492188 22.738281 32.578125 22.671875 C 32.664062 22.601562 32.800781 22.488281 32.878906 22.414062 C 32.957031 22.34375 33.09375 22.238281 33.179688 22.179688 C 33.269531 22.125 33.40625 22.011719 33.488281 21.925781 C 33.574219 21.839844 33.65625 21.769531 33.671875 21.769531 C 33.738281 21.769531 34.152344 21.328125 34.21875 21.191406 C 34.253906 21.117188 34.351562 20.976562 34.4375 20.878906 C 34.523438 20.777344 34.605469 20.65625 34.621094 20.609375 C 34.644531 20.535156 34.925781 20.128906 35 20.058594 C 35.015625 20.046875 35.066406 19.976562 35.121094 19.902344 C 35.171875 19.824219 35.226562 19.753906 35.238281 19.742188 C 35.269531 19.714844 35.761719 18.984375 35.761719 18.964844 C 35.761719 18.925781 36.132812 18.390625 36.277344 18.230469 C 36.429688 18.054688 37.128906 16.746094 37.339844 16.238281 C 37.398438 16.097656 37.492188 15.882812 37.546875 15.761719 C 38.082031 14.605469 37.8125 14.035156 36.339844 13.230469 C 36.296875 13.207031 36.195312 13.148438 36.121094 13.101562 C 36.042969 13.058594 35.746094 12.902344 35.460938 12.753906 C 35.175781 12.609375 34.867188 12.449219 34.78125 12.398438 C 34.019531 11.984375 33.582031 11.792969 33.132812 11.683594 C 32.753906 11.59375 32.441406 11.503906 32.300781 11.441406 C 32.234375 11.414062 32.082031 11.371094 31.960938 11.34375 C 31.839844 11.316406 31.707031 11.277344 31.667969 11.253906 C 31.585938 11.214844 30.835938 11.019531 30.378906 10.921875 C 29.390625 10.710938 28.394531 10.609375 27.449219 10.632812 L 26.867188 10.644531 L 26.800781 10.40625 C 26.761719 10.277344 26.699219 10.097656 26.660156 10.011719 C 26.625 9.921875 26.542969 9.707031 26.480469 9.53125 C 26.421875 9.355469 26.320312 9.109375 26.261719 8.980469 C 26.203125 8.851562 26.144531 8.683594 26.128906 8.601562 C 26.105469 8.453125 26.023438 8.269531 25.699219 7.660156 C 25.40625 7.109375 25.199219 6.761719 25.0625 6.585938 C 24.996094 6.5 24.910156 6.375 24.878906 6.3125 C 24.847656 6.246094 24.738281 6.105469 24.636719 5.992188 C 24.539062 5.882812 24.324219 5.613281 24.160156 5.398438 C 23.996094 5.183594 23.835938 4.988281 23.800781 4.960938 C 23.765625 4.9375 23.691406 4.839844 23.636719 4.75 C 23.539062 4.578125 23.160156 4.152344 22.496094 3.460938 C 22.296875 3.253906 22.097656 3.039062 22.058594 2.984375 C 21.277344 1.949219 20.085938 1.414062 19.320312 1.753906 M 20.324219 1.773438 C 20.441406 1.808594 20.558594 1.851562 20.578125 1.871094 C 20.601562 1.886719 20.667969 1.910156 20.726562 1.925781 C 20.902344 1.964844 21.707031 2.648438 21.917969 2.933594 C 21.980469 3.015625 22.152344 3.210938 22.300781 3.363281 C 22.878906 3.953125 23.445312 4.585938 23.597656 4.8125 C 23.6875 4.945312 23.777344 5.0625 23.800781 5.074219 C 23.824219 5.089844 23.980469 5.285156 24.144531 5.503906 C 24.3125 5.726562 24.507812 5.972656 24.582031 6.050781 C 24.703125 6.179688 25.199219 6.898438 25.199219 6.949219 C 25.199219 6.960938 25.25 7.046875 25.3125 7.136719 C 25.503906 7.417969 25.988281 8.367188 26.039062 8.558594 C 26.0625 8.65625 26.171875 8.960938 26.28125 9.234375 C 26.605469 10.070312 26.667969 10.242188 26.71875 10.457031 C 26.785156 10.734375 26.722656 10.71875 27.796875 10.730469 C 28.316406 10.734375 28.894531 10.757812 29.078125 10.78125 C 29.265625 10.808594 29.546875 10.84375 29.699219 10.867188 C 30.285156 10.945312 31.476562 11.253906 32.539062 11.601562 C 32.695312 11.652344 32.902344 11.707031 33 11.722656 C 33.175781 11.75 33.976562 12.039062 34.0625 12.105469 C 34.113281 12.144531 34.421875 12.304688 35.21875 12.714844 C 37.714844 13.992188 38.0625 14.433594 37.523438 15.621094 C 37.480469 15.710938 37.402344 15.898438 37.34375 16.039062 C 37.085938 16.667969 36.375 18.007812 36.195312 18.207031 C 36.097656 18.316406 35.90625 18.578125 35.777344 18.785156 C 35.453125 19.300781 35.183594 19.695312 34.917969 20.035156 C 34.792969 20.191406 34.644531 20.410156 34.582031 20.519531 C 34.519531 20.628906 34.421875 20.773438 34.363281 20.839844 C 34.300781 20.910156 34.195312 21.066406 34.125 21.1875 C 34.050781 21.3125 33.914062 21.480469 33.8125 21.5625 C 33.714844 21.644531 33.535156 21.796875 33.417969 21.902344 C 33.296875 22.003906 33.183594 22.089844 33.164062 22.089844 C 33.148438 22.089844 33 22.207031 32.835938 22.351562 C 32.414062 22.722656 31.800781 23.195312 31.371094 23.480469 C 31.167969 23.613281 31 23.746094 31 23.769531 C 31 23.8125 31.125 24.167969 31.242188 24.457031 C 31.257812 24.5 31.304688 24.636719 31.34375 24.757812 C 31.378906 24.875 31.425781 25.011719 31.445312 25.054688 C 31.519531 25.242188 31.773438 26.347656 31.835938 26.78125 C 32.027344 28.054688 32.03125 30.789062 31.84375 31.746094 C 31.820312 31.855469 31.785156 32.09375 31.757812 32.277344 C 31.652344 33.066406 31.414062 34.117188 31.28125 34.40625 C 30.941406 35.148438 30.503906 35.328125 29.320312 35.207031 C 28.980469 35.171875 28.421875 35.117188 28.082031 35.082031 C 27.746094 35.050781 27.304688 34.988281 27.105469 34.945312 C 26.902344 34.90625 26.640625 34.851562 26.519531 34.824219 C 26.398438 34.800781 26.164062 34.738281 26 34.6875 C 25.835938 34.632812 25.617188 34.570312 25.519531 34.542969 C 25.421875 34.515625 25.234375 34.460938 25.101562 34.417969 C 24.972656 34.375 24.664062 34.296875 24.421875 34.246094 C 24.128906 34.179688 23.855469 34.089844 23.609375 33.96875 C 23.40625 33.871094 23.230469 33.792969 23.21875 33.792969 C 23.160156 33.792969 22.035156 33.226562 21.9375 33.144531 C 21.871094 33.09375 21.648438 32.945312 21.441406 32.816406 C 20.992188 32.539062 20.472656 32.175781 20.171875 31.929688 C 19.914062 31.722656 19.960938 31.710938 19.4375 32.109375 C 19.046875 32.402344 18.558594 32.734375 18.179688 32.953125 C 18.09375 33.003906 17.976562 33.089844 17.921875 33.136719 C 17.863281 33.1875 17.550781 33.355469 17.21875 33.511719 C 16.890625 33.667969 16.476562 33.863281 16.300781 33.949219 C 15.898438 34.140625 15.828125 34.164062 15.347656 34.265625 C 15.132812 34.3125 14.855469 34.382812 14.726562 34.421875 C 14.601562 34.460938 14.429688 34.515625 14.339844 34.539062 C 14.253906 34.566406 14.054688 34.625 13.898438 34.671875 C 13.273438 34.859375 12.367188 35.035156 11.78125 35.082031 C 11.605469 35.097656 11.21875 35.136719 10.921875 35.171875 C 8.761719 35.417969 8.515625 35.140625 8.023438 31.859375 C 7.792969 30.347656 7.785156 28.179688 8.003906 26.765625 C 8.046875 26.476562 8.355469 25.117188 8.390625 25.0625 C 8.429688 24.996094 8.808594 23.898438 8.824219 23.800781 C 8.839844 23.714844 8.808594 23.679688 8.59375 23.542969 C 8.246094 23.324219 7.476562 22.742188 7.140625 22.445312 C 6.988281 22.308594 6.8125 22.164062 6.746094 22.125 C 6.441406 21.941406 5.808594 21.347656 5.695312 21.132812 C 5.523438 20.824219 5.347656 20.5625 4.992188 20.09375 C 4.800781 19.84375 4.492188 19.40625 4.304688 19.125 C 3.941406 18.570312 3.84375 18.433594 3.609375 18.140625 C 3.46875 17.964844 2.839844 16.78125 2.589844 16.21875 C 2.171875 15.28125 2.144531 15.203125 2.140625 14.886719 C 2.136719 14.136719 2.613281 13.722656 4.679688 12.695312 C 5.042969 12.511719 5.449219 12.296875 5.582031 12.21875 C 5.898438 12.023438 6.453125 11.804688 6.878906 11.707031 C 7.066406 11.660156 7.453125 11.550781 7.738281 11.464844 C 9.578125 10.890625 10.761719 10.691406 12.261719 10.710938 C 13.078125 10.71875 13.0625 10.722656 13.121094 10.496094 C 13.171875 10.289062 13.527344 9.3125 13.683594 8.941406 C 13.75 8.792969 13.800781 8.632812 13.800781 8.589844 C 13.800781 8.40625 14.742188 6.726562 15.113281 6.253906 C 15.214844 6.121094 15.46875 5.796875 15.671875 5.535156 C 15.875 5.269531 16.085938 5.027344 16.140625 4.992188 C 16.191406 4.957031 16.289062 4.835938 16.355469 4.722656 C 16.480469 4.507812 16.675781 4.28125 17.449219 3.460938 C 17.707031 3.1875 18.019531 2.859375 18.140625 2.726562 C 18.921875 1.890625 19.644531 1.578125 20.324219 1.773438 M 19.421875 5.527344 C 19.15625 5.789062 18.871094 6.0625 18.785156 6.132812 C 18.558594 6.328125 18.003906 7 17.921875 7.1875 C 17.855469 7.339844 17.410156 7.988281 17.183594 8.261719 C 16.933594 8.570312 16.496094 9.390625 16.324219 9.882812 C 16.257812 10.0625 16.160156 10.34375 16.101562 10.507812 C 15.535156 12.089844 15.53125 13.707031 16.082031 15.308594 C 16.171875 15.570312 16.285156 15.925781 16.335938 16.097656 C 16.441406 16.46875 16.777344 17.152344 16.851562 17.152344 C 16.878906 17.152344 16.992188 17.078125 17.101562 16.984375 C 17.210938 16.886719 17.496094 16.679688 17.734375 16.515625 C 18.046875 16.304688 18.21875 16.15625 18.332031 16 C 18.421875 15.878906 18.574219 15.683594 18.667969 15.5625 C 18.886719 15.289062 19.972656 14.195312 20.160156 14.054688 C 20.238281 14 20.382812 13.882812 20.480469 13.792969 C 20.777344 13.53125 21.078125 13.285156 21.355469 13.078125 C 21.5 12.96875 21.726562 12.773438 21.859375 12.640625 C 21.992188 12.503906 22.179688 12.335938 22.28125 12.257812 C 22.378906 12.183594 22.53125 12.054688 22.621094 11.972656 C 22.707031 11.894531 22.851562 11.773438 22.941406 11.710938 C 23.886719 11.03125 23.898438 9.417969 22.972656 8.363281 C 22.902344 8.285156 22.726562 8.066406 22.582031 7.878906 C 22.433594 7.695312 22.25 7.460938 22.167969 7.367188 C 22.085938 7.269531 21.976562 7.113281 21.921875 7.023438 C 21.792969 6.816406 21.1875 6.160156 21 6.03125 C 20.921875 5.980469 20.652344 5.738281 20.402344 5.496094 C 20.148438 5.253906 19.933594 5.054688 19.925781 5.054688 C 19.914062 5.054688 19.6875 5.269531 19.421875 5.527344 M 11.238281 13.632812 C 10.574219 13.691406 10.183594 13.761719 9.621094 13.914062 C 9.398438 13.972656 9.039062 14.054688 8.820312 14.097656 C 8.601562 14.140625 8.3125 14.210938 8.179688 14.257812 C 7.808594 14.382812 7.085938 14.664062 6.800781 14.796875 C 6.65625 14.859375 6.414062 14.949219 6.257812 14.996094 C 6.101562 15.042969 5.863281 15.15625 5.726562 15.25 C 5.441406 15.4375 5.445312 15.417969 5.617188 15.839844 C 5.675781 15.984375 5.757812 16.1875 5.800781 16.296875 C 5.964844 16.703125 6.730469 17.921875 6.988281 18.179688 C 7.125 18.320312 7.292969 18.507812 7.367188 18.597656 C 8.226562 19.703125 9.578125 21.007812 10.265625 21.394531 C 10.71875 21.652344 11.832031 22.023438 12.339844 22.089844 C 12.539062 22.113281 12.863281 22.160156 13.066406 22.191406 C 13.484375 22.257812 14.691406 22.265625 15.179688 22.207031 C 15.355469 22.183594 15.632812 22.15625 15.792969 22.144531 C 16.152344 22.113281 16.160156 22.097656 15.984375 21.726562 C 15.898438 21.546875 15.8125 21.269531 15.761719 21.015625 C 15.699219 20.695312 15.648438 20.554688 15.554688 20.417969 C 15.21875 19.941406 14.761719 19.246094 14.535156 18.867188 C 14.394531 18.636719 14.222656 18.367188 14.148438 18.269531 C 13.964844 18.027344 13.90625 17.902344 13.820312 17.570312 C 13.78125 17.417969 13.734375 17.277344 13.71875 17.253906 C 13.488281 16.925781 12.953125 14.996094 12.835938 14.082031 C 12.808594 13.867188 12.773438 13.675781 12.761719 13.652344 C 12.71875 13.582031 11.871094 13.574219 11.238281 13.632812 M 27.167969 13.617188 C 26.683594 13.660156 26.1875 13.757812 25.71875 13.910156 C 25.53125 13.96875 25.222656 14.050781 25.03125 14.09375 C 24.632812 14.183594 24.03125 14.472656 23.679688 14.746094 C 23.558594 14.839844 23.390625 14.945312 23.308594 14.980469 C 23.023438 15.097656 22.0625 15.929688 21.9375 16.167969 C 21.855469 16.320312 21.886719 16.363281 22.261719 16.613281 C 22.445312 16.734375 22.722656 16.949219 22.875 17.09375 C 23.023438 17.238281 23.167969 17.351562 23.191406 17.351562 C 23.210938 17.351562 23.363281 17.40625 23.523438 17.46875 C 24.949219 18.027344 25.304688 18.160156 25.601562 18.25 C 25.957031 18.355469 26.976562 18.914062 27.21875 19.140625 C 27.285156 19.199219 27.539062 19.398438 27.78125 19.582031 C 28.320312 19.988281 29.03125 20.640625 29.34375 21.015625 C 29.625 21.351562 29.828125 21.347656 30.121094 20.992188 C 30.152344 20.953125 30.296875 20.828125 30.441406 20.714844 C 30.585938 20.597656 30.757812 20.449219 30.824219 20.378906 C 30.886719 20.3125 31.144531 20.046875 31.394531 19.789062 C 31.644531 19.53125 32.015625 19.113281 32.222656 18.859375 C 32.429688 18.605469 32.671875 18.335938 32.761719 18.265625 C 33.066406 18.027344 34.160156 16.269531 34.160156 16.019531 C 34.160156 15.976562 34.207031 15.84375 34.261719 15.726562 C 34.316406 15.609375 34.359375 15.492188 34.359375 15.464844 C 34.359375 15.371094 33.925781 15.113281 33.550781 14.984375 C 33.347656 14.914062 32.921875 14.746094 32.605469 14.609375 C 31.882812 14.304688 31.550781 14.191406 31.121094 14.109375 C 30.773438 14.042969 30.46875 13.964844 30.179688 13.871094 C 29.523438 13.65625 28.101562 13.539062 27.167969 13.617188 M 19.433594 18.757812 C 18.121094 19.308594 18.179688 21.105469 19.519531 21.554688 C 20.515625 21.886719 21.585938 20.890625 21.34375 19.859375 C 21.136719 18.960938 20.214844 18.433594 19.433594 18.757812 M 24.167969 20.8125 C 24.140625 20.828125 24.101562 20.9375 24.082031 21.058594 C 24.027344 21.367188 23.992188 21.472656 23.804688 21.851562 C 23.652344 22.15625 23.636719 22.21875 23.636719 22.46875 C 23.644531 23 23.558594 24.460938 23.5 24.855469 C 23.414062 25.414062 23.28125 26.113281 23.238281 26.207031 C 23.21875 26.253906 23.164062 26.429688 23.117188 26.605469 C 22.957031 27.1875 22.605469 28.175781 22.519531 28.28125 C 22.4375 28.375 21.96875 29.320312 21.917969 29.480469 C 21.84375 29.730469 22.242188 30.136719 22.710938 30.292969 C 22.792969 30.320312 23.074219 30.46875 23.339844 30.625 C 24.183594 31.128906 25.085938 31.511719 25.839844 31.683594 C 26.027344 31.726562 26.449219 31.835938 26.78125 31.921875 C 27.109375 32.011719 27.460938 32.097656 27.558594 32.117188 C 28.992188 32.375 28.894531 32.382812 28.957031 32.011719 C 28.980469 31.863281 29.019531 31.644531 29.039062 31.523438 C 29.558594 28.5 29.089844 25.625 27.753906 23.667969 C 27.59375 23.433594 27.402344 23.144531 27.328125 23.03125 C 27.15625 22.757812 26.597656 22.195312 26.390625 22.089844 C 26.296875 22.042969 26.136719 21.921875 26.027344 21.828125 C 25.917969 21.730469 25.8125 21.652344 25.789062 21.652344 C 25.769531 21.652344 25.566406 21.535156 25.339844 21.398438 C 24.808594 21.0625 24.226562 20.773438 24.167969 20.8125 M 18.78125 24.394531 C 18.460938 24.515625 17.566406 24.785156 17.261719 24.851562 C 16.707031 24.976562 16.617188 24.996094 16.28125 25.03125 C 14.777344 25.207031 12.511719 25.167969 11.71875 24.957031 C 11.410156 24.871094 11.339844 24.976562 11.027344 26.03125 C 10.710938 27.078125 10.554688 28.980469 10.675781 30.289062 C 10.875 32.445312 10.839844 32.371094 11.535156 32.261719 C 12.148438 32.160156 12.320312 32.125 13.101562 31.929688 C 13.496094 31.832031 13.972656 31.714844 14.160156 31.675781 C 14.347656 31.632812 14.617188 31.554688 14.761719 31.503906 C 14.90625 31.449219 15.035156 31.402344 15.050781 31.402344 C 15.167969 31.402344 16.183594 30.90625 16.519531 30.683594 C 16.664062 30.589844 16.960938 30.421875 17.179688 30.3125 C 18.074219 29.871094 19.65625 27.992188 19.941406 27.03125 C 19.992188 26.863281 20.105469 26.527344 20.191406 26.285156 C 20.371094 25.789062 20.4375 25.546875 20.582031 24.804688 C 20.660156 24.386719 20.65625 24.386719 20.246094 24.417969 C 19.945312 24.441406 19.695312 24.421875 19.121094 24.339844 C 19.035156 24.328125 18.902344 24.347656 18.78125 24.394531 "/>
</g>
</svg>
