<?xml version="1.0" encoding="UTF-8"?>
<svg xmlns="http://www.w3.org/2000/svg" xmlns:xlink="http://www.w3.org/1999/xlink" width="24px" height="24px" viewBox="0 0 24 24" version="1.1">
<g id="surface1">
<path style=" stroke:none;fill-rule:evenodd;fill:rgb(97.254902%,96.862745%,97.647059%);fill-opacity:1;" d="M 13.679688 5.253906 C 13.433594 5.320312 13.335938 5.410156 13.054688 5.820312 C 12.984375 5.921875 12.914062 6.027344 12.894531 6.046875 C 12.875 6.066406 12.820312 6.136719 12.773438 6.199219 L 12.691406 6.316406 L 8.316406 6.300781 L 8.085938 6.414062 C 7.945312 6.488281 7.792969 6.589844 7.679688 6.691406 C 7.578125 6.78125 7.40625 6.929688 7.296875 7.019531 C 7.1875 7.113281 7.039062 7.242188 6.964844 7.3125 C 6.890625 7.378906 6.78125 7.476562 6.71875 7.523438 C 6.449219 7.75 6.191406 8.09375 6.191406 8.230469 C 6.191406 8.25 6.171875 8.296875 6.148438 8.328125 C 6.089844 8.414062 6.089844 8.976562 6.148438 9.085938 C 6.167969 9.125 6.195312 9.195312 6.203125 9.242188 C 6.214844 9.285156 6.242188 9.367188 6.265625 9.425781 C 6.292969 9.480469 6.3125 9.542969 6.3125 9.5625 C 6.3125 9.582031 6.332031 9.644531 6.359375 9.703125 C 6.382812 9.757812 6.429688 9.878906 6.460938 9.972656 C 6.496094 10.0625 6.535156 10.179688 6.550781 10.222656 C 6.636719 10.464844 6.636719 10.476562 6.570312 10.613281 C 6.53125 10.683594 6.503906 10.753906 6.503906 10.765625 C 6.503906 10.78125 6.488281 10.804688 6.46875 10.820312 C 6.453125 10.835938 6.425781 10.898438 6.410156 10.953125 C 6.398438 11.015625 6.375 11.066406 6.359375 11.074219 C 6.351562 11.082031 6.328125 11.148438 6.3125 11.226562 C 6.296875 11.300781 6.269531 11.398438 6.25 11.4375 C 6.230469 11.484375 6.207031 11.671875 6.191406 11.90625 C 6.179688 12.125 6.160156 12.390625 6.152344 12.503906 C 6.136719 12.722656 6.199219 13.820312 6.242188 14.039062 C 6.253906 14.113281 6.277344 14.253906 6.289062 14.351562 C 6.304688 14.453125 6.339844 14.648438 6.371094 14.796875 C 6.40625 14.941406 6.4375 15.085938 6.441406 15.121094 C 6.457031 15.203125 6.523438 15.441406 6.574219 15.613281 C 6.601562 15.691406 6.644531 15.835938 6.671875 15.9375 C 6.703125 16.035156 6.75 16.191406 6.78125 16.285156 C 6.8125 16.375 6.839844 16.476562 6.839844 16.511719 C 6.839844 16.546875 6.855469 16.601562 6.875 16.640625 C 6.898438 16.679688 6.929688 16.777344 6.945312 16.859375 C 6.964844 16.9375 7 17.058594 7.019531 17.125 C 7.09375 17.34375 7.140625 17.5 7.257812 17.914062 C 7.316406 18.117188 7.382812 18.285156 7.425781 18.332031 C 7.445312 18.355469 7.464844 18.386719 7.464844 18.398438 C 7.46875 18.472656 7.863281 18.839844 7.9375 18.839844 C 7.953125 18.839844 8.015625 18.863281 8.078125 18.890625 C 8.226562 18.960938 8.679688 18.96875 8.855469 18.90625 C 8.914062 18.882812 9.007812 18.859375 9.058594 18.851562 C 9.113281 18.84375 9.203125 18.820312 9.265625 18.804688 C 9.324219 18.785156 9.4375 18.757812 9.515625 18.742188 C 9.59375 18.726562 9.710938 18.703125 9.765625 18.683594 C 9.828125 18.664062 9.9375 18.640625 10.007812 18.625 C 10.082031 18.609375 10.1875 18.582031 10.25 18.5625 C 10.308594 18.546875 10.410156 18.523438 10.476562 18.507812 C 10.597656 18.484375 10.847656 18.421875 11.148438 18.347656 C 11.242188 18.324219 11.402344 18.285156 11.507812 18.257812 C 11.96875 18.144531 12.542969 17.964844 12.585938 17.925781 C 12.601562 17.914062 12.625 17.90625 12.644531 17.90625 C 12.664062 17.90625 12.726562 17.882812 12.789062 17.851562 C 13.09375 17.714844 13.171875 17.679688 13.277344 17.625 C 13.339844 17.59375 13.40625 17.570312 13.421875 17.570312 C 13.4375 17.570312 13.464844 17.554688 13.484375 17.535156 C 13.507812 17.515625 13.59375 17.464844 13.679688 17.421875 C 13.847656 17.332031 13.902344 17.300781 14.117188 17.15625 C 14.195312 17.105469 14.265625 17.0625 14.273438 17.0625 C 14.277344 17.0625 14.320312 17.039062 14.359375 17.007812 C 14.402344 16.980469 14.453125 16.945312 14.476562 16.929688 C 14.789062 16.742188 15.457031 16.136719 15.457031 16.039062 C 15.457031 16.03125 15.484375 15.988281 15.515625 15.945312 C 15.546875 15.902344 15.578125 15.859375 15.578125 15.84375 C 15.578125 15.746094 15.78125 15.65625 16.152344 15.597656 C 16.238281 15.582031 16.433594 15.546875 16.589844 15.515625 C 16.746094 15.484375 16.90625 15.457031 16.945312 15.457031 C 16.984375 15.457031 17.046875 15.441406 17.085938 15.421875 C 17.121094 15.402344 17.191406 15.378906 17.246094 15.371094 C 17.507812 15.324219 17.875 15.007812 18.011719 14.703125 C 18.03125 14.664062 18.054688 14.609375 18.070312 14.59375 C 18.113281 14.515625 18.171875 14.292969 18.203125 14.074219 C 18.222656 13.949219 18.25 13.828125 18.265625 13.800781 C 18.277344 13.773438 18.296875 13.6875 18.304688 13.601562 C 18.308594 13.519531 18.332031 13.402344 18.351562 13.34375 C 18.367188 13.285156 18.398438 13.140625 18.417969 13.019531 C 18.4375 12.902344 18.464844 12.742188 18.480469 12.664062 C 18.527344 12.421875 18.421875 12.046875 18.207031 11.683594 C 18.179688 11.636719 18.109375 11.515625 18.046875 11.414062 C 17.988281 11.3125 17.910156 11.179688 17.875 11.117188 C 17.835938 11.054688 17.796875 10.976562 17.777344 10.945312 C 17.761719 10.910156 17.742188 10.878906 17.734375 10.871094 C 17.726562 10.867188 17.699219 10.820312 17.679688 10.777344 C 17.65625 10.730469 17.609375 10.644531 17.570312 10.585938 C 17.53125 10.523438 17.480469 10.445312 17.460938 10.40625 C 17.4375 10.363281 17.398438 10.289062 17.363281 10.234375 C 17.332031 10.183594 17.285156 10.101562 17.257812 10.050781 C 17.230469 10.003906 17.199219 9.957031 17.1875 9.949219 C 17.171875 9.941406 17.15625 9.902344 17.148438 9.863281 C 17.140625 9.824219 17.125 9.792969 17.117188 9.792969 C 17.105469 9.792969 17.078125 9.75 17.050781 9.703125 C 17.023438 9.652344 16.976562 9.570312 16.941406 9.515625 C 16.90625 9.460938 16.839844 9.34375 16.789062 9.253906 C 16.742188 9.160156 16.6875 9.070312 16.671875 9.046875 C 16.636719 9.011719 16.589844 8.925781 16.527344 8.792969 C 16.507812 8.753906 16.472656 8.707031 16.453125 8.6875 C 16.433594 8.671875 16.414062 8.640625 16.414062 8.625 C 16.414062 8.601562 16.390625 8.554688 16.363281 8.511719 C 16.296875 8.421875 16.289062 8.1875 16.347656 8.074219 C 16.398438 7.976562 16.488281 7.757812 16.515625 7.65625 C 16.53125 7.609375 16.5625 7.527344 16.585938 7.476562 C 16.609375 7.421875 16.632812 7.359375 16.632812 7.34375 C 16.632812 7.324219 16.652344 7.273438 16.679688 7.230469 C 16.707031 7.1875 16.726562 7.132812 16.726562 7.109375 C 16.726562 7.089844 16.75 7.027344 16.773438 6.972656 C 16.796875 6.921875 16.847656 6.796875 16.882812 6.695312 C 16.921875 6.597656 16.972656 6.460938 17 6.398438 C 17.128906 6.070312 16.941406 5.628906 16.59375 5.453125 C 16.496094 5.398438 16.09375 5.359375 15.132812 5.304688 C 14.660156 5.273438 14.0625 5.234375 13.929688 5.21875 C 13.878906 5.210938 13.765625 5.226562 13.679688 5.253906 M 14.832031 6.40625 C 15.621094 6.449219 15.652344 6.453125 15.679688 6.476562 C 15.71875 6.515625 15.703125 6.691406 15.652344 6.773438 C 15.625 6.816406 15.597656 6.882812 15.589844 6.921875 C 15.574219 6.996094 15.566406 7.015625 15.445312 7.277344 C 15.414062 7.355469 15.382812 7.433594 15.382812 7.453125 C 15.382812 7.492188 15.277344 7.78125 15.222656 7.882812 C 15.15625 8.007812 15.148438 8.554688 15.210938 8.6875 C 15.234375 8.75 15.265625 8.828125 15.273438 8.863281 C 15.28125 8.902344 15.308594 8.960938 15.332031 8.996094 C 15.402344 9.101562 15.429688 9.152344 15.476562 9.242188 C 15.496094 9.285156 15.554688 9.382812 15.605469 9.457031 C 15.65625 9.53125 15.695312 9.605469 15.695312 9.617188 C 15.695312 9.632812 15.710938 9.65625 15.730469 9.671875 C 15.75 9.6875 15.785156 9.738281 15.8125 9.789062 C 15.835938 9.835938 15.875 9.914062 15.902344 9.960938 C 15.925781 10.007812 15.960938 10.058594 15.976562 10.078125 C 15.992188 10.09375 16.007812 10.117188 16.007812 10.128906 C 16.007812 10.140625 16.046875 10.214844 16.097656 10.289062 C 16.148438 10.367188 16.207031 10.464844 16.230469 10.511719 C 16.253906 10.558594 16.296875 10.640625 16.328125 10.691406 C 16.363281 10.746094 16.40625 10.820312 16.421875 10.863281 C 16.445312 10.90625 16.46875 10.945312 16.484375 10.953125 C 16.5 10.964844 16.53125 11.007812 16.546875 11.046875 C 16.570312 11.089844 16.609375 11.167969 16.644531 11.21875 C 16.675781 11.273438 16.722656 11.359375 16.75 11.414062 C 16.777344 11.464844 16.851562 11.59375 16.917969 11.699219 C 16.984375 11.804688 17.054688 11.925781 17.074219 11.964844 C 17.09375 12.003906 17.144531 12.085938 17.183594 12.144531 C 17.222656 12.203125 17.261719 12.269531 17.269531 12.289062 C 17.277344 12.308594 17.304688 12.367188 17.332031 12.421875 C 17.375 12.507812 17.378906 12.53125 17.351562 12.636719 C 17.335938 12.703125 17.3125 12.820312 17.300781 12.898438 C 17.289062 12.980469 17.25 13.15625 17.21875 13.296875 C 17.1875 13.4375 17.160156 13.585938 17.160156 13.628906 C 17.160156 13.671875 17.144531 13.742188 17.125 13.785156 C 17.109375 13.828125 17.085938 13.921875 17.078125 13.992188 C 17.058594 14.132812 16.96875 14.292969 16.898438 14.3125 C 16.878906 14.320312 16.804688 14.332031 16.742188 14.34375 C 16.671875 14.351562 16.609375 14.367188 16.59375 14.378906 C 16.578125 14.390625 16.46875 14.414062 16.351562 14.425781 C 16.234375 14.4375 16.050781 14.46875 15.945312 14.496094 C 15.835938 14.523438 15.703125 14.542969 15.652344 14.542969 C 15.597656 14.542969 15.507812 14.558594 15.453125 14.578125 C 15.394531 14.597656 15.292969 14.621094 15.226562 14.628906 C 14.992188 14.660156 14.875 14.769531 14.699219 15.117188 C 14.546875 15.414062 14.203125 15.789062 13.96875 15.914062 C 13.9375 15.929688 13.898438 15.953125 13.886719 15.964844 C 13.871094 15.976562 13.804688 16.019531 13.742188 16.058594 C 13.671875 16.101562 13.550781 16.179688 13.464844 16.234375 C 12.984375 16.539062 12.390625 16.8125 11.820312 16.988281 C 11.523438 17.082031 11.414062 17.109375 11.234375 17.148438 C 11.09375 17.175781 10.964844 17.207031 10.585938 17.304688 C 10.523438 17.320312 10.382812 17.351562 10.265625 17.375 C 10.148438 17.402344 10.039062 17.429688 10.027344 17.4375 C 10.011719 17.449219 9.929688 17.46875 9.84375 17.484375 C 9.703125 17.507812 9.460938 17.566406 9.046875 17.664062 C 8.988281 17.679688 8.859375 17.714844 8.757812 17.742188 C 8.5 17.808594 8.445312 17.796875 8.417969 17.679688 C 8.40625 17.625 8.390625 17.570312 8.375 17.558594 C 8.355469 17.53125 8.277344 17.273438 8.230469 17.078125 C 8.203125 16.953125 8.117188 16.675781 8.0625 16.523438 C 8.039062 16.457031 8.011719 16.359375 8.003906 16.308594 C 7.996094 16.257812 7.972656 16.1875 7.957031 16.152344 C 7.9375 16.117188 7.914062 16.03125 7.898438 15.960938 C 7.886719 15.886719 7.859375 15.796875 7.835938 15.757812 C 7.816406 15.71875 7.800781 15.660156 7.800781 15.628906 C 7.800781 15.597656 7.785156 15.539062 7.765625 15.496094 C 7.75 15.453125 7.714844 15.335938 7.695312 15.238281 C 7.671875 15.140625 7.644531 15.050781 7.632812 15.035156 C 7.617188 15.019531 7.597656 14.9375 7.585938 14.855469 C 7.574219 14.769531 7.546875 14.652344 7.527344 14.59375 C 7.503906 14.539062 7.488281 14.457031 7.488281 14.421875 C 7.488281 14.382812 7.46875 14.242188 7.441406 14.117188 C 7.382812 13.816406 7.3125 12.804688 7.332031 12.492188 C 7.367188 11.90625 7.398438 11.625 7.429688 11.574219 C 7.449219 11.546875 7.464844 11.503906 7.464844 11.480469 C 7.464844 11.421875 7.664062 11.03125 7.734375 10.949219 C 7.851562 10.8125 7.914062 10.515625 7.84375 10.390625 C 7.832031 10.363281 7.804688 10.289062 7.789062 10.226562 C 7.75 10.078125 7.683594 9.898438 7.628906 9.777344 C 7.605469 9.722656 7.585938 9.65625 7.585938 9.632812 C 7.585938 9.609375 7.570312 9.566406 7.550781 9.539062 C 7.53125 9.515625 7.5 9.433594 7.480469 9.359375 C 7.425781 9.164062 7.351562 8.949219 7.308594 8.875 C 7.195312 8.679688 7.285156 8.554688 7.890625 8.050781 C 7.921875 8.023438 7.996094 7.953125 8.0625 7.898438 C 8.164062 7.796875 8.242188 7.730469 8.480469 7.53125 C 8.628906 7.410156 8.636719 7.410156 10.089844 7.425781 C 12.828125 7.457031 12.929688 7.457031 13.09375 7.40625 C 13.230469 7.367188 13.464844 7.234375 13.464844 7.199219 C 13.464844 7.191406 13.488281 7.15625 13.515625 7.121094 C 13.617188 7.003906 13.679688 6.917969 13.679688 6.890625 C 13.679688 6.878906 13.695312 6.863281 13.710938 6.855469 C 13.730469 6.851562 13.785156 6.773438 13.835938 6.683594 C 13.882812 6.597656 13.9375 6.519531 13.957031 6.511719 C 13.976562 6.503906 13.992188 6.484375 13.992188 6.46875 C 13.992188 6.398438 14.09375 6.359375 14.234375 6.371094 C 14.304688 6.378906 14.574219 6.394531 14.832031 6.40625 "/>
<path style=" stroke:none;fill-rule:evenodd;fill:rgb(41.960784%,28.627451%,70.980392%);fill-opacity:1;" d="M 10.367188 0.0234375 C 10.367188 0.0390625 10.238281 0.0507812 10.0625 0.0546875 C 9.765625 0.0585938 9.757812 0.0625 9.75 0.113281 C 9.742188 0.164062 9.734375 0.167969 9.476562 0.167969 C 9.234375 0.167969 9.214844 0.171875 9.214844 0.214844 C 9.214844 0.261719 9.199219 0.265625 9.007812 0.265625 C 8.824219 0.265625 8.804688 0.269531 8.789062 0.3125 C 8.78125 0.351562 8.757812 0.359375 8.652344 0.359375 C 8.460938 0.359375 8.375 0.382812 8.375 0.433594 C 8.375 0.476562 8.355469 0.480469 8.21875 0.480469 C 8.082031 0.480469 8.0625 0.484375 8.0625 0.527344 C 8.0625 0.566406 8.042969 0.574219 7.914062 0.582031 C 7.78125 0.585938 7.765625 0.59375 7.757812 0.640625 C 7.75 0.6875 7.734375 0.695312 7.640625 0.695312 C 7.550781 0.695312 7.535156 0.703125 7.535156 0.742188 C 7.535156 0.789062 7.519531 0.792969 7.390625 0.792969 C 7.265625 0.792969 7.242188 0.796875 7.230469 0.839844 C 7.222656 0.867188 7.199219 0.886719 7.167969 0.890625 C 7.070312 0.890625 7.007812 0.917969 7.007812 0.960938 C 7.007812 1 6.992188 1.007812 6.898438 1.007812 C 6.808594 1.007812 6.792969 1.015625 6.792969 1.054688 C 6.792969 1.097656 6.777344 1.101562 6.683594 1.101562 C 6.59375 1.101562 6.578125 1.109375 6.578125 1.152344 C 6.578125 1.1875 6.558594 1.199219 6.523438 1.199219 C 6.421875 1.203125 6.359375 1.226562 6.359375 1.273438 C 6.359375 1.3125 6.34375 1.320312 6.265625 1.320312 C 6.183594 1.320312 6.167969 1.328125 6.167969 1.367188 C 6.167969 1.40625 6.152344 1.414062 6.097656 1.414062 C 5.996094 1.414062 5.953125 1.4375 5.953125 1.492188 C 5.953125 1.519531 5.9375 1.535156 5.902344 1.535156 C 5.871094 1.535156 5.847656 1.554688 5.839844 1.585938 C 5.828125 1.621094 5.804688 1.632812 5.734375 1.632812 C 5.65625 1.632812 5.640625 1.640625 5.640625 1.679688 C 5.640625 1.710938 5.617188 1.726562 5.53125 1.738281 C 5.445312 1.75 5.421875 1.765625 5.421875 1.800781 C 5.421875 1.832031 5.40625 1.847656 5.375 1.847656 C 5.34375 1.847656 5.328125 1.863281 5.328125 1.894531 C 5.328125 1.933594 5.308594 1.941406 5.226562 1.949219 C 5.140625 1.953125 5.125 1.964844 5.117188 2.007812 C 5.109375 2.046875 5.09375 2.0625 5.050781 2.0625 C 5.007812 2.0625 4.992188 2.078125 4.992188 2.109375 C 4.992188 2.148438 4.972656 2.160156 4.902344 2.164062 C 4.835938 2.171875 4.8125 2.183594 4.800781 2.21875 C 4.792969 2.246094 4.773438 2.269531 4.757812 2.269531 C 4.6875 2.277344 4.679688 2.28125 4.679688 2.328125 C 4.679688 2.359375 4.664062 2.375 4.632812 2.375 C 4.601562 2.375 4.585938 2.390625 4.585938 2.421875 C 4.585938 2.457031 4.570312 2.472656 4.535156 2.472656 C 4.503906 2.472656 4.476562 2.492188 4.472656 2.519531 C 4.460938 2.550781 4.429688 2.570312 4.367188 2.578125 C 4.296875 2.59375 4.273438 2.609375 4.273438 2.640625 C 4.273438 2.671875 4.253906 2.6875 4.222656 2.6875 C 4.191406 2.6875 4.164062 2.707031 4.160156 2.734375 C 4.152344 2.761719 4.125 2.785156 4.101562 2.785156 C 4.070312 2.785156 4.054688 2.800781 4.054688 2.84375 C 4.054688 2.886719 4.042969 2.90625 4.007812 2.90625 C 3.984375 2.90625 3.957031 2.925781 3.949219 2.953125 C 3.9375 2.976562 3.914062 3 3.886719 3 C 3.855469 3 3.839844 3.015625 3.839844 3.046875 C 3.839844 3.078125 3.824219 3.09375 3.792969 3.09375 C 3.757812 3.09375 3.742188 3.113281 3.742188 3.15625 C 3.742188 3.203125 3.734375 3.214844 3.683594 3.214844 C 3.636719 3.214844 3.625 3.226562 3.628906 3.257812 C 3.632812 3.285156 3.617188 3.304688 3.582031 3.308594 C 3.542969 3.3125 3.527344 3.332031 3.527344 3.375 C 3.527344 3.414062 3.515625 3.429688 3.480469 3.429688 C 3.449219 3.429688 3.429688 3.449219 3.429688 3.480469 C 3.429688 3.515625 3.414062 3.527344 3.375 3.527344 C 3.332031 3.527344 3.3125 3.542969 3.308594 3.582031 C 3.304688 3.617188 3.285156 3.632812 3.257812 3.628906 C 3.226562 3.625 3.214844 3.636719 3.214844 3.683594 C 3.214844 3.734375 3.203125 3.742188 3.15625 3.742188 C 3.125 3.742188 3.097656 3.75 3.097656 3.761719 C 3.105469 3.8125 3.09375 3.835938 3.046875 3.847656 C 3.023438 3.851562 3 3.875 3 3.898438 C 3 3.914062 2.976562 3.9375 2.953125 3.949219 C 2.925781 3.957031 2.90625 3.984375 2.90625 4.007812 C 2.90625 4.042969 2.886719 4.054688 2.839844 4.054688 C 2.789062 4.054688 2.78125 4.066406 2.789062 4.101562 C 2.800781 4.136719 2.789062 4.152344 2.75 4.15625 C 2.71875 4.160156 2.695312 4.183594 2.691406 4.21875 C 2.6875 4.25 2.667969 4.273438 2.640625 4.273438 C 2.609375 4.273438 2.59375 4.296875 2.578125 4.367188 C 2.570312 4.429688 2.550781 4.460938 2.519531 4.472656 C 2.492188 4.476562 2.472656 4.503906 2.472656 4.535156 C 2.472656 4.570312 2.457031 4.585938 2.421875 4.585938 C 2.390625 4.585938 2.375 4.601562 2.375 4.632812 C 2.375 4.664062 2.359375 4.679688 2.332031 4.679688 C 2.285156 4.679688 2.246094 4.742188 2.265625 4.773438 C 2.273438 4.785156 2.253906 4.800781 2.21875 4.808594 C 2.171875 4.820312 2.160156 4.839844 2.160156 4.90625 C 2.160156 4.976562 2.148438 4.992188 2.113281 4.992188 C 2.078125 4.992188 2.0625 5.007812 2.0625 5.050781 C 2.0625 5.09375 2.046875 5.109375 2.007812 5.117188 C 1.964844 5.125 1.953125 5.140625 1.949219 5.226562 C 1.941406 5.308594 1.933594 5.328125 1.894531 5.328125 C 1.863281 5.328125 1.847656 5.34375 1.847656 5.375 C 1.847656 5.40625 1.832031 5.421875 1.804688 5.421875 C 1.75 5.421875 1.726562 5.46875 1.726562 5.570312 C 1.726562 5.625 1.71875 5.640625 1.679688 5.640625 C 1.640625 5.640625 1.632812 5.65625 1.632812 5.734375 C 1.632812 5.804688 1.621094 5.828125 1.585938 5.839844 C 1.554688 5.847656 1.535156 5.871094 1.535156 5.898438 C 1.535156 5.933594 1.515625 5.953125 1.484375 5.957031 C 1.4375 5.960938 1.425781 5.980469 1.421875 6.066406 C 1.414062 6.148438 1.40625 6.167969 1.367188 6.167969 C 1.328125 6.167969 1.320312 6.183594 1.320312 6.261719 C 1.320312 6.335938 1.308594 6.359375 1.273438 6.371094 C 1.246094 6.382812 1.222656 6.40625 1.21875 6.433594 C 1.21875 6.460938 1.214844 6.492188 1.210938 6.503906 C 1.210938 6.515625 1.203125 6.539062 1.203125 6.550781 C 1.203125 6.566406 1.179688 6.578125 1.152344 6.578125 C 1.109375 6.578125 1.101562 6.59375 1.101562 6.683594 C 1.101562 6.777344 1.097656 6.792969 1.054688 6.792969 C 1.015625 6.792969 1.007812 6.808594 1.007812 6.898438 C 1.007812 6.992188 1 7.007812 0.953125 7.011719 C 0.90625 7.019531 0.898438 7.035156 0.898438 7.121094 C 0.898438 7.207031 0.890625 7.222656 0.84375 7.234375 C 0.796875 7.246094 0.792969 7.265625 0.792969 7.390625 C 0.792969 7.519531 0.789062 7.535156 0.742188 7.535156 C 0.703125 7.535156 0.695312 7.550781 0.695312 7.691406 C 0.695312 7.832031 0.691406 7.84375 0.640625 7.851562 C 0.597656 7.859375 0.585938 7.878906 0.578125 7.96875 C 0.566406 8.054688 0.554688 8.074219 0.523438 8.070312 C 0.5 8.066406 0.480469 8.070312 0.484375 8.082031 C 0.507812 8.234375 0.476562 8.46875 0.425781 8.476562 C 0.382812 8.484375 0.371094 8.5 0.367188 8.578125 C 0.363281 8.765625 0.359375 8.777344 0.3125 8.789062 C 0.269531 8.804688 0.265625 8.824219 0.265625 9.007812 C 0.265625 9.199219 0.261719 9.214844 0.214844 9.214844 C 0.171875 9.214844 0.167969 9.234375 0.167969 9.480469 L 0.167969 9.742188 L 0.046875 9.742188 L 0.0507812 10.046875 C 0.0507812 10.25 0.0429688 10.359375 0.0273438 10.363281 C -0.0117188 10.375 -0.0117188 13.625 0.0273438 13.636719 C 0.0429688 13.640625 0.0546875 13.753906 0.0546875 13.945312 C 0.0585938 14.234375 0.0625 14.242188 0.113281 14.25 C 0.164062 14.257812 0.167969 14.265625 0.167969 14.523438 C 0.167969 14.765625 0.171875 14.785156 0.214844 14.785156 C 0.261719 14.785156 0.265625 14.800781 0.265625 14.992188 C 0.265625 15.175781 0.269531 15.195312 0.3125 15.210938 C 0.34375 15.21875 0.359375 15.242188 0.363281 15.285156 C 0.363281 15.320312 0.367188 15.386719 0.371094 15.429688 C 0.375 15.476562 0.378906 15.539062 0.382812 15.570312 C 0.382812 15.605469 0.398438 15.625 0.429688 15.625 C 0.476562 15.625 0.480469 15.640625 0.480469 15.78125 C 0.480469 15.902344 0.488281 15.929688 0.515625 15.921875 C 0.5625 15.902344 0.578125 15.9375 0.578125 16.089844 C 0.582031 16.164062 0.589844 16.21875 0.601562 16.210938 C 0.613281 16.203125 0.628906 16.210938 0.636719 16.222656 C 0.644531 16.238281 0.660156 16.242188 0.671875 16.234375 C 0.6875 16.226562 0.695312 16.273438 0.695312 16.34375 C 0.695312 16.449219 0.703125 16.464844 0.742188 16.464844 C 0.789062 16.464844 0.792969 16.480469 0.792969 16.609375 C 0.792969 16.734375 0.796875 16.757812 0.839844 16.769531 C 0.867188 16.777344 0.890625 16.789062 0.890625 16.804688 C 0.898438 16.851562 0.90625 16.921875 0.910156 16.957031 C 0.910156 16.976562 0.933594 16.992188 0.960938 16.992188 C 1 16.992188 1.007812 17.007812 1.007812 17.101562 C 1.007812 17.191406 1.015625 17.207031 1.054688 17.207031 C 1.097656 17.207031 1.101562 17.222656 1.101562 17.316406 C 1.101562 17.40625 1.109375 17.421875 1.152344 17.421875 C 1.179688 17.421875 1.203125 17.441406 1.203125 17.464844 C 1.203125 17.488281 1.207031 17.519531 1.210938 17.53125 C 1.214844 17.546875 1.21875 17.574219 1.21875 17.597656 C 1.222656 17.625 1.242188 17.640625 1.273438 17.640625 C 1.3125 17.640625 1.320312 17.65625 1.320312 17.734375 C 1.320312 17.816406 1.328125 17.832031 1.367188 17.832031 C 1.40625 17.832031 1.414062 17.847656 1.414062 17.902344 C 1.414062 18.003906 1.4375 18.046875 1.492188 18.046875 C 1.523438 18.046875 1.535156 18.066406 1.535156 18.109375 C 1.535156 18.152344 1.546875 18.167969 1.585938 18.167969 C 1.625 18.167969 1.632812 18.183594 1.632812 18.265625 C 1.632812 18.34375 1.640625 18.359375 1.679688 18.359375 C 1.714844 18.359375 1.726562 18.375 1.726562 18.417969 C 1.726562 18.453125 1.738281 18.484375 1.75 18.492188 C 1.765625 18.5 1.765625 18.523438 1.761719 18.539062 C 1.75 18.5625 1.761719 18.578125 1.796875 18.578125 C 1.828125 18.578125 1.847656 18.59375 1.851562 18.628906 C 1.855469 18.660156 1.875 18.683594 1.898438 18.683594 C 1.921875 18.683594 1.9375 18.714844 1.945312 18.78125 C 1.953125 18.855469 1.96875 18.878906 2.007812 18.882812 C 2.046875 18.890625 2.0625 18.90625 2.0625 18.949219 C 2.0625 18.992188 2.078125 19.007812 2.109375 19.007812 C 2.148438 19.007812 2.160156 19.027344 2.164062 19.097656 C 2.171875 19.164062 2.183594 19.1875 2.21875 19.199219 C 2.246094 19.207031 2.269531 19.226562 2.269531 19.242188 C 2.277344 19.3125 2.28125 19.320312 2.328125 19.320312 C 2.359375 19.320312 2.375 19.335938 2.375 19.367188 C 2.375 19.398438 2.390625 19.414062 2.421875 19.414062 C 2.457031 19.414062 2.472656 19.429688 2.472656 19.464844 C 2.472656 19.496094 2.492188 19.523438 2.519531 19.527344 C 2.550781 19.539062 2.570312 19.570312 2.578125 19.632812 C 2.59375 19.703125 2.609375 19.726562 2.640625 19.726562 C 2.667969 19.726562 2.6875 19.75 2.691406 19.78125 C 2.695312 19.816406 2.71875 19.839844 2.75 19.84375 C 2.789062 19.847656 2.800781 19.863281 2.789062 19.898438 C 2.78125 19.933594 2.789062 19.945312 2.839844 19.945312 C 2.890625 19.945312 2.90625 19.953125 2.90625 20.003906 C 2.90625 20.046875 2.917969 20.0625 2.953125 20.0625 C 2.984375 20.0625 3 20.078125 3 20.113281 C 3 20.144531 3.015625 20.160156 3.046875 20.160156 C 3.078125 20.160156 3.09375 20.175781 3.09375 20.207031 C 3.09375 20.242188 3.113281 20.257812 3.15625 20.257812 C 3.203125 20.257812 3.214844 20.265625 3.214844 20.316406 C 3.214844 20.359375 3.226562 20.375 3.265625 20.375 C 3.296875 20.375 3.3125 20.390625 3.3125 20.421875 C 3.3125 20.460938 3.328125 20.472656 3.371094 20.472656 C 3.414062 20.472656 3.429688 20.484375 3.429688 20.519531 C 3.429688 20.550781 3.449219 20.570312 3.480469 20.570312 C 3.515625 20.570312 3.527344 20.585938 3.527344 20.628906 C 3.527344 20.671875 3.539062 20.6875 3.578125 20.6875 C 3.609375 20.6875 3.625 20.703125 3.625 20.734375 C 3.625 20.773438 3.640625 20.785156 3.683594 20.785156 C 3.734375 20.785156 3.742188 20.796875 3.742188 20.84375 C 3.742188 20.886719 3.757812 20.90625 3.792969 20.90625 C 3.824219 20.90625 3.839844 20.921875 3.839844 20.953125 C 3.839844 20.984375 3.855469 21 3.886719 21 C 3.914062 21 3.9375 21.023438 3.949219 21.046875 C 3.957031 21.074219 3.984375 21.09375 4.007812 21.09375 C 4.042969 21.09375 4.054688 21.113281 4.054688 21.15625 C 4.054688 21.199219 4.070312 21.214844 4.101562 21.214844 C 4.125 21.214844 4.152344 21.238281 4.160156 21.265625 C 4.164062 21.292969 4.191406 21.3125 4.222656 21.3125 C 4.253906 21.3125 4.273438 21.328125 4.273438 21.359375 C 4.273438 21.40625 4.316406 21.429688 4.402344 21.429688 C 4.4375 21.429688 4.460938 21.449219 4.46875 21.480469 C 4.476562 21.507812 4.503906 21.527344 4.535156 21.527344 C 4.570312 21.527344 4.585938 21.542969 4.585938 21.578125 C 4.585938 21.609375 4.601562 21.625 4.632812 21.625 C 4.664062 21.625 4.679688 21.640625 4.679688 21.671875 C 4.679688 21.71875 4.6875 21.722656 4.757812 21.730469 C 4.773438 21.730469 4.792969 21.753906 4.800781 21.78125 C 4.8125 21.828125 4.820312 21.832031 4.929688 21.835938 C 4.976562 21.839844 4.992188 21.851562 4.992188 21.886719 C 4.992188 21.921875 5.007812 21.9375 5.050781 21.9375 C 5.09375 21.9375 5.109375 21.953125 5.117188 21.992188 C 5.125 22.035156 5.140625 22.046875 5.226562 22.050781 C 5.308594 22.058594 5.328125 22.066406 5.328125 22.105469 C 5.328125 22.136719 5.34375 22.152344 5.375 22.152344 C 5.40625 22.152344 5.421875 22.167969 5.421875 22.195312 C 5.421875 22.25 5.46875 22.273438 5.570312 22.273438 C 5.625 22.273438 5.640625 22.28125 5.640625 22.320312 C 5.640625 22.359375 5.65625 22.367188 5.734375 22.367188 C 5.804688 22.367188 5.828125 22.378906 5.839844 22.414062 C 5.847656 22.445312 5.871094 22.464844 5.898438 22.464844 C 5.933594 22.464844 5.953125 22.484375 5.957031 22.515625 C 5.960938 22.5625 5.980469 22.574219 6.066406 22.578125 C 6.148438 22.585938 6.167969 22.59375 6.167969 22.632812 C 6.167969 22.671875 6.183594 22.679688 6.265625 22.679688 C 6.316406 22.679688 6.359375 22.691406 6.359375 22.703125 C 6.359375 22.75 6.4375 22.800781 6.507812 22.800781 C 6.558594 22.800781 6.578125 22.8125 6.578125 22.847656 C 6.578125 22.890625 6.59375 22.898438 6.683594 22.898438 C 6.777344 22.898438 6.792969 22.902344 6.792969 22.945312 C 6.792969 22.984375 6.808594 22.992188 6.898438 22.992188 C 6.992188 22.992188 7.007812 23 7.011719 23.046875 C 7.019531 23.089844 7.039062 23.101562 7.117188 23.109375 C 7.195312 23.113281 7.222656 23.125 7.230469 23.160156 C 7.242188 23.203125 7.265625 23.207031 7.390625 23.207031 C 7.519531 23.207031 7.535156 23.210938 7.535156 23.257812 C 7.535156 23.296875 7.550781 23.304688 7.691406 23.304688 C 7.84375 23.304688 7.847656 23.304688 7.847656 23.363281 C 7.847656 23.417969 7.855469 23.421875 7.957031 23.421875 C 8.046875 23.421875 8.0625 23.429688 8.0625 23.472656 C 8.0625 23.515625 8.078125 23.519531 8.265625 23.519531 C 8.457031 23.519531 8.46875 23.523438 8.476562 23.574219 C 8.484375 23.621094 8.5 23.628906 8.632812 23.632812 C 8.753906 23.640625 8.78125 23.648438 8.789062 23.6875 C 8.800781 23.730469 8.824219 23.734375 9.007812 23.734375 C 9.199219 23.734375 9.214844 23.738281 9.214844 23.785156 C 9.214844 23.828125 9.234375 23.832031 9.480469 23.832031 L 9.742188 23.832031 L 9.742188 23.953125 L 10.054688 23.953125 C 10.25 23.953125 10.367188 23.960938 10.367188 23.976562 C 10.367188 23.992188 10.929688 24 12 24 C 13.039062 24 13.632812 23.992188 13.632812 23.976562 C 13.632812 23.960938 13.761719 23.949219 13.9375 23.945312 C 14.234375 23.941406 14.242188 23.9375 14.25 23.886719 C 14.257812 23.835938 14.265625 23.832031 14.523438 23.832031 C 14.765625 23.832031 14.785156 23.828125 14.785156 23.785156 C 14.785156 23.738281 14.800781 23.734375 14.992188 23.734375 C 15.175781 23.734375 15.195312 23.730469 15.210938 23.6875 C 15.21875 23.648438 15.242188 23.640625 15.347656 23.640625 C 15.539062 23.640625 15.625 23.617188 15.625 23.566406 C 15.625 23.523438 15.644531 23.519531 15.78125 23.519531 C 15.921875 23.519531 15.9375 23.515625 15.9375 23.472656 C 15.9375 23.429688 15.953125 23.421875 16.082031 23.421875 C 16.210938 23.421875 16.226562 23.417969 16.25 23.363281 C 16.265625 23.3125 16.285156 23.304688 16.367188 23.304688 C 16.449219 23.304688 16.464844 23.296875 16.464844 23.257812 C 16.464844 23.210938 16.480469 23.207031 16.609375 23.207031 C 16.734375 23.207031 16.757812 23.203125 16.769531 23.160156 C 16.777344 23.132812 16.800781 23.113281 16.832031 23.109375 C 16.929688 23.109375 16.992188 23.082031 16.992188 23.039062 C 16.992188 23 17.007812 22.992188 17.101562 22.992188 C 17.191406 22.992188 17.207031 22.984375 17.207031 22.945312 C 17.207031 22.902344 17.222656 22.898438 17.316406 22.898438 C 17.40625 22.898438 17.421875 22.890625 17.421875 22.851562 C 17.421875 22.8125 17.445312 22.800781 17.527344 22.796875 C 17.609375 22.789062 17.628906 22.78125 17.636719 22.734375 C 17.640625 22.6875 17.65625 22.679688 17.738281 22.679688 C 17.816406 22.679688 17.832031 22.671875 17.832031 22.632812 C 17.832031 22.59375 17.847656 22.585938 17.902344 22.585938 C 18.003906 22.585938 18.046875 22.5625 18.046875 22.507812 C 18.046875 22.476562 18.066406 22.464844 18.109375 22.464844 C 18.152344 22.464844 18.167969 22.453125 18.167969 22.414062 C 18.167969 22.375 18.183594 22.367188 18.265625 22.367188 C 18.34375 22.367188 18.359375 22.359375 18.359375 22.320312 C 18.359375 22.289062 18.382812 22.273438 18.46875 22.261719 C 18.554688 22.25 18.578125 22.234375 18.578125 22.199219 C 18.578125 22.164062 18.59375 22.152344 18.636719 22.152344 C 18.679688 22.152344 18.695312 22.140625 18.695312 22.105469 C 18.695312 22.070312 18.714844 22.058594 18.785156 22.050781 C 18.859375 22.046875 18.878906 22.03125 18.882812 21.992188 C 18.890625 21.953125 18.90625 21.9375 18.949219 21.9375 C 18.992188 21.9375 19.007812 21.921875 19.007812 21.886719 C 19.007812 21.847656 19.023438 21.839844 19.09375 21.839844 C 19.160156 21.839844 19.183594 21.828125 19.191406 21.792969 C 19.199219 21.769531 19.230469 21.742188 19.261719 21.734375 C 19.296875 21.726562 19.320312 21.703125 19.320312 21.671875 C 19.320312 21.640625 19.335938 21.625 19.367188 21.625 C 19.398438 21.625 19.414062 21.609375 19.414062 21.578125 C 19.414062 21.539062 19.429688 21.527344 19.476562 21.527344 C 19.519531 21.527344 19.535156 21.515625 19.535156 21.480469 C 19.535156 21.445312 19.550781 21.429688 19.59375 21.429688 C 19.683594 21.429688 19.726562 21.40625 19.726562 21.359375 C 19.726562 21.328125 19.746094 21.3125 19.777344 21.3125 C 19.808594 21.3125 19.835938 21.292969 19.839844 21.265625 C 19.847656 21.238281 19.875 21.214844 19.898438 21.214844 C 19.929688 21.214844 19.945312 21.199219 19.945312 21.15625 C 19.945312 21.109375 19.957031 21.09375 20.003906 21.09375 C 20.046875 21.09375 20.0625 21.082031 20.0625 21.046875 C 20.0625 21.015625 20.078125 21 20.113281 21 C 20.144531 21 20.160156 20.984375 20.160156 20.953125 C 20.160156 20.921875 20.175781 20.90625 20.207031 20.90625 C 20.242188 20.90625 20.257812 20.886719 20.257812 20.84375 C 20.257812 20.796875 20.265625 20.785156 20.316406 20.785156 C 20.359375 20.785156 20.375 20.773438 20.375 20.734375 C 20.375 20.703125 20.390625 20.6875 20.421875 20.6875 C 20.460938 20.6875 20.472656 20.671875 20.472656 20.628906 C 20.472656 20.585938 20.484375 20.570312 20.519531 20.570312 C 20.550781 20.570312 20.570312 20.550781 20.570312 20.519531 C 20.570312 20.484375 20.585938 20.472656 20.628906 20.472656 C 20.671875 20.472656 20.6875 20.460938 20.6875 20.421875 C 20.6875 20.390625 20.703125 20.375 20.734375 20.375 C 20.773438 20.375 20.785156 20.359375 20.785156 20.316406 C 20.785156 20.265625 20.796875 20.257812 20.84375 20.257812 C 20.886719 20.257812 20.90625 20.242188 20.90625 20.207031 C 20.90625 20.175781 20.921875 20.160156 20.953125 20.160156 C 20.984375 20.160156 21 20.144531 21 20.113281 C 21 20.078125 21.015625 20.0625 21.046875 20.0625 C 21.082031 20.0625 21.09375 20.046875 21.09375 20.003906 C 21.09375 19.957031 21.109375 19.945312 21.15625 19.945312 C 21.199219 19.945312 21.214844 19.929688 21.214844 19.898438 C 21.214844 19.875 21.238281 19.847656 21.265625 19.839844 C 21.292969 19.835938 21.3125 19.808594 21.3125 19.777344 C 21.3125 19.746094 21.328125 19.726562 21.359375 19.726562 C 21.40625 19.726562 21.429688 19.683594 21.429688 19.59375 C 21.429688 19.550781 21.445312 19.535156 21.480469 19.535156 C 21.515625 19.535156 21.527344 19.519531 21.527344 19.476562 C 21.527344 19.429688 21.539062 19.414062 21.578125 19.414062 C 21.609375 19.414062 21.625 19.398438 21.625 19.367188 C 21.625 19.335938 21.640625 19.320312 21.671875 19.320312 C 21.703125 19.320312 21.726562 19.296875 21.734375 19.261719 C 21.742188 19.230469 21.769531 19.199219 21.792969 19.191406 C 21.828125 19.183594 21.839844 19.160156 21.839844 19.09375 C 21.839844 19.023438 21.847656 19.007812 21.886719 19.007812 C 21.921875 19.007812 21.9375 18.992188 21.9375 18.949219 C 21.9375 18.90625 21.953125 18.890625 21.992188 18.882812 C 22.03125 18.878906 22.046875 18.859375 22.050781 18.785156 C 22.058594 18.714844 22.070312 18.695312 22.105469 18.695312 C 22.140625 18.695312 22.152344 18.679688 22.152344 18.636719 C 22.152344 18.59375 22.164062 18.578125 22.195312 18.578125 C 22.25 18.578125 22.273438 18.53125 22.273438 18.429688 C 22.273438 18.375 22.28125 18.359375 22.320312 18.359375 C 22.359375 18.359375 22.367188 18.34375 22.367188 18.265625 C 22.367188 18.183594 22.375 18.167969 22.414062 18.167969 C 22.453125 18.167969 22.464844 18.152344 22.464844 18.109375 C 22.464844 18.066406 22.476562 18.046875 22.515625 18.042969 C 22.5625 18.039062 22.574219 18.019531 22.578125 17.933594 C 22.585938 17.851562 22.59375 17.832031 22.632812 17.832031 C 22.671875 17.832031 22.679688 17.816406 22.679688 17.742188 C 22.679688 17.671875 22.691406 17.648438 22.734375 17.628906 C 22.773438 17.609375 22.789062 17.578125 22.796875 17.515625 C 22.800781 17.445312 22.8125 17.421875 22.851562 17.421875 C 22.890625 17.421875 22.898438 17.40625 22.898438 17.316406 C 22.898438 17.222656 22.902344 17.207031 22.945312 17.207031 C 22.984375 17.207031 22.992188 17.191406 22.992188 17.101562 C 22.992188 17.007812 23 16.992188 23.046875 16.988281 C 23.089844 16.980469 23.101562 16.960938 23.109375 16.882812 C 23.113281 16.804688 23.125 16.777344 23.160156 16.769531 C 23.203125 16.757812 23.207031 16.734375 23.207031 16.609375 C 23.207031 16.480469 23.210938 16.464844 23.257812 16.464844 C 23.296875 16.464844 23.304688 16.449219 23.304688 16.308594 C 23.304688 16.15625 23.304688 16.152344 23.363281 16.152344 C 23.417969 16.152344 23.421875 16.144531 23.421875 16.042969 C 23.421875 15.953125 23.429688 15.9375 23.472656 15.9375 C 23.515625 15.9375 23.519531 15.921875 23.519531 15.734375 C 23.519531 15.542969 23.523438 15.53125 23.574219 15.523438 C 23.621094 15.515625 23.628906 15.5 23.632812 15.367188 C 23.640625 15.246094 23.648438 15.21875 23.6875 15.210938 C 23.730469 15.199219 23.734375 15.175781 23.734375 14.992188 C 23.734375 14.800781 23.738281 14.785156 23.785156 14.785156 C 23.828125 14.785156 23.832031 14.765625 23.832031 14.519531 L 23.832031 14.257812 L 23.953125 14.257812 L 23.953125 13.945312 C 23.953125 13.75 23.960938 13.632812 23.976562 13.632812 C 23.992188 13.632812 24 13.070312 24 12 C 24 10.960938 23.992188 10.367188 23.976562 10.367188 C 23.960938 10.367188 23.949219 10.238281 23.945312 10.0625 C 23.941406 9.765625 23.9375 9.757812 23.886719 9.75 C 23.835938 9.742188 23.832031 9.734375 23.832031 9.476562 C 23.832031 9.234375 23.828125 9.214844 23.785156 9.214844 C 23.738281 9.214844 23.734375 9.199219 23.734375 9.007812 C 23.734375 8.824219 23.730469 8.804688 23.6875 8.789062 C 23.648438 8.78125 23.640625 8.757812 23.640625 8.652344 C 23.640625 8.460938 23.617188 8.375 23.566406 8.375 C 23.523438 8.375 23.519531 8.355469 23.519531 8.21875 C 23.519531 8.082031 23.515625 8.0625 23.472656 8.0625 C 23.433594 8.0625 23.425781 8.042969 23.417969 7.914062 C 23.414062 7.78125 23.40625 7.765625 23.359375 7.757812 C 23.3125 7.75 23.304688 7.734375 23.304688 7.640625 C 23.304688 7.550781 23.296875 7.535156 23.257812 7.535156 C 23.210938 7.535156 23.207031 7.519531 23.207031 7.390625 C 23.207031 7.265625 23.203125 7.242188 23.160156 7.230469 C 23.132812 7.222656 23.113281 7.199219 23.109375 7.167969 C 23.109375 7.070312 23.082031 7.007812 23.039062 7.007812 C 23 7.007812 22.992188 6.992188 22.992188 6.898438 C 22.992188 6.808594 22.984375 6.792969 22.945312 6.792969 C 22.902344 6.792969 22.898438 6.777344 22.898438 6.683594 C 22.898438 6.59375 22.890625 6.578125 22.851562 6.578125 C 22.8125 6.578125 22.800781 6.554688 22.796875 6.472656 C 22.789062 6.390625 22.78125 6.371094 22.734375 6.363281 C 22.6875 6.359375 22.679688 6.34375 22.679688 6.261719 C 22.679688 6.183594 22.671875 6.167969 22.632812 6.167969 C 22.59375 6.167969 22.585938 6.152344 22.585938 6.097656 C 22.585938 5.996094 22.5625 5.953125 22.507812 5.953125 C 22.480469 5.953125 22.464844 5.9375 22.464844 5.902344 C 22.464844 5.871094 22.445312 5.847656 22.414062 5.839844 C 22.378906 5.828125 22.367188 5.804688 22.367188 5.734375 C 22.367188 5.65625 22.359375 5.640625 22.320312 5.640625 C 22.289062 5.640625 22.273438 5.617188 22.261719 5.53125 C 22.25 5.445312 22.234375 5.421875 22.199219 5.421875 C 22.167969 5.421875 22.152344 5.40625 22.152344 5.375 C 22.152344 5.34375 22.136719 5.328125 22.105469 5.328125 C 22.066406 5.328125 22.058594 5.308594 22.050781 5.226562 C 22.046875 5.140625 22.035156 5.125 21.992188 5.117188 C 21.953125 5.109375 21.9375 5.09375 21.9375 5.050781 C 21.9375 5.007812 21.921875 4.992188 21.886719 4.992188 C 21.847656 4.992188 21.839844 4.976562 21.839844 4.90625 C 21.839844 4.839844 21.828125 4.816406 21.792969 4.808594 C 21.769531 4.800781 21.742188 4.769531 21.734375 4.738281 C 21.726562 4.703125 21.703125 4.679688 21.671875 4.679688 C 21.640625 4.679688 21.625 4.664062 21.625 4.632812 C 21.625 4.601562 21.609375 4.585938 21.578125 4.585938 C 21.542969 4.585938 21.527344 4.570312 21.527344 4.535156 C 21.527344 4.503906 21.507812 4.476562 21.480469 4.46875 C 21.449219 4.460938 21.429688 4.4375 21.429688 4.402344 C 21.429688 4.316406 21.40625 4.273438 21.359375 4.273438 C 21.328125 4.273438 21.3125 4.253906 21.3125 4.222656 C 21.3125 4.191406 21.292969 4.164062 21.265625 4.160156 C 21.238281 4.152344 21.214844 4.125 21.214844 4.101562 C 21.214844 4.070312 21.199219 4.054688 21.15625 4.054688 C 21.113281 4.054688 21.09375 4.042969 21.09375 4.007812 C 21.09375 3.984375 21.074219 3.957031 21.046875 3.949219 C 21.023438 3.9375 21 3.914062 21 3.886719 C 21 3.855469 20.984375 3.839844 20.953125 3.839844 C 20.921875 3.839844 20.90625 3.824219 20.90625 3.792969 C 20.90625 3.757812 20.886719 3.742188 20.84375 3.742188 C 20.796875 3.742188 20.785156 3.734375 20.785156 3.683594 C 20.785156 3.640625 20.773438 3.625 20.734375 3.625 C 20.703125 3.625 20.6875 3.609375 20.6875 3.578125 C 20.6875 3.539062 20.671875 3.527344 20.628906 3.527344 C 20.585938 3.527344 20.570312 3.515625 20.570312 3.480469 C 20.570312 3.449219 20.550781 3.429688 20.519531 3.429688 C 20.484375 3.429688 20.472656 3.414062 20.472656 3.371094 C 20.472656 3.328125 20.460938 3.3125 20.421875 3.3125 C 20.390625 3.3125 20.375 3.296875 20.375 3.265625 C 20.375 3.226562 20.359375 3.214844 20.316406 3.214844 C 20.265625 3.214844 20.257812 3.203125 20.257812 3.15625 C 20.257812 3.113281 20.242188 3.09375 20.207031 3.09375 C 20.175781 3.09375 20.160156 3.078125 20.160156 3.046875 C 20.160156 3.015625 20.144531 3 20.113281 3 C 20.078125 3 20.0625 2.984375 20.0625 2.953125 C 20.0625 2.917969 20.046875 2.90625 20.003906 2.90625 C 19.957031 2.90625 19.945312 2.890625 19.945312 2.84375 C 19.945312 2.800781 19.929688 2.785156 19.898438 2.785156 C 19.875 2.785156 19.847656 2.761719 19.839844 2.734375 C 19.835938 2.707031 19.808594 2.6875 19.777344 2.6875 C 19.746094 2.6875 19.726562 2.671875 19.726562 2.640625 C 19.726562 2.609375 19.703125 2.59375 19.632812 2.578125 C 19.570312 2.570312 19.539062 2.550781 19.527344 2.519531 C 19.523438 2.492188 19.496094 2.472656 19.464844 2.472656 C 19.429688 2.472656 19.414062 2.457031 19.414062 2.421875 C 19.414062 2.390625 19.398438 2.375 19.367188 2.375 C 19.335938 2.375 19.320312 2.359375 19.320312 2.328125 C 19.320312 2.296875 19.296875 2.273438 19.261719 2.265625 C 19.230469 2.257812 19.199219 2.230469 19.191406 2.207031 C 19.183594 2.171875 19.160156 2.160156 19.09375 2.160156 C 19.023438 2.160156 19.007812 2.152344 19.007812 2.113281 C 19.007812 2.078125 18.992188 2.0625 18.949219 2.0625 C 18.90625 2.0625 18.890625 2.046875 18.882812 2.007812 C 18.878906 1.96875 18.859375 1.953125 18.789062 1.949219 C 18.726562 1.945312 18.695312 1.929688 18.6875 1.894531 C 18.679688 1.867188 18.65625 1.847656 18.625 1.847656 C 18.59375 1.847656 18.578125 1.832031 18.578125 1.804688 C 18.578125 1.75 18.53125 1.726562 18.429688 1.726562 C 18.375 1.726562 18.359375 1.71875 18.359375 1.679688 C 18.359375 1.640625 18.34375 1.632812 18.265625 1.632812 C 18.183594 1.632812 18.167969 1.625 18.167969 1.585938 C 18.167969 1.546875 18.152344 1.535156 18.109375 1.535156 C 18.066406 1.535156 18.046875 1.523438 18.042969 1.484375 C 18.039062 1.4375 18.019531 1.425781 17.933594 1.421875 C 17.851562 1.414062 17.832031 1.40625 17.832031 1.367188 C 17.832031 1.328125 17.816406 1.320312 17.738281 1.320312 C 17.664062 1.320312 17.640625 1.308594 17.628906 1.273438 C 17.617188 1.242188 17.582031 1.222656 17.519531 1.210938 C 17.445312 1.199219 17.421875 1.183594 17.421875 1.148438 C 17.421875 1.109375 17.40625 1.101562 17.316406 1.101562 C 17.222656 1.101562 17.207031 1.097656 17.207031 1.054688 C 17.207031 1.015625 17.191406 1.007812 17.101562 1.007812 C 17.007812 1.007812 16.992188 1 16.988281 0.953125 C 16.980469 0.910156 16.960938 0.898438 16.882812 0.890625 C 16.804688 0.886719 16.777344 0.875 16.769531 0.839844 C 16.757812 0.796875 16.734375 0.792969 16.609375 0.792969 C 16.480469 0.792969 16.464844 0.789062 16.464844 0.742188 C 16.464844 0.703125 16.449219 0.695312 16.308594 0.695312 C 16.15625 0.695312 16.152344 0.695312 16.152344 0.636719 C 16.152344 0.582031 16.144531 0.578125 16.042969 0.578125 C 15.953125 0.578125 15.9375 0.570312 15.9375 0.527344 C 15.9375 0.484375 15.921875 0.480469 15.734375 0.480469 C 15.542969 0.480469 15.53125 0.476562 15.523438 0.425781 C 15.515625 0.378906 15.5 0.371094 15.367188 0.367188 C 15.246094 0.359375 15.21875 0.351562 15.210938 0.3125 C 15.199219 0.269531 15.175781 0.265625 14.992188 0.265625 C 14.800781 0.265625 14.785156 0.261719 14.785156 0.214844 C 14.785156 0.171875 14.765625 0.167969 14.519531 0.167969 L 14.257812 0.167969 L 14.257812 0.046875 L 13.945312 0.046875 C 13.75 0.046875 13.632812 0.0390625 13.632812 0.0234375 C 13.632812 0.0078125 13.070312 0 12 0 C 10.960938 0 10.367188 0.0078125 10.367188 0.0234375 M 14.386719 5.253906 C 14.585938 5.269531 14.921875 5.289062 15.132812 5.304688 C 16.09375 5.359375 16.496094 5.398438 16.59375 5.453125 C 16.941406 5.628906 17.128906 6.070312 17 6.398438 C 16.972656 6.460938 16.921875 6.597656 16.882812 6.695312 C 16.847656 6.796875 16.796875 6.921875 16.773438 6.972656 C 16.75 7.027344 16.726562 7.089844 16.726562 7.109375 C 16.726562 7.132812 16.707031 7.1875 16.679688 7.230469 C 16.652344 7.273438 16.632812 7.324219 16.632812 7.34375 C 16.632812 7.359375 16.609375 7.421875 16.585938 7.476562 C 16.5625 7.527344 16.53125 7.609375 16.515625 7.65625 C 16.488281 7.757812 16.398438 7.976562 16.347656 8.074219 C 16.289062 8.1875 16.296875 8.421875 16.363281 8.511719 C 16.390625 8.554688 16.414062 8.601562 16.414062 8.625 C 16.414062 8.640625 16.433594 8.671875 16.453125 8.6875 C 16.472656 8.707031 16.507812 8.753906 16.527344 8.792969 C 16.589844 8.925781 16.636719 9.011719 16.671875 9.046875 C 16.6875 9.070312 16.742188 9.160156 16.789062 9.253906 C 16.839844 9.34375 16.90625 9.460938 16.941406 9.515625 C 16.976562 9.570312 17.023438 9.652344 17.050781 9.703125 C 17.078125 9.75 17.105469 9.792969 17.117188 9.792969 C 17.125 9.792969 17.140625 9.824219 17.148438 9.863281 C 17.15625 9.902344 17.171875 9.941406 17.1875 9.949219 C 17.199219 9.957031 17.230469 10.003906 17.257812 10.050781 C 17.285156 10.101562 17.332031 10.183594 17.363281 10.234375 C 17.398438 10.289062 17.4375 10.363281 17.460938 10.40625 C 17.480469 10.445312 17.53125 10.523438 17.570312 10.585938 C 17.609375 10.644531 17.65625 10.730469 17.679688 10.777344 C 17.699219 10.820312 17.726562 10.867188 17.734375 10.871094 C 17.742188 10.878906 17.761719 10.910156 17.777344 10.945312 C 17.796875 10.976562 17.835938 11.054688 17.875 11.117188 C 17.910156 11.179688 17.988281 11.3125 18.046875 11.414062 C 18.109375 11.515625 18.179688 11.636719 18.207031 11.683594 C 18.421875 12.046875 18.527344 12.421875 18.480469 12.664062 C 18.464844 12.742188 18.4375 12.902344 18.417969 13.019531 C 18.398438 13.140625 18.367188 13.285156 18.351562 13.34375 C 18.332031 13.402344 18.308594 13.519531 18.304688 13.601562 C 18.296875 13.6875 18.277344 13.773438 18.265625 13.800781 C 18.25 13.828125 18.222656 13.949219 18.203125 14.074219 C 18.171875 14.292969 18.113281 14.515625 18.070312 14.59375 C 18.054688 14.609375 18.03125 14.664062 18.011719 14.703125 C 17.875 15.007812 17.507812 15.324219 17.246094 15.371094 C 17.191406 15.378906 17.121094 15.402344 17.085938 15.421875 C 17.046875 15.441406 16.984375 15.457031 16.945312 15.457031 C 16.90625 15.457031 16.746094 15.484375 16.589844 15.515625 C 16.433594 15.546875 16.238281 15.582031 16.152344 15.597656 C 15.78125 15.65625 15.578125 15.746094 15.578125 15.84375 C 15.578125 15.859375 15.546875 15.902344 15.515625 15.945312 C 15.484375 15.988281 15.457031 16.03125 15.457031 16.039062 C 15.457031 16.136719 14.789062 16.742188 14.476562 16.929688 C 14.453125 16.945312 14.402344 16.980469 14.359375 17.007812 C 14.320312 17.039062 14.277344 17.0625 14.273438 17.0625 C 14.265625 17.0625 14.195312 17.105469 14.117188 17.15625 C 13.902344 17.300781 13.847656 17.332031 13.679688 17.421875 C 13.59375 17.464844 13.507812 17.515625 13.484375 17.535156 C 13.464844 17.554688 13.4375 17.570312 13.421875 17.570312 C 13.40625 17.570312 13.339844 17.59375 13.277344 17.625 C 13.171875 17.679688 13.09375 17.714844 12.789062 17.851562 C 12.726562 17.882812 12.664062 17.90625 12.644531 17.90625 C 12.625 17.90625 12.601562 17.914062 12.585938 17.925781 C 12.542969 17.964844 11.96875 18.144531 11.507812 18.257812 C 11.402344 18.285156 11.242188 18.324219 11.148438 18.347656 C 10.847656 18.421875 10.597656 18.484375 10.476562 18.507812 C 10.410156 18.523438 10.308594 18.546875 10.25 18.5625 C 10.1875 18.582031 10.082031 18.609375 10.007812 18.625 C 9.9375 18.640625 9.828125 18.664062 9.765625 18.683594 C 9.710938 18.703125 9.59375 18.726562 9.515625 18.742188 C 9.4375 18.757812 9.324219 18.785156 9.265625 18.804688 C 9.203125 18.820312 9.113281 18.84375 9.058594 18.851562 C 9.007812 18.859375 8.914062 18.882812 8.855469 18.90625 C 8.679688 18.96875 8.226562 18.960938 8.078125 18.890625 C 8.015625 18.863281 7.953125 18.839844 7.9375 18.839844 C 7.863281 18.839844 7.46875 18.472656 7.464844 18.398438 C 7.464844 18.386719 7.445312 18.355469 7.425781 18.332031 C 7.382812 18.285156 7.316406 18.117188 7.257812 17.914062 C 7.140625 17.5 7.09375 17.34375 7.019531 17.125 C 7 17.058594 6.964844 16.9375 6.945312 16.859375 C 6.929688 16.777344 6.898438 16.679688 6.875 16.640625 C 6.855469 16.601562 6.839844 16.546875 6.839844 16.511719 C 6.839844 16.476562 6.8125 16.375 6.78125 16.285156 C 6.75 16.191406 6.703125 16.035156 6.671875 15.9375 C 6.644531 15.835938 6.601562 15.691406 6.574219 15.613281 C 6.523438 15.441406 6.457031 15.203125 6.441406 15.121094 C 6.4375 15.085938 6.40625 14.941406 6.371094 14.796875 C 6.339844 14.648438 6.304688 14.453125 6.289062 14.351562 C 6.277344 14.253906 6.253906 14.113281 6.242188 14.039062 C 6.199219 13.820312 6.136719 12.722656 6.152344 12.503906 C 6.160156 12.390625 6.179688 12.125 6.191406 11.90625 C 6.207031 11.671875 6.230469 11.484375 6.25 11.4375 C 6.269531 11.398438 6.296875 11.300781 6.3125 11.226562 C 6.328125 11.148438 6.351562 11.082031 6.359375 11.074219 C 6.375 11.066406 6.398438 11.015625 6.410156 10.953125 C 6.425781 10.898438 6.453125 10.835938 6.46875 10.820312 C 6.488281 10.804688 6.503906 10.78125 6.503906 10.765625 C 6.503906 10.753906 6.53125 10.683594 6.570312 10.613281 C 6.636719 10.476562 6.636719 10.464844 6.550781 10.222656 C 6.535156 10.179688 6.496094 10.0625 6.460938 9.972656 C 6.429688 9.878906 6.382812 9.757812 6.359375 9.703125 C 6.332031 9.644531 6.3125 9.582031 6.3125 9.5625 C 6.3125 9.542969 6.292969 9.480469 6.265625 9.425781 C 6.242188 9.367188 6.214844 9.285156 6.203125 9.242188 C 6.195312 9.195312 6.167969 9.125 6.148438 9.085938 C 6.089844 8.976562 6.089844 8.414062 6.148438 8.328125 C 6.171875 8.296875 6.191406 8.25 6.191406 8.230469 C 6.191406 8.09375 6.449219 7.75 6.71875 7.523438 C 6.78125 7.476562 6.890625 7.378906 6.964844 7.3125 C 7.039062 7.242188 7.1875 7.113281 7.296875 7.019531 C 7.40625 6.929688 7.578125 6.78125 7.679688 6.691406 C 7.792969 6.589844 7.945312 6.488281 8.085938 6.414062 L 8.316406 6.300781 L 12.691406 6.316406 L 12.773438 6.199219 C 12.820312 6.136719 12.875 6.066406 12.894531 6.046875 C 12.914062 6.027344 12.984375 5.921875 13.054688 5.820312 C 13.382812 5.34375 13.613281 5.183594 13.929688 5.21875 C 13.984375 5.226562 14.191406 5.242188 14.386719 5.253906 M 14.046875 6.398438 C 14.015625 6.417969 13.992188 6.449219 13.992188 6.46875 C 13.992188 6.484375 13.976562 6.503906 13.957031 6.511719 C 13.9375 6.519531 13.882812 6.597656 13.835938 6.683594 C 13.785156 6.773438 13.730469 6.851562 13.710938 6.855469 C 13.695312 6.863281 13.679688 6.878906 13.679688 6.890625 C 13.679688 6.917969 13.617188 7.003906 13.515625 7.121094 C 13.488281 7.15625 13.464844 7.191406 13.464844 7.199219 C 13.464844 7.234375 13.230469 7.367188 13.09375 7.40625 C 12.929688 7.457031 12.828125 7.457031 10.089844 7.425781 C 8.636719 7.410156 8.628906 7.410156 8.480469 7.53125 C 8.242188 7.730469 8.164062 7.796875 8.0625 7.898438 C 7.996094 7.953125 7.921875 8.023438 7.890625 8.050781 C 7.285156 8.554688 7.195312 8.679688 7.308594 8.875 C 7.351562 8.949219 7.425781 9.164062 7.480469 9.359375 C 7.5 9.433594 7.53125 9.515625 7.550781 9.539062 C 7.570312 9.566406 7.585938 9.609375 7.585938 9.632812 C 7.585938 9.65625 7.605469 9.722656 7.628906 9.777344 C 7.683594 9.898438 7.75 10.078125 7.789062 10.226562 C 7.804688 10.289062 7.832031 10.363281 7.84375 10.390625 C 7.914062 10.515625 7.851562 10.8125 7.734375 10.949219 C 7.664062 11.03125 7.464844 11.421875 7.464844 11.480469 C 7.464844 11.503906 7.449219 11.546875 7.429688 11.574219 C 7.398438 11.625 7.367188 11.90625 7.332031 12.492188 C 7.3125 12.804688 7.382812 13.816406 7.441406 14.117188 C 7.46875 14.242188 7.488281 14.382812 7.488281 14.421875 C 7.488281 14.457031 7.503906 14.539062 7.527344 14.59375 C 7.546875 14.652344 7.574219 14.769531 7.585938 14.855469 C 7.597656 14.9375 7.617188 15.019531 7.632812 15.035156 C 7.644531 15.050781 7.671875 15.140625 7.695312 15.238281 C 7.714844 15.335938 7.75 15.453125 7.765625 15.496094 C 7.785156 15.539062 7.800781 15.597656 7.800781 15.628906 C 7.800781 15.660156 7.816406 15.71875 7.835938 15.757812 C 7.859375 15.796875 7.886719 15.886719 7.898438 15.960938 C 7.914062 16.03125 7.9375 16.117188 7.957031 16.152344 C 7.972656 16.1875 7.996094 16.257812 8.003906 16.308594 C 8.011719 16.359375 8.039062 16.457031 8.0625 16.523438 C 8.117188 16.675781 8.203125 16.953125 8.230469 17.078125 C 8.277344 17.273438 8.355469 17.53125 8.375 17.558594 C 8.390625 17.570312 8.40625 17.625 8.417969 17.679688 C 8.445312 17.796875 8.5 17.808594 8.757812 17.742188 C 8.859375 17.714844 8.988281 17.679688 9.046875 17.664062 C 9.460938 17.566406 9.703125 17.507812 9.84375 17.484375 C 9.929688 17.46875 10.011719 17.449219 10.027344 17.4375 C 10.039062 17.429688 10.148438 17.402344 10.265625 17.375 C 10.382812 17.351562 10.523438 17.320312 10.585938 17.304688 C 10.964844 17.207031 11.09375 17.175781 11.234375 17.148438 C 11.835938 17.023438 12.691406 16.695312 13.257812 16.359375 C 13.285156 16.34375 13.378906 16.289062 13.464844 16.234375 C 13.550781 16.179688 13.671875 16.101562 13.742188 16.058594 C 13.804688 16.019531 13.871094 15.976562 13.886719 15.964844 C 13.898438 15.953125 13.9375 15.929688 13.96875 15.914062 C 14.203125 15.789062 14.546875 15.414062 14.699219 15.117188 C 14.875 14.769531 14.992188 14.660156 15.226562 14.628906 C 15.292969 14.621094 15.394531 14.597656 15.453125 14.578125 C 15.507812 14.558594 15.597656 14.542969 15.652344 14.542969 C 15.703125 14.542969 15.835938 14.523438 15.945312 14.496094 C 16.050781 14.46875 16.234375 14.4375 16.351562 14.425781 C 16.46875 14.414062 16.578125 14.390625 16.59375 14.378906 C 16.609375 14.367188 16.671875 14.351562 16.742188 14.34375 C 16.804688 14.332031 16.878906 14.320312 16.898438 14.3125 C 16.96875 14.292969 17.058594 14.132812 17.078125 13.992188 C 17.085938 13.921875 17.109375 13.828125 17.125 13.785156 C 17.144531 13.742188 17.160156 13.671875 17.160156 13.628906 C 17.160156 13.585938 17.1875 13.4375 17.21875 13.296875 C 17.25 13.15625 17.289062 12.980469 17.300781 12.898438 C 17.3125 12.820312 17.335938 12.703125 17.351562 12.636719 C 17.378906 12.53125 17.375 12.507812 17.332031 12.421875 C 17.304688 12.367188 17.277344 12.308594 17.269531 12.289062 C 17.261719 12.269531 17.222656 12.203125 17.183594 12.144531 C 17.144531 12.085938 17.09375 12.003906 17.074219 11.964844 C 17.054688 11.925781 16.984375 11.804688 16.917969 11.699219 C 16.851562 11.59375 16.777344 11.464844 16.75 11.414062 C 16.722656 11.359375 16.675781 11.273438 16.644531 11.21875 C 16.609375 11.167969 16.570312 11.089844 16.546875 11.046875 C 16.53125 11.007812 16.5 10.964844 16.484375 10.953125 C 16.46875 10.945312 16.445312 10.90625 16.421875 10.863281 C 16.40625 10.820312 16.363281 10.746094 16.328125 10.691406 C 16.296875 10.640625 16.253906 10.558594 16.230469 10.511719 C 16.207031 10.464844 16.148438 10.367188 16.097656 10.289062 C 16.046875 10.214844 16.007812 10.140625 16.007812 10.128906 C 16.007812 10.117188 15.992188 10.09375 15.976562 10.078125 C 15.960938 10.058594 15.925781 10.007812 15.902344 9.960938 C 15.875 9.914062 15.835938 9.835938 15.8125 9.789062 C 15.785156 9.738281 15.75 9.6875 15.730469 9.671875 C 15.710938 9.65625 15.695312 9.632812 15.695312 9.617188 C 15.695312 9.605469 15.65625 9.53125 15.605469 9.457031 C 15.554688 9.382812 15.496094 9.285156 15.476562 9.242188 C 15.429688 9.152344 15.402344 9.101562 15.332031 8.996094 C 15.308594 8.960938 15.28125 8.902344 15.273438 8.863281 C 15.265625 8.828125 15.234375 8.75 15.210938 8.6875 C 15.148438 8.554688 15.15625 8.007812 15.222656 7.882812 C 15.277344 7.78125 15.382812 7.492188 15.382812 7.453125 C 15.382812 7.433594 15.414062 7.355469 15.445312 7.277344 C 15.566406 7.015625 15.574219 6.996094 15.589844 6.921875 C 15.597656 6.882812 15.625 6.816406 15.652344 6.773438 C 15.703125 6.691406 15.71875 6.515625 15.679688 6.476562 C 15.652344 6.453125 15.621094 6.449219 14.832031 6.40625 C 14.574219 6.394531 14.304688 6.378906 14.234375 6.371094 C 14.132812 6.359375 14.085938 6.367188 14.046875 6.398438 "/>
</g>
</svg>
