<?xml version="1.0" encoding="UTF-8"?>
<svg xmlns="http://www.w3.org/2000/svg" xmlns:xlink="http://www.w3.org/1999/xlink" width="16px" height="16px" viewBox="0 0 16 16" version="1.1">
<g id="surface1">
<path style=" stroke:none;fill-rule:evenodd;fill:rgb(97.254902%,96.862745%,97.647059%);fill-opacity:1;" d="M 9.117188 3.503906 C 8.957031 3.546875 8.890625 3.605469 8.703125 3.878906 C 8.65625 3.949219 8.609375 4.019531 8.597656 4.03125 C 8.582031 4.042969 8.546875 4.089844 8.515625 4.132812 L 8.460938 4.210938 L 7.003906 4.207031 L 5.542969 4.199219 L 5.390625 4.277344 C 5.296875 4.324219 5.195312 4.394531 5.117188 4.460938 C 5.050781 4.519531 4.9375 4.617188 4.863281 4.679688 C 4.792969 4.742188 4.691406 4.828125 4.644531 4.875 C 4.59375 4.917969 4.519531 4.984375 4.480469 5.015625 C 4.300781 5.164062 4.128906 5.394531 4.128906 5.488281 C 4.128906 5.5 4.113281 5.53125 4.101562 5.550781 C 4.058594 5.609375 4.058594 5.984375 4.097656 6.054688 C 4.113281 6.082031 4.128906 6.128906 4.136719 6.160156 C 4.144531 6.191406 4.160156 6.246094 4.175781 6.285156 C 4.195312 6.320312 4.207031 6.363281 4.207031 6.375 C 4.207031 6.386719 4.222656 6.429688 4.238281 6.46875 C 4.253906 6.503906 4.285156 6.585938 4.308594 6.648438 C 4.332031 6.710938 4.355469 6.785156 4.367188 6.816406 C 4.425781 6.976562 4.425781 6.984375 4.378906 7.074219 C 4.355469 7.121094 4.335938 7.167969 4.335938 7.179688 C 4.335938 7.1875 4.324219 7.203125 4.3125 7.214844 C 4.300781 7.222656 4.285156 7.265625 4.273438 7.304688 C 4.265625 7.34375 4.25 7.378906 4.242188 7.382812 C 4.234375 7.386719 4.21875 7.433594 4.207031 7.484375 C 4.199219 7.535156 4.179688 7.597656 4.167969 7.625 C 4.152344 7.65625 4.136719 7.78125 4.128906 7.9375 C 4.121094 8.082031 4.105469 8.261719 4.101562 8.335938 C 4.089844 8.480469 4.132812 9.214844 4.160156 9.359375 C 4.167969 9.410156 4.183594 9.503906 4.191406 9.566406 C 4.203125 9.632812 4.226562 9.765625 4.246094 9.863281 C 4.269531 9.960938 4.289062 10.058594 4.292969 10.082031 C 4.304688 10.136719 4.347656 10.292969 4.382812 10.410156 C 4.398438 10.460938 4.429688 10.558594 4.449219 10.625 C 4.46875 10.691406 4.5 10.792969 4.523438 10.855469 C 4.542969 10.917969 4.558594 10.984375 4.558594 11.007812 C 4.558594 11.03125 4.570312 11.070312 4.585938 11.09375 C 4.597656 11.121094 4.617188 11.183594 4.628906 11.238281 C 4.644531 11.292969 4.664062 11.371094 4.679688 11.417969 C 4.730469 11.5625 4.761719 11.667969 4.839844 11.945312 C 4.878906 12.078125 4.921875 12.191406 4.949219 12.222656 C 4.964844 12.238281 4.976562 12.257812 4.976562 12.265625 C 4.976562 12.316406 5.242188 12.558594 5.292969 12.558594 C 5.300781 12.558594 5.34375 12.574219 5.386719 12.59375 C 5.484375 12.640625 5.785156 12.644531 5.902344 12.605469 C 5.941406 12.589844 6.003906 12.574219 6.039062 12.566406 C 6.074219 12.5625 6.136719 12.546875 6.175781 12.535156 C 6.214844 12.523438 6.292969 12.503906 6.34375 12.496094 C 6.394531 12.484375 6.472656 12.46875 6.511719 12.457031 C 6.550781 12.441406 6.625 12.425781 6.671875 12.414062 C 6.722656 12.40625 6.792969 12.386719 6.832031 12.375 C 6.871094 12.363281 6.941406 12.347656 6.984375 12.339844 C 7.066406 12.320312 7.230469 12.28125 7.433594 12.230469 C 7.492188 12.214844 7.601562 12.191406 7.671875 12.171875 C 7.980469 12.097656 8.363281 11.976562 8.390625 11.949219 C 8.398438 11.941406 8.417969 11.9375 8.429688 11.9375 C 8.441406 11.9375 8.484375 11.921875 8.527344 11.902344 C 8.730469 11.808594 8.78125 11.785156 8.851562 11.75 C 8.894531 11.730469 8.9375 11.710938 8.945312 11.710938 C 8.957031 11.710938 8.976562 11.703125 8.992188 11.691406 C 9.003906 11.675781 9.0625 11.644531 9.121094 11.613281 C 9.230469 11.554688 9.269531 11.535156 9.414062 11.4375 C 9.464844 11.402344 9.507812 11.375 9.515625 11.375 C 9.519531 11.375 9.546875 11.359375 9.574219 11.339844 C 9.601562 11.320312 9.636719 11.296875 9.648438 11.289062 C 9.859375 11.160156 10.304688 10.757812 10.304688 10.695312 C 10.304688 10.6875 10.324219 10.660156 10.34375 10.628906 C 10.367188 10.601562 10.382812 10.570312 10.382812 10.5625 C 10.382812 10.496094 10.519531 10.4375 10.769531 10.398438 C 10.824219 10.386719 10.957031 10.363281 11.058594 10.34375 C 11.164062 10.320312 11.269531 10.304688 11.296875 10.304688 C 11.324219 10.304688 11.363281 10.292969 11.390625 10.28125 C 11.414062 10.269531 11.460938 10.253906 11.496094 10.246094 C 11.671875 10.214844 11.914062 10.003906 12.007812 9.800781 C 12.019531 9.773438 12.039062 9.742188 12.046875 9.726562 C 12.074219 9.675781 12.113281 9.527344 12.136719 9.382812 C 12.148438 9.300781 12.167969 9.21875 12.175781 9.199219 C 12.183594 9.183594 12.195312 9.125 12.203125 9.070312 C 12.207031 9.011719 12.222656 8.933594 12.234375 8.894531 C 12.246094 8.855469 12.265625 8.757812 12.277344 8.679688 C 12.292969 8.601562 12.308594 8.492188 12.320312 8.441406 C 12.351562 8.28125 12.28125 8.03125 12.136719 7.789062 C 12.121094 7.757812 12.070312 7.675781 12.03125 7.609375 C 11.992188 7.542969 11.941406 7.453125 11.917969 7.410156 C 11.890625 7.371094 11.863281 7.316406 11.851562 7.296875 C 11.839844 7.273438 11.828125 7.253906 11.824219 7.246094 C 11.816406 7.242188 11.800781 7.214844 11.785156 7.183594 C 11.769531 7.152344 11.738281 7.097656 11.710938 7.054688 C 11.6875 7.015625 11.652344 6.960938 11.640625 6.9375 C 11.625 6.910156 11.597656 6.859375 11.574219 6.824219 C 11.554688 6.789062 11.523438 6.734375 11.503906 6.699219 C 11.488281 6.667969 11.464844 6.636719 11.457031 6.632812 C 11.449219 6.628906 11.4375 6.601562 11.433594 6.574219 C 11.425781 6.550781 11.417969 6.527344 11.410156 6.527344 C 11.402344 6.527344 11.386719 6.5 11.367188 6.46875 C 11.351562 6.433594 11.316406 6.378906 11.292969 6.34375 C 11.269531 6.308594 11.226562 6.230469 11.191406 6.167969 C 11.160156 6.105469 11.125 6.046875 11.113281 6.03125 C 11.089844 6.007812 11.058594 5.949219 11.019531 5.863281 C 11.003906 5.835938 10.980469 5.804688 10.96875 5.792969 C 10.957031 5.78125 10.945312 5.761719 10.945312 5.75 C 10.945312 5.734375 10.925781 5.703125 10.910156 5.675781 C 10.863281 5.613281 10.859375 5.457031 10.898438 5.382812 C 10.933594 5.320312 10.992188 5.171875 11.011719 5.105469 C 11.019531 5.074219 11.039062 5.019531 11.058594 4.984375 C 11.074219 4.949219 11.089844 4.90625 11.089844 4.894531 C 11.089844 4.882812 11.101562 4.847656 11.121094 4.820312 C 11.136719 4.792969 11.152344 4.753906 11.152344 4.742188 C 11.152344 4.726562 11.164062 4.683594 11.183594 4.648438 C 11.199219 4.613281 11.230469 4.53125 11.253906 4.464844 C 11.28125 4.398438 11.316406 4.308594 11.332031 4.265625 C 11.417969 4.046875 11.292969 3.753906 11.0625 3.632812 C 10.996094 3.601562 10.730469 3.574219 10.089844 3.535156 C 9.773438 3.515625 9.375 3.488281 9.289062 3.480469 C 9.253906 3.476562 9.175781 3.484375 9.117188 3.503906 M 9.886719 4.273438 C 10.414062 4.300781 10.433594 4.300781 10.453125 4.316406 C 10.476562 4.34375 10.46875 4.460938 10.433594 4.515625 C 10.417969 4.542969 10.398438 4.589844 10.394531 4.617188 C 10.382812 4.664062 10.378906 4.675781 10.296875 4.851562 C 10.273438 4.902344 10.253906 4.957031 10.253906 4.96875 C 10.253906 4.996094 10.183594 5.1875 10.148438 5.253906 C 10.105469 5.335938 10.097656 5.703125 10.140625 5.792969 C 10.15625 5.832031 10.175781 5.886719 10.183594 5.910156 C 10.1875 5.933594 10.207031 5.972656 10.222656 5.996094 C 10.269531 6.070312 10.289062 6.101562 10.316406 6.160156 C 10.332031 6.191406 10.371094 6.257812 10.402344 6.304688 C 10.4375 6.355469 10.464844 6.402344 10.464844 6.410156 C 10.464844 6.421875 10.472656 6.4375 10.488281 6.449219 C 10.5 6.457031 10.523438 6.492188 10.539062 6.523438 C 10.558594 6.558594 10.585938 6.609375 10.601562 6.640625 C 10.617188 6.671875 10.640625 6.707031 10.652344 6.71875 C 10.664062 6.730469 10.671875 6.746094 10.671875 6.753906 C 10.671875 6.761719 10.699219 6.808594 10.730469 6.859375 C 10.765625 6.910156 10.804688 6.976562 10.820312 7.007812 C 10.835938 7.039062 10.867188 7.09375 10.886719 7.128906 C 10.910156 7.164062 10.9375 7.214844 10.949219 7.242188 C 10.960938 7.269531 10.980469 7.296875 10.992188 7.304688 C 11 7.308594 11.019531 7.335938 11.03125 7.363281 C 11.046875 7.394531 11.074219 7.445312 11.097656 7.480469 C 11.117188 7.515625 11.148438 7.574219 11.167969 7.609375 C 11.183594 7.644531 11.234375 7.730469 11.277344 7.800781 C 11.324219 7.871094 11.371094 7.949219 11.382812 7.976562 C 11.398438 8.003906 11.429688 8.058594 11.457031 8.097656 C 11.480469 8.136719 11.507812 8.179688 11.511719 8.191406 C 11.519531 8.207031 11.535156 8.246094 11.554688 8.28125 C 11.585938 8.339844 11.585938 8.355469 11.566406 8.425781 C 11.558594 8.46875 11.542969 8.546875 11.535156 8.601562 C 11.523438 8.652344 11.5 8.773438 11.480469 8.863281 C 11.457031 8.957031 11.441406 9.058594 11.441406 9.085938 C 11.441406 9.113281 11.429688 9.160156 11.417969 9.191406 C 11.40625 9.21875 11.390625 9.28125 11.382812 9.328125 C 11.371094 9.421875 11.3125 9.527344 11.265625 9.542969 C 11.253906 9.546875 11.203125 9.554688 11.160156 9.5625 C 11.117188 9.566406 11.070312 9.578125 11.0625 9.585938 C 11.050781 9.59375 10.980469 9.609375 10.902344 9.617188 C 10.824219 9.625 10.699219 9.648438 10.628906 9.664062 C 10.558594 9.683594 10.46875 9.695312 10.433594 9.695312 C 10.398438 9.695312 10.339844 9.707031 10.300781 9.71875 C 10.261719 9.730469 10.195312 9.746094 10.152344 9.753906 C 9.996094 9.773438 9.917969 9.847656 9.800781 10.078125 C 9.695312 10.277344 9.46875 10.527344 9.3125 10.609375 C 9.292969 10.621094 9.265625 10.636719 9.257812 10.644531 C 9.246094 10.652344 9.203125 10.679688 9.160156 10.707031 C 9.117188 10.734375 9.035156 10.785156 8.976562 10.824219 C 8.65625 11.027344 8.257812 11.207031 7.878906 11.324219 C 7.683594 11.386719 7.609375 11.40625 7.488281 11.433594 C 7.394531 11.449219 7.308594 11.472656 7.054688 11.535156 C 7.015625 11.546875 6.921875 11.566406 6.84375 11.585938 C 6.765625 11.601562 6.695312 11.621094 6.683594 11.625 C 6.675781 11.632812 6.621094 11.644531 6.5625 11.65625 C 6.46875 11.671875 6.308594 11.710938 6.03125 11.777344 C 5.992188 11.785156 5.90625 11.808594 5.839844 11.828125 C 5.667969 11.871094 5.628906 11.863281 5.613281 11.785156 C 5.605469 11.75 5.59375 11.714844 5.585938 11.707031 C 5.570312 11.6875 5.519531 11.515625 5.488281 11.382812 C 5.46875 11.300781 5.410156 11.117188 5.375 11.015625 C 5.359375 10.972656 5.339844 10.90625 5.335938 10.871094 C 5.332031 10.839844 5.316406 10.792969 5.304688 10.769531 C 5.292969 10.746094 5.277344 10.6875 5.265625 10.640625 C 5.257812 10.589844 5.238281 10.53125 5.226562 10.503906 C 5.210938 10.476562 5.199219 10.441406 5.199219 10.417969 C 5.199219 10.398438 5.191406 10.359375 5.175781 10.332031 C 5.164062 10.300781 5.144531 10.222656 5.128906 10.160156 C 5.113281 10.09375 5.097656 10.035156 5.085938 10.023438 C 5.078125 10.011719 5.066406 9.957031 5.058594 9.902344 C 5.050781 9.847656 5.03125 9.769531 5.019531 9.730469 C 5.003906 9.691406 4.992188 9.636719 4.992188 9.613281 C 4.992188 9.585938 4.976562 9.496094 4.960938 9.410156 C 4.921875 9.210938 4.875 8.539062 4.886719 8.328125 C 4.910156 7.9375 4.933594 7.75 4.953125 7.714844 C 4.964844 7.699219 4.976562 7.667969 4.976562 7.652344 C 4.976562 7.613281 5.109375 7.355469 5.15625 7.300781 C 5.234375 7.210938 5.277344 7.007812 5.230469 6.925781 C 5.222656 6.910156 5.203125 6.859375 5.191406 6.820312 C 5.164062 6.71875 5.121094 6.597656 5.085938 6.519531 C 5.070312 6.480469 5.054688 6.4375 5.054688 6.421875 C 5.054688 6.40625 5.046875 6.378906 5.035156 6.359375 C 5.019531 6.34375 5 6.289062 4.988281 6.238281 C 4.949219 6.109375 4.898438 5.964844 4.871094 5.917969 C 4.796875 5.785156 4.855469 5.703125 5.257812 5.367188 C 5.28125 5.351562 5.332031 5.304688 5.375 5.265625 C 5.441406 5.199219 5.496094 5.152344 5.652344 5.023438 C 5.753906 4.941406 5.757812 4.941406 6.726562 4.949219 C 8.550781 4.972656 8.621094 4.972656 8.726562 4.9375 C 8.820312 4.910156 8.976562 4.824219 8.976562 4.800781 C 8.976562 4.792969 8.992188 4.769531 9.011719 4.746094 C 9.078125 4.667969 9.121094 4.613281 9.121094 4.59375 C 9.121094 4.585938 9.128906 4.574219 9.140625 4.570312 C 9.152344 4.566406 9.191406 4.515625 9.222656 4.457031 C 9.253906 4.398438 9.292969 4.347656 9.304688 4.339844 C 9.316406 4.335938 9.328125 4.324219 9.328125 4.3125 C 9.328125 4.265625 9.394531 4.238281 9.488281 4.246094 C 9.535156 4.253906 9.714844 4.261719 9.886719 4.273438 "/>
<path style=" stroke:none;fill-rule:evenodd;fill:rgb(41.960784%,28.627451%,70.980392%);fill-opacity:1;" d="M 6.910156 0.015625 C 6.910156 0.0234375 6.824219 0.0351562 6.707031 0.0351562 C 6.511719 0.0390625 6.503906 0.0429688 6.5 0.0742188 C 6.496094 0.109375 6.488281 0.113281 6.320312 0.113281 C 6.15625 0.113281 6.144531 0.113281 6.144531 0.144531 C 6.144531 0.175781 6.132812 0.175781 6.007812 0.175781 C 5.882812 0.175781 5.867188 0.179688 5.859375 0.207031 C 5.855469 0.234375 5.839844 0.238281 5.769531 0.238281 C 5.640625 0.238281 5.582031 0.253906 5.582031 0.289062 C 5.582031 0.316406 5.570312 0.320312 5.480469 0.320312 C 5.386719 0.320312 5.375 0.324219 5.375 0.351562 C 5.375 0.378906 5.363281 0.382812 5.277344 0.386719 C 5.1875 0.390625 5.175781 0.394531 5.171875 0.425781 C 5.167969 0.457031 5.15625 0.464844 5.09375 0.464844 C 5.035156 0.464844 5.023438 0.46875 5.023438 0.496094 C 5.023438 0.523438 5.011719 0.527344 4.925781 0.527344 C 4.84375 0.527344 4.828125 0.53125 4.820312 0.558594 C 4.816406 0.578125 4.800781 0.589844 4.777344 0.59375 C 4.710938 0.59375 4.671875 0.613281 4.671875 0.640625 C 4.671875 0.667969 4.660156 0.671875 4.601562 0.671875 C 4.539062 0.671875 4.527344 0.675781 4.527344 0.703125 C 4.527344 0.730469 4.519531 0.734375 4.457031 0.734375 C 4.394531 0.734375 4.382812 0.742188 4.382812 0.769531 C 4.382812 0.789062 4.371094 0.800781 4.347656 0.800781 C 4.28125 0.800781 4.238281 0.820312 4.238281 0.847656 C 4.238281 0.875 4.226562 0.878906 4.175781 0.878906 C 4.121094 0.878906 4.113281 0.886719 4.113281 0.910156 C 4.113281 0.9375 4.101562 0.945312 4.066406 0.945312 C 3.996094 0.945312 3.96875 0.957031 3.96875 0.992188 C 3.96875 1.011719 3.957031 1.023438 3.933594 1.023438 C 3.914062 1.023438 3.898438 1.035156 3.894531 1.054688 C 3.886719 1.082031 3.871094 1.089844 3.824219 1.089844 C 3.773438 1.089844 3.761719 1.09375 3.761719 1.117188 C 3.761719 1.140625 3.746094 1.152344 3.6875 1.160156 C 3.628906 1.167969 3.617188 1.175781 3.617188 1.199219 C 3.617188 1.222656 3.605469 1.230469 3.582031 1.230469 C 3.5625 1.230469 3.550781 1.242188 3.550781 1.261719 C 3.550781 1.289062 3.539062 1.292969 3.484375 1.300781 C 3.425781 1.304688 3.414062 1.308594 3.410156 1.339844 C 3.40625 1.367188 3.394531 1.375 3.367188 1.375 C 3.339844 1.375 3.328125 1.386719 3.328125 1.40625 C 3.328125 1.429688 3.316406 1.441406 3.269531 1.441406 C 3.226562 1.445312 3.207031 1.457031 3.199219 1.480469 C 3.195312 1.496094 3.183594 1.511719 3.171875 1.511719 C 3.125 1.519531 3.121094 1.519531 3.121094 1.550781 C 3.121094 1.574219 3.109375 1.582031 3.089844 1.582031 C 3.066406 1.582031 3.054688 1.59375 3.054688 1.617188 C 3.054688 1.636719 3.046875 1.648438 3.023438 1.648438 C 3.003906 1.648438 2.984375 1.660156 2.980469 1.679688 C 2.976562 1.699219 2.953125 1.714844 2.910156 1.71875 C 2.863281 1.730469 2.847656 1.738281 2.847656 1.761719 C 2.847656 1.78125 2.835938 1.792969 2.816406 1.792969 C 2.792969 1.792969 2.777344 1.804688 2.773438 1.824219 C 2.769531 1.839844 2.75 1.855469 2.734375 1.855469 C 2.714844 1.855469 2.703125 1.867188 2.703125 1.894531 C 2.703125 1.925781 2.695312 1.9375 2.671875 1.9375 C 2.65625 1.9375 2.636719 1.949219 2.632812 1.96875 C 2.625 1.984375 2.609375 2 2.589844 2 C 2.570312 2 2.558594 2.011719 2.558594 2.03125 C 2.558594 2.054688 2.550781 2.0625 2.527344 2.0625 C 2.503906 2.0625 2.496094 2.074219 2.496094 2.105469 C 2.496094 2.136719 2.488281 2.144531 2.457031 2.144531 C 2.425781 2.144531 2.417969 2.152344 2.417969 2.171875 C 2.421875 2.191406 2.410156 2.203125 2.386719 2.207031 C 2.363281 2.207031 2.351562 2.222656 2.351562 2.25 C 2.351562 2.277344 2.34375 2.289062 2.320312 2.289062 C 2.300781 2.289062 2.289062 2.300781 2.289062 2.320312 C 2.289062 2.34375 2.277344 2.351562 2.25 2.351562 C 2.222656 2.351562 2.207031 2.363281 2.207031 2.386719 C 2.203125 2.410156 2.191406 2.421875 2.171875 2.417969 C 2.152344 2.417969 2.144531 2.425781 2.144531 2.457031 C 2.144531 2.488281 2.136719 2.496094 2.105469 2.496094 C 2.082031 2.496094 2.066406 2.5 2.066406 2.507812 C 2.070312 2.539062 2.0625 2.558594 2.03125 2.566406 C 2.015625 2.570312 2 2.582031 2 2.597656 C 2 2.609375 1.984375 2.625 1.96875 2.632812 C 1.949219 2.636719 1.9375 2.65625 1.9375 2.671875 C 1.9375 2.695312 1.925781 2.703125 1.894531 2.703125 C 1.859375 2.703125 1.855469 2.710938 1.859375 2.734375 C 1.867188 2.757812 1.859375 2.769531 1.832031 2.769531 C 1.8125 2.773438 1.796875 2.789062 1.792969 2.8125 C 1.792969 2.835938 1.777344 2.847656 1.761719 2.847656 C 1.738281 2.847656 1.726562 2.863281 1.71875 2.910156 C 1.714844 2.953125 1.699219 2.976562 1.679688 2.980469 C 1.660156 2.984375 1.648438 3.003906 1.648438 3.023438 C 1.648438 3.046875 1.636719 3.054688 1.617188 3.054688 C 1.59375 3.054688 1.582031 3.066406 1.582031 3.089844 C 1.582031 3.109375 1.574219 3.121094 1.554688 3.121094 C 1.523438 3.121094 1.496094 3.160156 1.511719 3.183594 C 1.515625 3.191406 1.503906 3.199219 1.480469 3.207031 C 1.445312 3.214844 1.441406 3.226562 1.441406 3.273438 C 1.441406 3.316406 1.433594 3.328125 1.410156 3.328125 C 1.386719 3.328125 1.375 3.339844 1.375 3.367188 C 1.375 3.394531 1.367188 3.40625 1.339844 3.410156 C 1.308594 3.414062 1.304688 3.425781 1.300781 3.484375 C 1.292969 3.539062 1.289062 3.550781 1.261719 3.550781 C 1.242188 3.550781 1.230469 3.5625 1.230469 3.582031 C 1.230469 3.605469 1.222656 3.617188 1.203125 3.617188 C 1.167969 3.617188 1.152344 3.644531 1.152344 3.714844 C 1.152344 3.75 1.144531 3.761719 1.121094 3.761719 C 1.09375 3.761719 1.089844 3.769531 1.089844 3.824219 C 1.089844 3.871094 1.082031 3.886719 1.054688 3.894531 C 1.035156 3.898438 1.023438 3.914062 1.023438 3.933594 C 1.023438 3.957031 1.011719 3.96875 0.988281 3.972656 C 0.957031 3.976562 0.949219 3.988281 0.949219 4.042969 C 0.941406 4.097656 0.9375 4.113281 0.910156 4.113281 C 0.886719 4.113281 0.878906 4.121094 0.878906 4.175781 C 0.878906 4.222656 0.871094 4.238281 0.847656 4.246094 C 0.832031 4.253906 0.816406 4.273438 0.8125 4.289062 C 0.8125 4.304688 0.808594 4.328125 0.808594 4.335938 C 0.804688 4.34375 0.804688 4.359375 0.800781 4.367188 C 0.800781 4.378906 0.785156 4.382812 0.769531 4.382812 C 0.742188 4.382812 0.734375 4.394531 0.734375 4.457031 C 0.734375 4.519531 0.730469 4.527344 0.703125 4.527344 C 0.675781 4.527344 0.671875 4.539062 0.671875 4.597656 C 0.671875 4.660156 0.667969 4.671875 0.636719 4.675781 C 0.605469 4.679688 0.601562 4.691406 0.601562 4.746094 C 0.601562 4.804688 0.59375 4.816406 0.5625 4.824219 C 0.53125 4.832031 0.527344 4.84375 0.527344 4.929688 C 0.527344 5.011719 0.523438 5.023438 0.496094 5.023438 C 0.46875 5.023438 0.464844 5.035156 0.464844 5.128906 C 0.464844 5.222656 0.460938 5.230469 0.425781 5.234375 C 0.398438 5.238281 0.390625 5.253906 0.382812 5.3125 C 0.378906 5.371094 0.371094 5.382812 0.347656 5.378906 C 0.332031 5.378906 0.320312 5.378906 0.320312 5.386719 C 0.339844 5.488281 0.316406 5.644531 0.285156 5.652344 C 0.253906 5.65625 0.246094 5.667969 0.246094 5.71875 C 0.242188 5.84375 0.238281 5.851562 0.207031 5.859375 C 0.179688 5.867188 0.175781 5.882812 0.175781 6.007812 C 0.175781 6.132812 0.175781 6.144531 0.144531 6.144531 C 0.113281 6.144531 0.113281 6.15625 0.113281 6.320312 L 0.113281 6.496094 L 0.03125 6.496094 L 0.0351562 6.699219 C 0.0351562 6.835938 0.0273438 6.90625 0.0195312 6.910156 C -0.0078125 6.917969 -0.0078125 9.082031 0.0195312 9.089844 C 0.0273438 9.09375 0.0351562 9.167969 0.0390625 9.296875 C 0.0390625 9.488281 0.0429688 9.496094 0.0742188 9.5 C 0.109375 9.503906 0.113281 9.511719 0.113281 9.679688 C 0.113281 9.84375 0.113281 9.855469 0.144531 9.855469 C 0.175781 9.855469 0.175781 9.867188 0.175781 9.992188 C 0.175781 10.117188 0.179688 10.132812 0.207031 10.140625 C 0.230469 10.144531 0.242188 10.160156 0.242188 10.191406 C 0.242188 10.214844 0.246094 10.257812 0.246094 10.289062 C 0.25 10.320312 0.253906 10.359375 0.253906 10.378906 C 0.253906 10.402344 0.265625 10.417969 0.289062 10.417969 C 0.316406 10.417969 0.320312 10.425781 0.320312 10.519531 C 0.320312 10.601562 0.324219 10.621094 0.34375 10.613281 C 0.375 10.601562 0.382812 10.625 0.386719 10.726562 C 0.386719 10.777344 0.394531 10.8125 0.402344 10.808594 C 0.410156 10.800781 0.417969 10.808594 0.425781 10.816406 C 0.429688 10.824219 0.441406 10.828125 0.449219 10.824219 C 0.457031 10.816406 0.464844 10.847656 0.464844 10.894531 C 0.464844 10.964844 0.46875 10.976562 0.496094 10.976562 C 0.523438 10.976562 0.527344 10.988281 0.527344 11.074219 C 0.527344 11.15625 0.53125 11.171875 0.558594 11.179688 C 0.578125 11.183594 0.59375 11.195312 0.59375 11.203125 C 0.597656 11.234375 0.605469 11.28125 0.605469 11.304688 C 0.605469 11.316406 0.621094 11.328125 0.640625 11.328125 C 0.667969 11.328125 0.671875 11.339844 0.671875 11.398438 C 0.671875 11.460938 0.675781 11.472656 0.703125 11.472656 C 0.730469 11.472656 0.734375 11.480469 0.734375 11.542969 C 0.734375 11.605469 0.742188 11.617188 0.769531 11.617188 C 0.785156 11.617188 0.800781 11.628906 0.800781 11.644531 C 0.800781 11.660156 0.804688 11.679688 0.808594 11.6875 C 0.808594 11.695312 0.8125 11.714844 0.8125 11.730469 C 0.816406 11.75 0.828125 11.761719 0.847656 11.761719 C 0.875 11.761719 0.878906 11.769531 0.878906 11.824219 C 0.878906 11.878906 0.886719 11.886719 0.910156 11.886719 C 0.9375 11.886719 0.945312 11.898438 0.945312 11.933594 C 0.945312 12.003906 0.957031 12.03125 0.992188 12.03125 C 1.015625 12.03125 1.023438 12.042969 1.023438 12.074219 C 1.023438 12.101562 1.03125 12.113281 1.054688 12.113281 C 1.082031 12.113281 1.089844 12.121094 1.089844 12.175781 C 1.089844 12.230469 1.09375 12.238281 1.121094 12.238281 C 1.144531 12.238281 1.152344 12.25 1.152344 12.277344 C 1.152344 12.300781 1.160156 12.324219 1.167969 12.328125 C 1.175781 12.332031 1.179688 12.347656 1.175781 12.359375 C 1.167969 12.375 1.175781 12.382812 1.199219 12.382812 C 1.21875 12.382812 1.230469 12.394531 1.234375 12.417969 C 1.238281 12.441406 1.25 12.457031 1.265625 12.457031 C 1.28125 12.457031 1.289062 12.476562 1.296875 12.519531 C 1.300781 12.570312 1.3125 12.585938 1.339844 12.589844 C 1.367188 12.59375 1.375 12.605469 1.375 12.632812 C 1.375 12.660156 1.386719 12.671875 1.40625 12.671875 C 1.429688 12.671875 1.441406 12.683594 1.441406 12.730469 C 1.445312 12.773438 1.457031 12.792969 1.480469 12.800781 C 1.496094 12.804688 1.511719 12.816406 1.511719 12.828125 C 1.519531 12.875 1.519531 12.878906 1.550781 12.878906 C 1.574219 12.878906 1.582031 12.890625 1.582031 12.910156 C 1.582031 12.933594 1.59375 12.945312 1.617188 12.945312 C 1.636719 12.945312 1.648438 12.953125 1.648438 12.976562 C 1.648438 12.996094 1.660156 13.015625 1.679688 13.019531 C 1.699219 13.023438 1.714844 13.046875 1.71875 13.089844 C 1.726562 13.136719 1.738281 13.152344 1.761719 13.152344 C 1.777344 13.152344 1.792969 13.164062 1.792969 13.1875 C 1.796875 13.210938 1.8125 13.226562 1.832031 13.230469 C 1.859375 13.230469 1.867188 13.242188 1.859375 13.265625 C 1.855469 13.289062 1.859375 13.296875 1.894531 13.296875 C 1.929688 13.296875 1.9375 13.304688 1.9375 13.335938 C 1.9375 13.363281 1.945312 13.375 1.96875 13.375 C 1.988281 13.375 2 13.386719 2 13.410156 C 2 13.429688 2.011719 13.441406 2.03125 13.441406 C 2.054688 13.441406 2.0625 13.449219 2.0625 13.472656 C 2.0625 13.496094 2.074219 13.503906 2.105469 13.503906 C 2.136719 13.503906 2.144531 13.511719 2.144531 13.542969 C 2.144531 13.574219 2.152344 13.582031 2.175781 13.582031 C 2.199219 13.582031 2.207031 13.59375 2.207031 13.617188 C 2.207031 13.640625 2.21875 13.648438 2.246094 13.648438 C 2.277344 13.648438 2.289062 13.65625 2.289062 13.679688 C 2.289062 13.699219 2.300781 13.710938 2.320312 13.710938 C 2.34375 13.710938 2.351562 13.722656 2.351562 13.753906 C 2.351562 13.78125 2.359375 13.792969 2.382812 13.792969 C 2.40625 13.792969 2.417969 13.800781 2.417969 13.824219 C 2.417969 13.847656 2.425781 13.855469 2.457031 13.855469 C 2.488281 13.855469 2.496094 13.863281 2.496094 13.894531 C 2.496094 13.925781 2.503906 13.9375 2.527344 13.9375 C 2.550781 13.9375 2.558594 13.945312 2.558594 13.96875 C 2.558594 13.988281 2.570312 14 2.589844 14 C 2.609375 14 2.625 14.015625 2.632812 14.03125 C 2.636719 14.050781 2.65625 14.0625 2.671875 14.0625 C 2.695312 14.0625 2.703125 14.074219 2.703125 14.105469 C 2.703125 14.132812 2.714844 14.144531 2.734375 14.144531 C 2.75 14.144531 2.769531 14.160156 2.773438 14.175781 C 2.777344 14.195312 2.792969 14.207031 2.816406 14.207031 C 2.835938 14.207031 2.847656 14.21875 2.847656 14.238281 C 2.847656 14.269531 2.878906 14.289062 2.933594 14.289062 C 2.957031 14.289062 2.976562 14.300781 2.980469 14.320312 C 2.984375 14.339844 3.003906 14.351562 3.023438 14.351562 C 3.046875 14.351562 3.054688 14.363281 3.054688 14.382812 C 3.054688 14.40625 3.066406 14.417969 3.089844 14.417969 C 3.109375 14.417969 3.121094 14.425781 3.121094 14.449219 C 3.121094 14.480469 3.125 14.480469 3.171875 14.488281 C 3.183594 14.488281 3.195312 14.503906 3.199219 14.519531 C 3.210938 14.550781 3.214844 14.554688 3.289062 14.558594 C 3.316406 14.558594 3.328125 14.570312 3.328125 14.589844 C 3.328125 14.613281 3.339844 14.625 3.367188 14.625 C 3.394531 14.625 3.40625 14.632812 3.410156 14.660156 C 3.414062 14.691406 3.425781 14.695312 3.484375 14.699219 C 3.539062 14.707031 3.550781 14.710938 3.550781 14.738281 C 3.550781 14.757812 3.5625 14.769531 3.582031 14.769531 C 3.605469 14.769531 3.617188 14.777344 3.617188 14.796875 C 3.617188 14.832031 3.644531 14.847656 3.714844 14.847656 C 3.75 14.847656 3.761719 14.855469 3.761719 14.878906 C 3.761719 14.90625 3.769531 14.910156 3.824219 14.910156 C 3.871094 14.910156 3.886719 14.917969 3.894531 14.945312 C 3.898438 14.964844 3.914062 14.976562 3.933594 14.976562 C 3.957031 14.976562 3.96875 14.988281 3.972656 15.011719 C 3.976562 15.042969 3.988281 15.050781 4.042969 15.050781 C 4.097656 15.058594 4.113281 15.0625 4.113281 15.089844 C 4.113281 15.113281 4.121094 15.121094 4.175781 15.121094 C 4.210938 15.121094 4.238281 15.128906 4.238281 15.136719 C 4.238281 15.164062 4.292969 15.199219 4.335938 15.199219 C 4.371094 15.199219 4.382812 15.207031 4.382812 15.230469 C 4.382812 15.257812 4.394531 15.265625 4.457031 15.265625 C 4.519531 15.265625 4.527344 15.269531 4.527344 15.296875 C 4.527344 15.324219 4.539062 15.328125 4.597656 15.328125 C 4.660156 15.328125 4.671875 15.332031 4.675781 15.363281 C 4.679688 15.394531 4.691406 15.402344 4.746094 15.40625 C 4.796875 15.410156 4.816406 15.417969 4.820312 15.441406 C 4.828125 15.46875 4.84375 15.472656 4.925781 15.472656 C 5.011719 15.472656 5.023438 15.476562 5.023438 15.503906 C 5.023438 15.53125 5.035156 15.535156 5.128906 15.535156 C 5.230469 15.535156 5.230469 15.539062 5.230469 15.574219 C 5.230469 15.613281 5.238281 15.617188 5.304688 15.617188 C 5.363281 15.617188 5.375 15.621094 5.375 15.648438 C 5.375 15.675781 5.386719 15.679688 5.511719 15.679688 C 5.636719 15.679688 5.644531 15.683594 5.652344 15.714844 C 5.65625 15.746094 5.667969 15.753906 5.753906 15.757812 C 5.835938 15.761719 5.855469 15.765625 5.859375 15.792969 C 5.867188 15.820312 5.882812 15.824219 6.007812 15.824219 C 6.132812 15.824219 6.144531 15.824219 6.144531 15.855469 C 6.144531 15.886719 6.15625 15.886719 6.320312 15.886719 L 6.496094 15.886719 L 6.496094 15.96875 L 6.703125 15.96875 C 6.832031 15.96875 6.910156 15.972656 6.910156 15.984375 C 6.910156 15.996094 7.285156 16 8 16 C 8.691406 16 9.089844 15.996094 9.089844 15.984375 C 9.089844 15.976562 9.175781 15.964844 9.292969 15.964844 C 9.488281 15.960938 9.496094 15.957031 9.5 15.925781 C 9.503906 15.890625 9.511719 15.886719 9.679688 15.886719 C 9.84375 15.886719 9.855469 15.886719 9.855469 15.855469 C 9.855469 15.824219 9.867188 15.824219 9.992188 15.824219 C 10.117188 15.824219 10.132812 15.820312 10.140625 15.792969 C 10.144531 15.765625 10.160156 15.761719 10.230469 15.761719 C 10.359375 15.761719 10.417969 15.746094 10.417969 15.710938 C 10.417969 15.683594 10.429688 15.679688 10.519531 15.679688 C 10.613281 15.679688 10.625 15.675781 10.625 15.648438 C 10.625 15.621094 10.636719 15.617188 10.722656 15.617188 C 10.808594 15.617188 10.816406 15.613281 10.832031 15.574219 C 10.84375 15.542969 10.855469 15.535156 10.910156 15.535156 C 10.964844 15.535156 10.976562 15.53125 10.976562 15.503906 C 10.976562 15.476562 10.988281 15.472656 11.074219 15.472656 C 11.15625 15.472656 11.171875 15.46875 11.179688 15.441406 C 11.183594 15.421875 11.199219 15.410156 11.222656 15.40625 C 11.289062 15.40625 11.328125 15.386719 11.328125 15.359375 C 11.328125 15.332031 11.339844 15.328125 11.398438 15.328125 C 11.460938 15.328125 11.472656 15.324219 11.472656 15.296875 C 11.472656 15.269531 11.480469 15.265625 11.542969 15.265625 C 11.605469 15.265625 11.617188 15.257812 11.617188 15.234375 C 11.617188 15.207031 11.628906 15.199219 11.683594 15.195312 C 11.738281 15.191406 11.753906 15.1875 11.757812 15.15625 C 11.761719 15.125 11.773438 15.121094 11.824219 15.121094 C 11.878906 15.121094 11.886719 15.113281 11.886719 15.089844 C 11.886719 15.0625 11.898438 15.054688 11.933594 15.054688 C 12.003906 15.054688 12.03125 15.042969 12.03125 15.007812 C 12.03125 14.984375 12.042969 14.976562 12.074219 14.976562 C 12.101562 14.976562 12.113281 14.96875 12.113281 14.945312 C 12.113281 14.917969 12.121094 14.910156 12.175781 14.910156 C 12.226562 14.910156 12.238281 14.90625 12.238281 14.882812 C 12.238281 14.859375 12.253906 14.847656 12.3125 14.839844 C 12.371094 14.832031 12.382812 14.824219 12.382812 14.800781 C 12.382812 14.777344 12.394531 14.769531 12.425781 14.769531 C 12.453125 14.769531 12.464844 14.757812 12.464844 14.738281 C 12.464844 14.714844 12.476562 14.707031 12.523438 14.699219 C 12.574219 14.699219 12.585938 14.6875 12.589844 14.660156 C 12.59375 14.632812 12.605469 14.625 12.632812 14.625 C 12.660156 14.625 12.671875 14.613281 12.671875 14.589844 C 12.671875 14.566406 12.683594 14.558594 12.730469 14.558594 C 12.773438 14.558594 12.789062 14.550781 12.792969 14.527344 C 12.800781 14.511719 12.820312 14.496094 12.839844 14.488281 C 12.867188 14.484375 12.878906 14.46875 12.878906 14.449219 C 12.878906 14.425781 12.890625 14.417969 12.910156 14.417969 C 12.933594 14.417969 12.945312 14.40625 12.945312 14.382812 C 12.945312 14.359375 12.953125 14.351562 12.984375 14.351562 C 13.011719 14.351562 13.023438 14.34375 13.023438 14.320312 C 13.023438 14.296875 13.035156 14.289062 13.0625 14.289062 C 13.121094 14.289062 13.152344 14.269531 13.152344 14.238281 C 13.152344 14.21875 13.164062 14.207031 13.183594 14.207031 C 13.207031 14.207031 13.222656 14.195312 13.226562 14.175781 C 13.230469 14.160156 13.25 14.144531 13.265625 14.144531 C 13.285156 14.144531 13.296875 14.132812 13.296875 14.105469 C 13.296875 14.074219 13.304688 14.0625 13.335938 14.0625 C 13.363281 14.0625 13.375 14.054688 13.375 14.03125 C 13.375 14.011719 13.386719 14 13.410156 14 C 13.429688 14 13.441406 13.988281 13.441406 13.96875 C 13.441406 13.945312 13.449219 13.9375 13.472656 13.9375 C 13.496094 13.9375 13.503906 13.925781 13.503906 13.894531 C 13.503906 13.863281 13.511719 13.855469 13.542969 13.855469 C 13.574219 13.855469 13.582031 13.847656 13.582031 13.824219 C 13.582031 13.800781 13.59375 13.792969 13.617188 13.792969 C 13.640625 13.792969 13.648438 13.78125 13.648438 13.753906 C 13.648438 13.722656 13.65625 13.710938 13.679688 13.710938 C 13.699219 13.710938 13.710938 13.699219 13.710938 13.679688 C 13.710938 13.65625 13.722656 13.648438 13.753906 13.648438 C 13.78125 13.648438 13.792969 13.640625 13.792969 13.617188 C 13.792969 13.59375 13.800781 13.582031 13.824219 13.582031 C 13.847656 13.582031 13.855469 13.574219 13.855469 13.542969 C 13.855469 13.511719 13.863281 13.503906 13.894531 13.503906 C 13.925781 13.503906 13.9375 13.496094 13.9375 13.472656 C 13.9375 13.449219 13.945312 13.441406 13.96875 13.441406 C 13.988281 13.441406 14 13.429688 14 13.410156 C 14 13.386719 14.011719 13.375 14.03125 13.375 C 14.054688 13.375 14.0625 13.363281 14.0625 13.335938 C 14.0625 13.304688 14.074219 13.296875 14.105469 13.296875 C 14.132812 13.296875 14.144531 13.285156 14.144531 13.265625 C 14.144531 13.25 14.160156 13.230469 14.175781 13.226562 C 14.195312 13.222656 14.207031 13.207031 14.207031 13.183594 C 14.207031 13.164062 14.21875 13.152344 14.238281 13.152344 C 14.269531 13.152344 14.289062 13.121094 14.289062 13.0625 C 14.289062 13.035156 14.296875 13.023438 14.320312 13.023438 C 14.34375 13.023438 14.351562 13.011719 14.351562 12.984375 C 14.351562 12.953125 14.359375 12.945312 14.382812 12.945312 C 14.40625 12.945312 14.417969 12.933594 14.417969 12.910156 C 14.417969 12.890625 14.425781 12.878906 14.449219 12.878906 C 14.46875 12.878906 14.484375 12.867188 14.488281 12.839844 C 14.496094 12.820312 14.511719 12.800781 14.527344 12.792969 C 14.550781 12.789062 14.558594 12.773438 14.558594 12.730469 C 14.558594 12.683594 14.566406 12.671875 14.589844 12.671875 C 14.613281 12.671875 14.625 12.660156 14.625 12.632812 C 14.625 12.605469 14.632812 12.59375 14.660156 12.589844 C 14.6875 12.585938 14.699219 12.574219 14.699219 12.523438 C 14.707031 12.476562 14.714844 12.464844 14.738281 12.464844 C 14.757812 12.464844 14.769531 12.453125 14.769531 12.425781 C 14.769531 12.394531 14.777344 12.382812 14.796875 12.382812 C 14.832031 12.382812 14.847656 12.355469 14.847656 12.285156 C 14.847656 12.25 14.855469 12.238281 14.878906 12.238281 C 14.90625 12.238281 14.910156 12.230469 14.910156 12.175781 C 14.910156 12.121094 14.917969 12.113281 14.945312 12.113281 C 14.96875 12.113281 14.976562 12.101562 14.976562 12.074219 C 14.976562 12.042969 14.984375 12.03125 15.011719 12.027344 C 15.042969 12.023438 15.050781 12.011719 15.050781 11.957031 C 15.058594 11.902344 15.0625 11.886719 15.089844 11.886719 C 15.113281 11.886719 15.121094 11.878906 15.121094 11.828125 C 15.121094 11.78125 15.128906 11.765625 15.15625 11.753906 C 15.183594 11.738281 15.191406 11.71875 15.199219 11.675781 C 15.199219 11.628906 15.207031 11.617188 15.234375 11.617188 C 15.257812 11.617188 15.265625 11.605469 15.265625 11.542969 C 15.265625 11.480469 15.269531 11.472656 15.296875 11.472656 C 15.324219 11.472656 15.328125 11.460938 15.328125 11.402344 C 15.328125 11.339844 15.332031 11.328125 15.363281 11.324219 C 15.394531 11.320312 15.402344 11.308594 15.40625 11.253906 C 15.410156 11.203125 15.417969 11.183594 15.441406 11.179688 C 15.46875 11.171875 15.472656 11.15625 15.472656 11.074219 C 15.472656 10.988281 15.476562 10.976562 15.503906 10.976562 C 15.53125 10.976562 15.535156 10.964844 15.535156 10.871094 C 15.535156 10.769531 15.539062 10.769531 15.574219 10.769531 C 15.613281 10.769531 15.617188 10.761719 15.617188 10.695312 C 15.617188 10.636719 15.621094 10.625 15.648438 10.625 C 15.675781 10.625 15.679688 10.613281 15.679688 10.488281 C 15.679688 10.363281 15.683594 10.355469 15.714844 10.347656 C 15.746094 10.34375 15.753906 10.332031 15.757812 10.246094 C 15.761719 10.164062 15.765625 10.144531 15.792969 10.140625 C 15.820312 10.132812 15.824219 10.117188 15.824219 9.992188 C 15.824219 9.867188 15.824219 9.855469 15.855469 9.855469 C 15.886719 9.855469 15.886719 9.84375 15.886719 9.679688 L 15.886719 9.503906 L 15.96875 9.503906 L 15.96875 9.296875 C 15.96875 9.167969 15.972656 9.089844 15.984375 9.089844 C 15.996094 9.089844 16 8.714844 16 8 C 16 7.308594 15.996094 6.910156 15.984375 6.910156 C 15.976562 6.910156 15.964844 6.824219 15.964844 6.707031 C 15.960938 6.511719 15.957031 6.503906 15.925781 6.5 C 15.890625 6.496094 15.886719 6.488281 15.886719 6.320312 C 15.886719 6.15625 15.886719 6.144531 15.855469 6.144531 C 15.824219 6.144531 15.824219 6.132812 15.824219 6.007812 C 15.824219 5.882812 15.820312 5.867188 15.792969 5.859375 C 15.765625 5.855469 15.761719 5.839844 15.761719 5.769531 C 15.761719 5.640625 15.746094 5.582031 15.710938 5.582031 C 15.683594 5.582031 15.679688 5.570312 15.679688 5.480469 C 15.679688 5.386719 15.675781 5.375 15.648438 5.375 C 15.621094 5.375 15.617188 5.363281 15.613281 5.277344 C 15.609375 5.1875 15.605469 5.175781 15.574219 5.171875 C 15.542969 5.167969 15.535156 5.15625 15.535156 5.09375 C 15.535156 5.035156 15.53125 5.023438 15.503906 5.023438 C 15.476562 5.023438 15.472656 5.011719 15.472656 4.925781 C 15.472656 4.84375 15.46875 4.828125 15.441406 4.820312 C 15.421875 4.816406 15.410156 4.800781 15.40625 4.777344 C 15.40625 4.710938 15.386719 4.671875 15.359375 4.671875 C 15.332031 4.671875 15.328125 4.660156 15.328125 4.601562 C 15.328125 4.539062 15.324219 4.527344 15.296875 4.527344 C 15.269531 4.527344 15.265625 4.519531 15.265625 4.457031 C 15.265625 4.394531 15.257812 4.382812 15.234375 4.382812 C 15.207031 4.382812 15.199219 4.371094 15.195312 4.316406 C 15.191406 4.261719 15.1875 4.246094 15.15625 4.242188 C 15.125 4.238281 15.121094 4.226562 15.121094 4.175781 C 15.121094 4.121094 15.113281 4.113281 15.089844 4.113281 C 15.0625 4.113281 15.054688 4.101562 15.054688 4.066406 C 15.054688 3.996094 15.042969 3.96875 15.007812 3.96875 C 14.988281 3.96875 14.976562 3.957031 14.976562 3.933594 C 14.976562 3.914062 14.964844 3.898438 14.945312 3.894531 C 14.917969 3.886719 14.910156 3.871094 14.910156 3.824219 C 14.910156 3.773438 14.90625 3.761719 14.882812 3.761719 C 14.859375 3.761719 14.847656 3.746094 14.839844 3.6875 C 14.832031 3.628906 14.824219 3.617188 14.800781 3.617188 C 14.777344 3.617188 14.769531 3.605469 14.769531 3.582031 C 14.769531 3.5625 14.757812 3.550781 14.738281 3.550781 C 14.710938 3.550781 14.707031 3.539062 14.699219 3.484375 C 14.695312 3.425781 14.691406 3.414062 14.660156 3.410156 C 14.632812 3.40625 14.625 3.394531 14.625 3.367188 C 14.625 3.339844 14.613281 3.328125 14.589844 3.328125 C 14.566406 3.328125 14.558594 3.316406 14.558594 3.269531 C 14.558594 3.226562 14.550781 3.210938 14.527344 3.207031 C 14.511719 3.199219 14.496094 3.179688 14.488281 3.160156 C 14.484375 3.132812 14.46875 3.121094 14.449219 3.121094 C 14.425781 3.121094 14.417969 3.109375 14.417969 3.089844 C 14.417969 3.066406 14.40625 3.054688 14.382812 3.054688 C 14.363281 3.054688 14.351562 3.046875 14.351562 3.023438 C 14.351562 3.003906 14.339844 2.984375 14.320312 2.980469 C 14.300781 2.976562 14.289062 2.957031 14.289062 2.933594 C 14.289062 2.878906 14.269531 2.847656 14.238281 2.847656 C 14.21875 2.847656 14.207031 2.835938 14.207031 2.816406 C 14.207031 2.792969 14.195312 2.777344 14.175781 2.773438 C 14.160156 2.769531 14.144531 2.75 14.144531 2.734375 C 14.144531 2.714844 14.132812 2.703125 14.105469 2.703125 C 14.074219 2.703125 14.0625 2.695312 14.0625 2.671875 C 14.0625 2.65625 14.050781 2.636719 14.03125 2.632812 C 14.015625 2.625 14 2.609375 14 2.589844 C 14 2.570312 13.988281 2.558594 13.96875 2.558594 C 13.945312 2.558594 13.9375 2.550781 13.9375 2.527344 C 13.9375 2.503906 13.925781 2.496094 13.894531 2.496094 C 13.863281 2.496094 13.855469 2.488281 13.855469 2.457031 C 13.855469 2.425781 13.847656 2.417969 13.824219 2.417969 C 13.800781 2.417969 13.792969 2.40625 13.792969 2.382812 C 13.792969 2.359375 13.78125 2.351562 13.753906 2.351562 C 13.722656 2.351562 13.710938 2.34375 13.710938 2.320312 C 13.710938 2.300781 13.699219 2.289062 13.679688 2.289062 C 13.65625 2.289062 13.648438 2.277344 13.648438 2.246094 C 13.648438 2.21875 13.640625 2.207031 13.617188 2.207031 C 13.59375 2.207031 13.582031 2.199219 13.582031 2.175781 C 13.582031 2.152344 13.574219 2.144531 13.542969 2.144531 C 13.511719 2.144531 13.503906 2.136719 13.503906 2.105469 C 13.503906 2.074219 13.496094 2.0625 13.472656 2.0625 C 13.449219 2.0625 13.441406 2.054688 13.441406 2.03125 C 13.441406 2.011719 13.429688 2 13.410156 2 C 13.386719 2 13.375 1.988281 13.375 1.96875 C 13.375 1.945312 13.363281 1.9375 13.335938 1.9375 C 13.304688 1.9375 13.296875 1.925781 13.296875 1.894531 C 13.296875 1.867188 13.285156 1.855469 13.265625 1.855469 C 13.25 1.855469 13.230469 1.839844 13.226562 1.824219 C 13.222656 1.804688 13.207031 1.792969 13.183594 1.792969 C 13.164062 1.792969 13.152344 1.78125 13.152344 1.761719 C 13.152344 1.738281 13.136719 1.730469 13.089844 1.71875 C 13.046875 1.714844 13.023438 1.699219 13.019531 1.679688 C 13.015625 1.660156 12.996094 1.648438 12.976562 1.648438 C 12.953125 1.648438 12.945312 1.636719 12.945312 1.617188 C 12.945312 1.59375 12.933594 1.582031 12.910156 1.582031 C 12.890625 1.582031 12.878906 1.574219 12.878906 1.550781 C 12.878906 1.53125 12.867188 1.515625 12.839844 1.511719 C 12.820312 1.503906 12.800781 1.488281 12.792969 1.472656 C 12.789062 1.449219 12.773438 1.441406 12.730469 1.441406 C 12.683594 1.441406 12.671875 1.433594 12.671875 1.410156 C 12.671875 1.386719 12.660156 1.375 12.632812 1.375 C 12.605469 1.375 12.59375 1.367188 12.589844 1.339844 C 12.585938 1.3125 12.574219 1.300781 12.527344 1.300781 C 12.484375 1.296875 12.464844 1.285156 12.457031 1.261719 C 12.453125 1.246094 12.4375 1.230469 12.417969 1.230469 C 12.394531 1.230469 12.382812 1.222656 12.382812 1.203125 C 12.382812 1.167969 12.355469 1.152344 12.285156 1.152344 C 12.25 1.152344 12.238281 1.144531 12.238281 1.121094 C 12.238281 1.09375 12.230469 1.089844 12.175781 1.089844 C 12.121094 1.089844 12.113281 1.082031 12.113281 1.054688 C 12.113281 1.03125 12.101562 1.023438 12.074219 1.023438 C 12.042969 1.023438 12.03125 1.015625 12.027344 0.988281 C 12.023438 0.957031 12.011719 0.949219 11.957031 0.949219 C 11.902344 0.941406 11.886719 0.9375 11.886719 0.910156 C 11.886719 0.886719 11.878906 0.878906 11.824219 0.878906 C 11.777344 0.878906 11.761719 0.871094 11.753906 0.847656 C 11.746094 0.828125 11.722656 0.816406 11.679688 0.808594 C 11.632812 0.800781 11.617188 0.789062 11.617188 0.765625 C 11.617188 0.742188 11.605469 0.734375 11.542969 0.734375 C 11.480469 0.734375 11.472656 0.730469 11.472656 0.703125 C 11.472656 0.675781 11.460938 0.671875 11.402344 0.671875 C 11.339844 0.671875 11.328125 0.667969 11.324219 0.636719 C 11.320312 0.605469 11.308594 0.597656 11.253906 0.59375 C 11.203125 0.589844 11.183594 0.582031 11.179688 0.558594 C 11.171875 0.53125 11.15625 0.527344 11.074219 0.527344 C 10.988281 0.527344 10.976562 0.523438 10.976562 0.496094 C 10.976562 0.46875 10.964844 0.464844 10.871094 0.464844 C 10.769531 0.464844 10.769531 0.460938 10.769531 0.425781 C 10.769531 0.386719 10.761719 0.382812 10.695312 0.382812 C 10.636719 0.382812 10.625 0.378906 10.625 0.351562 C 10.625 0.324219 10.613281 0.320312 10.488281 0.320312 C 10.363281 0.320312 10.355469 0.316406 10.347656 0.285156 C 10.34375 0.253906 10.332031 0.246094 10.246094 0.242188 C 10.164062 0.238281 10.144531 0.234375 10.140625 0.207031 C 10.132812 0.179688 10.117188 0.175781 9.992188 0.175781 C 9.867188 0.175781 9.855469 0.175781 9.855469 0.144531 C 9.855469 0.113281 9.84375 0.113281 9.679688 0.113281 L 9.503906 0.113281 L 9.503906 0.03125 L 9.296875 0.03125 C 9.167969 0.03125 9.089844 0.0273438 9.089844 0.015625 C 9.089844 0.00390625 8.714844 0 8 0 C 7.308594 0 6.910156 0.00390625 6.910156 0.015625 M 9.589844 3.503906 C 9.722656 3.511719 9.949219 3.527344 10.089844 3.535156 C 10.730469 3.574219 10.996094 3.601562 11.0625 3.632812 C 11.292969 3.753906 11.417969 4.046875 11.332031 4.265625 C 11.316406 4.308594 11.28125 4.398438 11.253906 4.464844 C 11.230469 4.53125 11.199219 4.613281 11.183594 4.648438 C 11.164062 4.683594 11.152344 4.726562 11.152344 4.742188 C 11.152344 4.753906 11.136719 4.792969 11.121094 4.820312 C 11.101562 4.847656 11.089844 4.882812 11.089844 4.894531 C 11.089844 4.90625 11.074219 4.949219 11.058594 4.984375 C 11.039062 5.019531 11.019531 5.074219 11.011719 5.105469 C 10.992188 5.171875 10.933594 5.320312 10.898438 5.382812 C 10.859375 5.457031 10.863281 5.613281 10.910156 5.675781 C 10.925781 5.703125 10.945312 5.734375 10.945312 5.75 C 10.945312 5.761719 10.957031 5.78125 10.96875 5.792969 C 10.980469 5.804688 11.003906 5.835938 11.019531 5.863281 C 11.058594 5.949219 11.089844 6.007812 11.113281 6.03125 C 11.125 6.046875 11.160156 6.105469 11.191406 6.167969 C 11.226562 6.230469 11.269531 6.308594 11.292969 6.34375 C 11.316406 6.378906 11.351562 6.433594 11.367188 6.46875 C 11.386719 6.5 11.402344 6.527344 11.410156 6.527344 C 11.417969 6.527344 11.425781 6.550781 11.433594 6.574219 C 11.4375 6.601562 11.449219 6.628906 11.457031 6.632812 C 11.464844 6.636719 11.488281 6.667969 11.503906 6.699219 C 11.523438 6.734375 11.554688 6.789062 11.574219 6.824219 C 11.597656 6.859375 11.625 6.910156 11.640625 6.9375 C 11.652344 6.960938 11.6875 7.015625 11.710938 7.054688 C 11.738281 7.097656 11.769531 7.152344 11.785156 7.183594 C 11.800781 7.214844 11.816406 7.242188 11.824219 7.246094 C 11.828125 7.253906 11.839844 7.273438 11.851562 7.296875 C 11.863281 7.316406 11.890625 7.371094 11.917969 7.410156 C 11.941406 7.453125 11.992188 7.542969 12.03125 7.609375 C 12.070312 7.675781 12.121094 7.757812 12.136719 7.789062 C 12.28125 8.03125 12.351562 8.28125 12.320312 8.441406 C 12.308594 8.492188 12.292969 8.601562 12.277344 8.679688 C 12.265625 8.757812 12.246094 8.855469 12.234375 8.894531 C 12.222656 8.933594 12.207031 9.011719 12.203125 9.070312 C 12.195312 9.125 12.183594 9.183594 12.175781 9.199219 C 12.167969 9.21875 12.148438 9.300781 12.136719 9.382812 C 12.113281 9.527344 12.074219 9.675781 12.046875 9.726562 C 12.039062 9.742188 12.019531 9.773438 12.007812 9.800781 C 11.914062 10.003906 11.671875 10.214844 11.496094 10.246094 C 11.460938 10.253906 11.414062 10.269531 11.390625 10.28125 C 11.363281 10.292969 11.324219 10.304688 11.296875 10.304688 C 11.269531 10.304688 11.164062 10.320312 11.058594 10.34375 C 10.957031 10.363281 10.824219 10.386719 10.769531 10.398438 C 10.519531 10.4375 10.382812 10.496094 10.382812 10.5625 C 10.382812 10.570312 10.367188 10.601562 10.34375 10.628906 C 10.324219 10.660156 10.304688 10.6875 10.304688 10.695312 C 10.304688 10.757812 9.859375 11.160156 9.648438 11.289062 C 9.636719 11.296875 9.601562 11.320312 9.574219 11.339844 C 9.546875 11.359375 9.519531 11.375 9.515625 11.375 C 9.507812 11.375 9.464844 11.402344 9.414062 11.4375 C 9.269531 11.535156 9.230469 11.554688 9.121094 11.613281 C 9.0625 11.644531 9.003906 11.675781 8.992188 11.691406 C 8.976562 11.703125 8.957031 11.710938 8.945312 11.710938 C 8.9375 11.710938 8.894531 11.730469 8.851562 11.75 C 8.78125 11.785156 8.730469 11.808594 8.527344 11.902344 C 8.484375 11.921875 8.441406 11.9375 8.429688 11.9375 C 8.417969 11.9375 8.398438 11.941406 8.390625 11.949219 C 8.363281 11.976562 7.980469 12.097656 7.671875 12.171875 C 7.601562 12.191406 7.492188 12.214844 7.433594 12.230469 C 7.230469 12.28125 7.066406 12.320312 6.984375 12.339844 C 6.941406 12.347656 6.871094 12.363281 6.832031 12.375 C 6.792969 12.386719 6.722656 12.40625 6.671875 12.414062 C 6.625 12.425781 6.550781 12.441406 6.511719 12.457031 C 6.472656 12.46875 6.394531 12.484375 6.34375 12.496094 C 6.292969 12.503906 6.214844 12.523438 6.175781 12.535156 C 6.136719 12.546875 6.074219 12.5625 6.039062 12.566406 C 6.003906 12.574219 5.941406 12.589844 5.902344 12.605469 C 5.785156 12.644531 5.484375 12.640625 5.386719 12.59375 C 5.34375 12.574219 5.300781 12.558594 5.292969 12.558594 C 5.242188 12.558594 4.976562 12.316406 4.976562 12.265625 C 4.976562 12.257812 4.964844 12.238281 4.949219 12.222656 C 4.921875 12.191406 4.878906 12.078125 4.839844 11.945312 C 4.761719 11.667969 4.730469 11.5625 4.679688 11.417969 C 4.664062 11.371094 4.644531 11.292969 4.628906 11.238281 C 4.617188 11.183594 4.597656 11.121094 4.585938 11.09375 C 4.570312 11.070312 4.558594 11.03125 4.558594 11.007812 C 4.558594 10.984375 4.542969 10.917969 4.523438 10.855469 C 4.5 10.792969 4.46875 10.691406 4.449219 10.625 C 4.429688 10.558594 4.398438 10.460938 4.382812 10.410156 C 4.347656 10.292969 4.304688 10.136719 4.292969 10.082031 C 4.289062 10.058594 4.269531 9.960938 4.246094 9.863281 C 4.226562 9.765625 4.203125 9.632812 4.191406 9.566406 C 4.183594 9.503906 4.167969 9.410156 4.160156 9.359375 C 4.132812 9.214844 4.089844 8.480469 4.101562 8.335938 C 4.105469 8.261719 4.121094 8.082031 4.128906 7.9375 C 4.136719 7.78125 4.152344 7.65625 4.167969 7.625 C 4.179688 7.597656 4.199219 7.535156 4.207031 7.484375 C 4.21875 7.433594 4.234375 7.386719 4.242188 7.382812 C 4.25 7.378906 4.265625 7.34375 4.273438 7.304688 C 4.285156 7.265625 4.300781 7.222656 4.3125 7.214844 C 4.324219 7.203125 4.335938 7.1875 4.335938 7.179688 C 4.335938 7.167969 4.355469 7.121094 4.378906 7.074219 C 4.425781 6.984375 4.425781 6.976562 4.367188 6.816406 C 4.355469 6.785156 4.332031 6.710938 4.308594 6.648438 C 4.285156 6.585938 4.253906 6.503906 4.238281 6.46875 C 4.222656 6.429688 4.207031 6.386719 4.207031 6.375 C 4.207031 6.363281 4.195312 6.320312 4.175781 6.285156 C 4.160156 6.246094 4.144531 6.191406 4.136719 6.160156 C 4.128906 6.128906 4.113281 6.082031 4.097656 6.054688 C 4.058594 5.984375 4.058594 5.609375 4.101562 5.550781 C 4.113281 5.53125 4.128906 5.5 4.128906 5.488281 C 4.128906 5.394531 4.300781 5.164062 4.480469 5.015625 C 4.519531 4.984375 4.59375 4.917969 4.644531 4.875 C 4.691406 4.828125 4.792969 4.742188 4.863281 4.679688 C 4.9375 4.617188 5.050781 4.519531 5.117188 4.460938 C 5.195312 4.394531 5.296875 4.324219 5.390625 4.277344 L 5.542969 4.199219 L 7.003906 4.207031 L 8.460938 4.210938 L 8.515625 4.132812 C 8.546875 4.089844 8.582031 4.042969 8.597656 4.03125 C 8.609375 4.019531 8.65625 3.949219 8.703125 3.878906 C 8.921875 3.5625 9.074219 3.457031 9.289062 3.480469 C 9.324219 3.484375 9.460938 3.496094 9.589844 3.503906 M 9.363281 4.265625 C 9.34375 4.277344 9.328125 4.300781 9.328125 4.3125 C 9.328125 4.324219 9.316406 4.335938 9.304688 4.339844 C 9.292969 4.347656 9.253906 4.398438 9.222656 4.457031 C 9.191406 4.515625 9.152344 4.566406 9.140625 4.570312 C 9.128906 4.574219 9.121094 4.585938 9.121094 4.59375 C 9.121094 4.613281 9.078125 4.667969 9.011719 4.746094 C 8.992188 4.769531 8.976562 4.792969 8.976562 4.800781 C 8.976562 4.824219 8.820312 4.910156 8.726562 4.9375 C 8.621094 4.972656 8.550781 4.972656 6.726562 4.949219 C 5.757812 4.941406 5.753906 4.941406 5.652344 5.023438 C 5.496094 5.152344 5.441406 5.199219 5.375 5.265625 C 5.332031 5.304688 5.28125 5.351562 5.257812 5.367188 C 4.855469 5.703125 4.796875 5.785156 4.871094 5.917969 C 4.898438 5.964844 4.949219 6.109375 4.988281 6.238281 C 5 6.289062 5.019531 6.34375 5.035156 6.359375 C 5.046875 6.378906 5.054688 6.40625 5.054688 6.421875 C 5.054688 6.4375 5.070312 6.480469 5.085938 6.519531 C 5.121094 6.597656 5.164062 6.71875 5.191406 6.820312 C 5.203125 6.859375 5.222656 6.910156 5.230469 6.925781 C 5.277344 7.007812 5.234375 7.210938 5.15625 7.300781 C 5.109375 7.355469 4.976562 7.613281 4.976562 7.652344 C 4.976562 7.667969 4.964844 7.699219 4.953125 7.714844 C 4.933594 7.75 4.910156 7.9375 4.886719 8.328125 C 4.875 8.539062 4.921875 9.210938 4.960938 9.410156 C 4.976562 9.496094 4.992188 9.585938 4.992188 9.613281 C 4.992188 9.636719 5.003906 9.691406 5.019531 9.730469 C 5.03125 9.769531 5.050781 9.847656 5.058594 9.902344 C 5.066406 9.957031 5.078125 10.011719 5.085938 10.023438 C 5.097656 10.035156 5.113281 10.09375 5.128906 10.160156 C 5.144531 10.222656 5.164062 10.300781 5.175781 10.332031 C 5.191406 10.359375 5.199219 10.398438 5.199219 10.417969 C 5.199219 10.441406 5.210938 10.476562 5.226562 10.503906 C 5.238281 10.53125 5.257812 10.589844 5.265625 10.640625 C 5.277344 10.6875 5.292969 10.746094 5.304688 10.769531 C 5.316406 10.792969 5.332031 10.839844 5.335938 10.871094 C 5.339844 10.90625 5.359375 10.972656 5.375 11.015625 C 5.410156 11.117188 5.46875 11.300781 5.488281 11.382812 C 5.519531 11.515625 5.570312 11.6875 5.585938 11.707031 C 5.59375 11.714844 5.605469 11.75 5.613281 11.785156 C 5.628906 11.863281 5.667969 11.871094 5.839844 11.828125 C 5.90625 11.808594 5.992188 11.785156 6.03125 11.777344 C 6.308594 11.710938 6.46875 11.671875 6.5625 11.65625 C 6.621094 11.644531 6.675781 11.632812 6.683594 11.625 C 6.695312 11.621094 6.765625 11.601562 6.84375 11.585938 C 6.921875 11.566406 7.015625 11.546875 7.054688 11.535156 C 7.308594 11.472656 7.394531 11.449219 7.488281 11.433594 C 7.890625 11.351562 8.460938 11.128906 8.839844 10.90625 C 8.855469 10.898438 8.917969 10.859375 8.976562 10.824219 C 9.035156 10.785156 9.117188 10.734375 9.160156 10.707031 C 9.203125 10.679688 9.246094 10.652344 9.257812 10.644531 C 9.265625 10.636719 9.292969 10.621094 9.3125 10.609375 C 9.46875 10.527344 9.695312 10.277344 9.800781 10.078125 C 9.917969 9.847656 9.996094 9.773438 10.152344 9.753906 C 10.195312 9.746094 10.261719 9.730469 10.300781 9.71875 C 10.339844 9.707031 10.398438 9.695312 10.433594 9.695312 C 10.46875 9.695312 10.558594 9.683594 10.628906 9.664062 C 10.699219 9.648438 10.824219 9.625 10.902344 9.617188 C 10.980469 9.609375 11.050781 9.59375 11.0625 9.585938 C 11.070312 9.578125 11.117188 9.566406 11.160156 9.5625 C 11.203125 9.554688 11.253906 9.546875 11.265625 9.542969 C 11.3125 9.527344 11.371094 9.421875 11.382812 9.328125 C 11.390625 9.28125 11.40625 9.21875 11.417969 9.191406 C 11.429688 9.160156 11.441406 9.113281 11.441406 9.085938 C 11.441406 9.058594 11.457031 8.957031 11.480469 8.863281 C 11.5 8.773438 11.523438 8.652344 11.535156 8.601562 C 11.542969 8.546875 11.558594 8.46875 11.566406 8.425781 C 11.585938 8.355469 11.585938 8.339844 11.554688 8.28125 C 11.535156 8.246094 11.519531 8.207031 11.511719 8.191406 C 11.507812 8.179688 11.480469 8.136719 11.457031 8.097656 C 11.429688 8.058594 11.398438 8.003906 11.382812 7.976562 C 11.371094 7.949219 11.324219 7.871094 11.277344 7.800781 C 11.234375 7.730469 11.183594 7.644531 11.167969 7.609375 C 11.148438 7.574219 11.117188 7.515625 11.097656 7.480469 C 11.074219 7.445312 11.046875 7.394531 11.03125 7.363281 C 11.019531 7.335938 11 7.308594 10.992188 7.304688 C 10.980469 7.296875 10.960938 7.269531 10.949219 7.242188 C 10.9375 7.214844 10.910156 7.164062 10.886719 7.128906 C 10.867188 7.09375 10.835938 7.039062 10.820312 7.007812 C 10.804688 6.976562 10.765625 6.910156 10.730469 6.859375 C 10.699219 6.808594 10.671875 6.761719 10.671875 6.753906 C 10.671875 6.746094 10.664062 6.730469 10.652344 6.71875 C 10.640625 6.707031 10.617188 6.671875 10.601562 6.640625 C 10.585938 6.609375 10.558594 6.558594 10.539062 6.523438 C 10.523438 6.492188 10.5 6.457031 10.488281 6.449219 C 10.472656 6.4375 10.464844 6.421875 10.464844 6.410156 C 10.464844 6.402344 10.4375 6.355469 10.402344 6.304688 C 10.371094 6.257812 10.332031 6.191406 10.316406 6.160156 C 10.289062 6.101562 10.269531 6.070312 10.222656 5.996094 C 10.207031 5.972656 10.1875 5.933594 10.183594 5.910156 C 10.175781 5.886719 10.15625 5.832031 10.140625 5.792969 C 10.097656 5.703125 10.105469 5.335938 10.148438 5.253906 C 10.183594 5.1875 10.253906 4.996094 10.253906 4.96875 C 10.253906 4.957031 10.273438 4.902344 10.296875 4.851562 C 10.378906 4.675781 10.382812 4.664062 10.394531 4.617188 C 10.398438 4.589844 10.417969 4.542969 10.433594 4.515625 C 10.46875 4.460938 10.476562 4.34375 10.453125 4.316406 C 10.433594 4.300781 10.414062 4.300781 9.886719 4.273438 C 9.714844 4.261719 9.535156 4.253906 9.488281 4.246094 C 9.421875 4.242188 9.390625 4.246094 9.363281 4.265625 "/>
</g>
</svg>
