<?xml version="1.0" encoding="UTF-8"?>
<svg xmlns="http://www.w3.org/2000/svg" xmlns:xlink="http://www.w3.org/1999/xlink" width="96px" height="96px" viewBox="0 0 96 96" version="1.1">
<g id="surface1">
<path style=" stroke:none;fill-rule:evenodd;fill:rgb(97.254902%,96.862745%,97.647059%);fill-opacity:1;" d="M 54.710938 21.011719 C 53.734375 21.28125 53.34375 21.640625 52.226562 23.273438 C 51.941406 23.695312 51.648438 24.105469 51.574219 24.1875 C 51.503906 24.269531 51.289062 24.546875 51.101562 24.800781 L 50.761719 25.269531 L 42.011719 25.234375 L 33.265625 25.199219 L 32.351562 25.660156 C 31.773438 25.953125 31.171875 26.355469 30.710938 26.765625 C 30.308594 27.117188 29.625 27.710938 29.191406 28.078125 C 28.757812 28.449219 28.15625 28.972656 27.859375 29.246094 C 27.558594 29.515625 27.117188 29.898438 26.878906 30.09375 C 25.796875 30.992188 24.769531 32.371094 24.769531 32.921875 C 24.769531 33.007812 24.691406 33.183594 24.601562 33.316406 C 24.363281 33.648438 24.355469 35.902344 24.589844 36.335938 C 24.675781 36.496094 24.777344 36.773438 24.816406 36.960938 C 24.855469 37.144531 24.96875 37.476562 25.066406 37.699219 C 25.167969 37.921875 25.246094 38.167969 25.246094 38.25 C 25.246094 38.328125 25.332031 38.578125 25.429688 38.804688 C 25.53125 39.03125 25.71875 39.519531 25.851562 39.886719 C 25.980469 40.257812 26.140625 40.710938 26.207031 40.894531 C 26.546875 41.859375 26.550781 41.90625 26.273438 42.453125 C 26.132812 42.734375 26.015625 43.011719 26.015625 43.070312 C 26.015625 43.128906 25.957031 43.226562 25.882812 43.289062 C 25.808594 43.347656 25.703125 43.589844 25.644531 43.820312 C 25.585938 44.054688 25.496094 44.269531 25.445312 44.300781 C 25.398438 44.332031 25.308594 44.601562 25.246094 44.90625 C 25.1875 45.207031 25.078125 45.589844 25.003906 45.753906 C 24.921875 45.933594 24.828125 46.679688 24.769531 47.628906 C 24.714844 48.492188 24.644531 49.566406 24.613281 50.015625 C 24.550781 50.886719 24.800781 55.28125 24.964844 56.160156 C 25.015625 56.449219 25.105469 57.011719 25.160156 57.40625 C 25.214844 57.804688 25.363281 58.601562 25.488281 59.183594 C 25.617188 59.765625 25.742188 60.347656 25.765625 60.480469 C 25.828125 60.8125 26.085938 61.761719 26.300781 62.449219 C 26.398438 62.765625 26.574219 63.347656 26.6875 63.742188 C 26.804688 64.140625 27.003906 64.765625 27.132812 65.136719 C 27.257812 65.503906 27.359375 65.914062 27.359375 66.046875 C 27.359375 66.179688 27.425781 66.414062 27.507812 66.566406 C 27.585938 66.722656 27.710938 67.109375 27.785156 67.433594 C 27.859375 67.753906 27.992188 68.230469 28.082031 68.496094 C 28.378906 69.375 28.570312 70.007812 29.035156 71.664062 C 29.265625 72.472656 29.53125 73.144531 29.699219 73.328125 C 29.785156 73.425781 29.855469 73.542969 29.859375 73.589844 C 29.867188 73.890625 31.449219 75.359375 31.757812 75.359375 C 31.808594 75.359375 32.058594 75.453125 32.316406 75.570312 C 32.914062 75.839844 34.722656 75.871094 35.425781 75.621094 C 35.660156 75.539062 36.027344 75.441406 36.238281 75.40625 C 36.453125 75.371094 36.820312 75.285156 37.054688 75.214844 C 37.292969 75.144531 37.746094 75.035156 38.0625 74.972656 C 38.378906 74.914062 38.835938 74.804688 39.070312 74.734375 C 39.308594 74.660156 39.742188 74.554688 40.03125 74.492188 C 40.324219 74.429688 40.753906 74.324219 40.992188 74.257812 C 41.230469 74.1875 41.640625 74.089844 41.902344 74.03125 C 42.394531 73.929688 43.386719 73.691406 44.59375 73.390625 C 44.960938 73.300781 45.609375 73.136719 46.03125 73.03125 C 47.875 72.574219 50.175781 71.863281 50.347656 71.703125 C 50.398438 71.65625 50.5 71.617188 50.578125 71.617188 C 50.652344 71.617188 50.914062 71.527344 51.15625 71.414062 C 52.375 70.863281 52.691406 70.714844 53.113281 70.503906 C 53.363281 70.375 53.617188 70.273438 53.679688 70.273438 C 53.742188 70.273438 53.859375 70.210938 53.945312 70.136719 C 54.027344 70.0625 54.375 69.855469 54.71875 69.679688 C 55.386719 69.332031 55.605469 69.203125 56.476562 68.625 C 56.78125 68.421875 57.054688 68.257812 57.085938 68.257812 C 57.113281 68.257812 57.273438 68.160156 57.4375 68.039062 C 57.605469 67.921875 57.8125 67.78125 57.898438 67.726562 C 59.160156 66.960938 61.824219 64.542969 61.824219 64.164062 C 61.824219 64.128906 61.933594 63.957031 62.0625 63.785156 C 62.195312 63.609375 62.304688 63.429688 62.304688 63.382812 C 62.304688 62.980469 63.128906 62.621094 64.609375 62.386719 C 64.953125 62.332031 65.738281 62.183594 66.359375 62.054688 C 66.980469 61.929688 67.621094 61.824219 67.78125 61.824219 C 67.941406 61.824219 68.191406 61.761719 68.335938 61.6875 C 68.480469 61.613281 68.769531 61.519531 68.980469 61.484375 C 70.03125 61.292969 71.492188 60.023438 72.046875 58.816406 C 72.125 58.648438 72.226562 58.445312 72.273438 58.367188 C 72.453125 58.058594 72.6875 57.167969 72.820312 56.296875 C 72.894531 55.796875 73 55.304688 73.054688 55.203125 C 73.109375 55.101562 73.179688 54.746094 73.210938 54.414062 C 73.238281 54.078125 73.324219 53.613281 73.398438 53.375 C 73.472656 53.136719 73.59375 52.554688 73.671875 52.078125 C 73.75 51.605469 73.863281 50.960938 73.921875 50.648438 C 74.109375 49.683594 73.6875 48.179688 72.832031 46.738281 C 72.71875 46.546875 72.429688 46.058594 72.191406 45.652344 C 71.953125 45.246094 71.640625 44.710938 71.496094 44.464844 C 71.351562 44.21875 71.179688 43.90625 71.113281 43.777344 C 71.050781 43.644531 70.96875 43.515625 70.933594 43.488281 C 70.898438 43.460938 70.800781 43.289062 70.714844 43.105469 C 70.628906 42.917969 70.429688 42.574219 70.273438 42.335938 C 70.117188 42.097656 69.921875 41.773438 69.839844 41.617188 C 69.757812 41.457031 69.585938 41.15625 69.457031 40.945312 C 69.328125 40.734375 69.136719 40.402344 69.027344 40.207031 C 68.921875 40.011719 68.792969 39.828125 68.746094 39.796875 C 68.695312 39.765625 68.625 39.613281 68.589844 39.453125 C 68.558594 39.296875 68.5 39.167969 68.460938 39.167969 C 68.425781 39.167969 68.308594 39.007812 68.207031 38.808594 C 68.101562 38.609375 67.902344 38.273438 67.765625 38.0625 C 67.625 37.851562 67.355469 37.378906 67.160156 37.011719 C 66.96875 36.644531 66.753906 36.277344 66.683594 36.195312 C 66.550781 36.046875 66.359375 35.707031 66.105469 35.175781 C 66.027344 35.015625 65.894531 34.824219 65.8125 34.757812 C 65.730469 34.6875 65.664062 34.570312 65.664062 34.492188 C 65.664062 34.414062 65.566406 34.214844 65.449219 34.046875 C 65.1875 33.683594 65.160156 32.746094 65.394531 32.296875 C 65.597656 31.914062 65.949219 31.03125 66.0625 30.625 C 66.117188 30.4375 66.242188 30.113281 66.34375 29.898438 C 66.445312 29.683594 66.527344 29.445312 66.527344 29.371094 C 66.527344 29.292969 66.613281 29.089844 66.71875 28.917969 C 66.824219 28.746094 66.910156 28.53125 66.910156 28.445312 C 66.910156 28.355469 66.992188 28.109375 67.089844 27.894531 C 67.1875 27.679688 67.386719 27.179688 67.535156 26.785156 C 67.679688 26.386719 67.886719 25.847656 67.992188 25.585938 C 68.515625 24.28125 67.765625 22.511719 66.382812 21.804688 C 65.988281 21.601562 64.375 21.4375 60.527344 21.210938 C 58.644531 21.097656 56.246094 20.933594 55.726562 20.875 C 55.515625 20.851562 55.058594 20.914062 54.710938 21.011719 M 59.328125 25.632812 C 62.484375 25.796875 62.613281 25.808594 62.710938 25.90625 C 62.867188 26.0625 62.808594 26.769531 62.609375 27.097656 C 62.507812 27.269531 62.394531 27.539062 62.359375 27.695312 C 62.296875 27.984375 62.261719 28.066406 61.789062 29.113281 C 61.648438 29.417969 61.535156 29.730469 61.535156 29.808594 C 61.535156 29.972656 61.105469 31.125 60.886719 31.535156 C 60.628906 32.023438 60.597656 34.214844 60.839844 34.757812 C 60.945312 34.992188 61.058594 35.308594 61.09375 35.457031 C 61.132812 35.609375 61.234375 35.84375 61.328125 35.984375 C 61.609375 36.414062 61.726562 36.609375 61.898438 36.960938 C 61.988281 37.144531 62.226562 37.539062 62.425781 37.832031 C 62.621094 38.128906 62.785156 38.417969 62.785156 38.46875 C 62.785156 38.523438 62.84375 38.621094 62.921875 38.683594 C 62.996094 38.746094 63.140625 38.957031 63.242188 39.148438 C 63.34375 39.34375 63.507812 39.65625 63.605469 39.839844 C 63.699219 40.023438 63.835938 40.234375 63.90625 40.304688 C 63.976562 40.371094 64.03125 40.46875 64.03125 40.515625 C 64.03125 40.566406 64.191406 40.855469 64.390625 41.15625 C 64.585938 41.460938 64.824219 41.863281 64.917969 42.046875 C 65.011719 42.234375 65.195312 42.558594 65.320312 42.769531 C 65.449219 42.980469 65.617188 43.289062 65.695312 43.453125 C 65.773438 43.617188 65.882812 43.78125 65.945312 43.820312 C 66.003906 43.855469 66.117188 44.023438 66.195312 44.191406 C 66.277344 44.359375 66.445312 44.667969 66.574219 44.878906 C 66.703125 45.089844 66.894531 45.4375 67.003906 45.648438 C 67.113281 45.859375 67.414062 46.378906 67.675781 46.800781 C 67.9375 47.222656 68.21875 47.699219 68.300781 47.855469 C 68.382812 48.015625 68.578125 48.339844 68.734375 48.574219 C 68.890625 48.8125 69.046875 49.074219 69.078125 49.152344 C 69.105469 49.230469 69.222656 49.472656 69.328125 49.683594 C 69.507812 50.035156 69.515625 50.121094 69.410156 50.550781 C 69.347656 50.808594 69.253906 51.28125 69.199219 51.601562 C 69.148438 51.917969 69 52.632812 68.871094 53.191406 C 68.746094 53.75 68.640625 54.347656 68.640625 54.515625 C 68.640625 54.683594 68.582031 54.964844 68.507812 55.140625 C 68.433594 55.316406 68.34375 55.691406 68.304688 55.976562 C 68.234375 56.523438 67.871094 57.175781 67.597656 57.253906 C 67.511719 57.28125 67.222656 57.332031 66.960938 57.367188 C 66.695312 57.402344 66.429688 57.472656 66.371094 57.519531 C 66.308594 57.566406 65.878906 57.648438 65.410156 57.703125 C 64.941406 57.753906 64.207031 57.882812 63.777344 57.988281 C 63.347656 58.089844 62.820312 58.175781 62.605469 58.175781 C 62.390625 58.175781 62.03125 58.238281 61.804688 58.3125 C 61.578125 58.386719 61.175781 58.480469 60.910156 58.515625 C 59.972656 58.644531 59.5 59.078125 58.792969 60.460938 C 58.179688 61.660156 56.8125 63.15625 55.878906 63.648438 C 55.75 63.714844 55.597656 63.808594 55.542969 63.855469 C 55.484375 63.902344 55.222656 64.074219 54.960938 64.238281 C 54.695312 64.402344 54.199219 64.714844 53.855469 64.933594 C 51.929688 66.15625 49.554688 67.25 47.28125 67.957031 C 46.101562 68.324219 45.65625 68.441406 44.929688 68.589844 C 44.375 68.703125 43.859375 68.824219 42.335938 69.210938 C 42.097656 69.273438 41.523438 69.40625 41.054688 69.507812 C 40.589844 69.609375 40.164062 69.722656 40.105469 69.757812 C 40.050781 69.792969 39.71875 69.875 39.371094 69.9375 C 38.820312 70.039062 37.851562 70.261719 36.191406 70.664062 C 35.953125 70.71875 35.433594 70.855469 35.03125 70.960938 C 34.003906 71.230469 33.773438 71.1875 33.675781 70.710938 C 33.632812 70.503906 33.558594 70.289062 33.507812 70.230469 C 33.425781 70.128906 33.109375 69.097656 32.921875 68.304688 C 32.804688 67.808594 32.472656 66.707031 32.253906 66.097656 C 32.160156 65.832031 32.050781 65.445312 32.015625 65.234375 C 31.980469 65.027344 31.894531 64.746094 31.824219 64.609375 C 31.753906 64.472656 31.652344 64.128906 31.601562 63.839844 C 31.546875 63.546875 31.433594 63.183594 31.351562 63.023438 C 31.269531 62.867188 31.199219 62.636719 31.199219 62.515625 C 31.199219 62.394531 31.140625 62.15625 31.066406 61.980469 C 30.992188 61.804688 30.863281 61.34375 30.773438 60.953125 C 30.683594 60.5625 30.574219 60.199219 30.523438 60.140625 C 30.476562 60.082031 30.394531 59.753906 30.34375 59.417969 C 30.296875 59.078125 30.1875 58.609375 30.105469 58.378906 C 30.019531 58.148438 29.953125 57.832031 29.953125 57.679688 C 29.953125 57.523438 29.867188 56.976562 29.765625 56.464844 C 29.523438 55.265625 29.25 51.226562 29.328125 49.96875 C 29.46875 47.632812 29.589844 46.503906 29.71875 46.300781 C 29.792969 46.183594 29.855469 46.015625 29.855469 45.925781 C 29.855469 45.6875 30.648438 44.125 30.933594 43.800781 C 31.410156 43.257812 31.652344 42.054688 31.382812 41.554688 C 31.328125 41.449219 31.226562 41.160156 31.15625 40.914062 C 30.992188 40.320312 30.734375 39.59375 30.515625 39.109375 C 30.417969 38.890625 30.335938 38.632812 30.335938 38.53125 C 30.335938 38.429688 30.277344 38.261719 30.203125 38.15625 C 30.128906 38.054688 30.003906 37.730469 29.921875 37.441406 C 29.703125 36.652344 29.398438 35.792969 29.234375 35.503906 C 28.785156 34.722656 29.144531 34.214844 31.554688 32.207031 C 31.679688 32.101562 31.988281 31.820312 32.242188 31.585938 C 32.65625 31.195312 32.972656 30.917969 33.921875 30.132812 C 34.519531 29.636719 34.546875 29.636719 40.355469 29.703125 C 51.304688 29.828125 51.726562 29.828125 52.367188 29.628906 C 52.917969 29.460938 53.855469 28.9375 53.855469 28.796875 C 53.855469 28.761719 53.953125 28.617188 54.070312 28.480469 C 54.46875 28.015625 54.71875 27.667969 54.71875 27.570312 C 54.71875 27.519531 54.777344 27.453125 54.851562 27.425781 C 54.921875 27.398438 55.144531 27.089844 55.339844 26.738281 C 55.535156 26.386719 55.757812 26.078125 55.832031 26.046875 C 55.90625 26.019531 55.96875 25.9375 55.96875 25.867188 C 55.96875 25.59375 56.375 25.429688 56.929688 25.480469 C 57.21875 25.511719 58.296875 25.578125 59.328125 25.632812 "/>
<path style=" stroke:none;fill-rule:evenodd;fill:rgb(41.960784%,28.627451%,70.980392%);fill-opacity:1;" d="M 41.472656 0.09375 C 41.472656 0.148438 40.957031 0.199219 40.246094 0.214844 C 39.0625 0.238281 39.023438 0.246094 38.992188 0.457031 C 38.964844 0.664062 38.929688 0.671875 37.914062 0.671875 C 36.929688 0.671875 36.863281 0.683594 36.863281 0.863281 C 36.863281 1.042969 36.800781 1.054688 36.039062 1.054688 C 35.292969 1.054688 35.210938 1.074219 35.164062 1.246094 C 35.121094 1.410156 35.03125 1.441406 34.609375 1.441406 C 33.835938 1.441406 33.503906 1.53125 33.503906 1.738281 C 33.503906 1.898438 33.425781 1.921875 32.878906 1.921875 C 32.324219 1.921875 32.257812 1.941406 32.257812 2.109375 C 32.257812 2.269531 32.175781 2.296875 31.65625 2.324219 C 31.117188 2.347656 31.054688 2.375 31.023438 2.566406 C 31 2.753906 30.9375 2.785156 30.570312 2.785156 C 30.207031 2.785156 30.144531 2.8125 30.144531 2.976562 C 30.144531 3.148438 30.078125 3.167969 29.558594 3.167969 C 29.054688 3.167969 28.96875 3.195312 28.925781 3.359375 C 28.894531 3.476562 28.792969 3.550781 28.667969 3.554688 C 28.273438 3.554688 28.03125 3.667969 28.03125 3.851562 C 28.03125 4 27.960938 4.03125 27.601562 4.03125 C 27.230469 4.03125 27.167969 4.0625 27.167969 4.222656 C 27.167969 4.386719 27.105469 4.414062 26.734375 4.414062 C 26.367188 4.414062 26.304688 4.445312 26.304688 4.609375 C 26.304688 4.742188 26.238281 4.800781 26.089844 4.800781 C 25.683594 4.804688 25.441406 4.914062 25.441406 5.097656 C 25.441406 5.246094 25.367188 5.28125 25.054688 5.28125 C 24.734375 5.28125 24.671875 5.3125 24.671875 5.472656 C 24.671875 5.621094 24.609375 5.664062 24.390625 5.664062 C 23.988281 5.664062 23.808594 5.753906 23.808594 5.960938 C 23.808594 6.082031 23.742188 6.144531 23.605469 6.144531 C 23.488281 6.144531 23.386719 6.222656 23.355469 6.335938 C 23.316406 6.488281 23.226562 6.527344 22.933594 6.527344 C 22.632812 6.527344 22.558594 6.5625 22.558594 6.710938 C 22.558594 6.851562 22.464844 6.90625 22.128906 6.953125 C 21.785156 7.007812 21.695312 7.058594 21.695312 7.207031 C 21.695312 7.328125 21.628906 7.390625 21.503906 7.390625 C 21.378906 7.390625 21.3125 7.457031 21.3125 7.578125 C 21.3125 7.730469 21.234375 7.769531 20.902344 7.792969 C 20.566406 7.820312 20.492188 7.859375 20.464844 8.039062 C 20.441406 8.195312 20.371094 8.257812 20.203125 8.257812 C 20.035156 8.257812 19.96875 8.308594 19.96875 8.441406 C 19.96875 8.585938 19.890625 8.636719 19.613281 8.660156 C 19.351562 8.679688 19.242188 8.738281 19.203125 8.878906 C 19.175781 8.984375 19.097656 9.078125 19.03125 9.082031 C 18.753906 9.105469 18.71875 9.128906 18.71875 9.3125 C 18.71875 9.441406 18.65625 9.503906 18.527344 9.503906 C 18.398438 9.503906 18.335938 9.566406 18.335938 9.695312 C 18.335938 9.828125 18.273438 9.886719 18.136719 9.886719 C 18.015625 9.886719 17.914062 9.964844 17.886719 10.074219 C 17.851562 10.199219 17.71875 10.277344 17.460938 10.320312 C 17.179688 10.371094 17.089844 10.429688 17.089844 10.570312 C 17.089844 10.691406 17.019531 10.753906 16.886719 10.753906 C 16.765625 10.753906 16.664062 10.828125 16.636719 10.945312 C 16.609375 11.050781 16.503906 11.136719 16.40625 11.136719 C 16.277344 11.136719 16.222656 11.203125 16.222656 11.375 C 16.222656 11.550781 16.171875 11.617188 16.039062 11.617188 C 15.9375 11.617188 15.824219 11.703125 15.792969 11.808594 C 15.757812 11.914062 15.648438 12 15.546875 12 C 15.425781 12 15.359375 12.066406 15.359375 12.191406 C 15.359375 12.320312 15.296875 12.382812 15.167969 12.382812 C 15.027344 12.382812 14.976562 12.449219 14.976562 12.625 C 14.976562 12.816406 14.929688 12.863281 14.730469 12.863281 C 14.550781 12.863281 14.496094 12.910156 14.515625 13.03125 C 14.535156 13.144531 14.472656 13.210938 14.328125 13.230469 C 14.171875 13.253906 14.113281 13.324219 14.113281 13.496094 C 14.113281 13.664062 14.058594 13.726562 13.921875 13.726562 C 13.792969 13.726562 13.726562 13.792969 13.726562 13.921875 C 13.726562 14.058594 13.664062 14.113281 13.496094 14.113281 C 13.324219 14.113281 13.253906 14.171875 13.230469 14.328125 C 13.210938 14.472656 13.144531 14.535156 13.03125 14.515625 C 12.910156 14.496094 12.863281 14.550781 12.863281 14.730469 C 12.863281 14.929688 12.816406 14.976562 12.625 14.976562 C 12.492188 14.976562 12.390625 15.007812 12.394531 15.046875 C 12.425781 15.242188 12.367188 15.34375 12.191406 15.386719 C 12.085938 15.414062 12 15.503906 12 15.585938 C 12 15.664062 11.914062 15.757812 11.808594 15.792969 C 11.703125 15.824219 11.617188 15.9375 11.617188 16.039062 C 11.617188 16.175781 11.550781 16.222656 11.363281 16.222656 C 11.164062 16.222656 11.125 16.261719 11.164062 16.410156 C 11.199219 16.546875 11.15625 16.605469 11.003906 16.625 C 10.878906 16.644531 10.789062 16.738281 10.769531 16.871094 C 10.75 17.007812 10.671875 17.089844 10.5625 17.089844 C 10.429688 17.089844 10.367188 17.1875 10.320312 17.460938 C 10.277344 17.71875 10.199219 17.851562 10.074219 17.886719 C 9.964844 17.914062 9.886719 18.015625 9.886719 18.136719 C 9.886719 18.273438 9.828125 18.335938 9.695312 18.335938 C 9.566406 18.335938 9.503906 18.398438 9.503906 18.527344 C 9.503906 18.652344 9.441406 18.71875 9.324219 18.71875 C 9.140625 18.71875 8.984375 18.960938 9.070312 19.101562 C 9.097656 19.144531 9.011719 19.207031 8.878906 19.238281 C 8.679688 19.289062 8.640625 19.359375 8.640625 19.632812 C 8.640625 19.902344 8.601562 19.96875 8.449219 19.96875 C 8.308594 19.96875 8.257812 20.03125 8.257812 20.203125 C 8.257812 20.371094 8.195312 20.441406 8.039062 20.464844 C 7.859375 20.492188 7.820312 20.566406 7.792969 20.902344 C 7.769531 21.234375 7.730469 21.3125 7.578125 21.3125 C 7.457031 21.3125 7.390625 21.378906 7.390625 21.503906 C 7.390625 21.628906 7.328125 21.695312 7.210938 21.695312 C 7.003906 21.695312 6.910156 21.875 6.910156 22.28125 C 6.910156 22.496094 6.867188 22.558594 6.71875 22.558594 C 6.5625 22.558594 6.527344 22.625 6.527344 22.933594 C 6.527344 23.226562 6.488281 23.316406 6.335938 23.355469 C 6.222656 23.386719 6.144531 23.488281 6.144531 23.601562 C 6.144531 23.730469 6.070312 23.804688 5.929688 23.824219 C 5.75 23.851562 5.707031 23.925781 5.683594 24.265625 C 5.660156 24.59375 5.617188 24.671875 5.464844 24.671875 C 5.3125 24.671875 5.28125 24.738281 5.28125 25.050781 C 5.28125 25.34375 5.238281 25.441406 5.089844 25.488281 C 4.980469 25.523438 4.890625 25.632812 4.882812 25.734375 C 4.878906 25.835938 4.859375 25.964844 4.847656 26.015625 C 4.835938 26.070312 4.820312 26.15625 4.8125 26.207031 C 4.804688 26.261719 4.714844 26.304688 4.609375 26.304688 C 4.445312 26.304688 4.414062 26.367188 4.414062 26.734375 C 4.414062 27.105469 4.386719 27.167969 4.222656 27.167969 C 4.0625 27.167969 4.03125 27.230469 4.03125 27.59375 C 4.03125 27.960938 4.003906 28.023438 3.816406 28.050781 C 3.632812 28.074219 3.601562 28.136719 3.601562 28.484375 C 3.601562 28.824219 3.566406 28.894531 3.382812 28.941406 C 3.191406 28.988281 3.167969 29.054688 3.167969 29.570312 C 3.167969 30.078125 3.148438 30.144531 2.976562 30.144531 C 2.804688 30.144531 2.785156 30.207031 2.785156 30.761719 C 2.785156 31.328125 2.765625 31.382812 2.566406 31.410156 C 2.390625 31.433594 2.34375 31.515625 2.304688 31.871094 C 2.265625 32.21875 2.222656 32.296875 2.085938 32.277344 C 1.992188 32.261719 1.921875 32.28125 1.929688 32.324219 C 2.035156 32.941406 1.902344 33.878906 1.703125 33.90625 C 1.523438 33.929688 1.484375 34 1.476562 34.320312 C 1.457031 35.054688 1.441406 35.113281 1.246094 35.164062 C 1.074219 35.210938 1.054688 35.292969 1.054688 36.039062 C 1.054688 36.800781 1.042969 36.863281 0.863281 36.863281 C 0.683594 36.863281 0.671875 36.929688 0.671875 37.921875 L 0.671875 38.976562 L 0.1875 38.976562 L 0.199219 40.195312 C 0.207031 41.007812 0.175781 41.429688 0.105469 41.453125 C -0.0429688 41.503906 -0.0429688 54.496094 0.105469 54.546875 C 0.171875 54.570312 0.214844 55.011719 0.226562 55.777344 C 0.238281 56.941406 0.246094 56.976562 0.457031 57.007812 C 0.664062 57.035156 0.671875 57.070312 0.671875 58.085938 C 0.671875 59.070312 0.683594 59.136719 0.863281 59.136719 C 1.042969 59.136719 1.054688 59.199219 1.054688 59.960938 C 1.054688 60.707031 1.074219 60.789062 1.246094 60.835938 C 1.375 60.871094 1.445312 60.972656 1.449219 61.140625 C 1.457031 61.277344 1.472656 61.542969 1.484375 61.726562 C 1.496094 61.914062 1.515625 62.160156 1.523438 62.28125 C 1.53125 62.425781 1.597656 62.496094 1.726562 62.496094 C 1.898438 62.496094 1.921875 62.558594 1.921875 63.117188 C 1.921875 63.609375 1.949219 63.726562 2.054688 63.6875 C 2.246094 63.613281 2.304688 63.753906 2.316406 64.355469 C 2.324219 64.652344 2.363281 64.871094 2.40625 64.84375 C 2.449219 64.816406 2.511719 64.839844 2.542969 64.894531 C 2.578125 64.949219 2.644531 64.96875 2.695312 64.941406 C 2.746094 64.910156 2.785156 65.09375 2.785156 65.371094 C 2.785156 65.792969 2.808594 65.855469 2.976562 65.855469 C 3.148438 65.855469 3.167969 65.921875 3.167969 66.441406 C 3.167969 66.945312 3.195312 67.03125 3.359375 67.074219 C 3.464844 67.105469 3.558594 67.164062 3.5625 67.210938 C 3.589844 67.402344 3.625 67.6875 3.636719 67.824219 C 3.644531 67.902344 3.734375 67.96875 3.839844 67.96875 C 4.003906 67.96875 4.03125 68.03125 4.03125 68.398438 C 4.03125 68.769531 4.0625 68.832031 4.222656 68.832031 C 4.386719 68.832031 4.414062 68.894531 4.414062 69.265625 C 4.414062 69.632812 4.445312 69.695312 4.609375 69.695312 C 4.722656 69.695312 4.804688 69.765625 4.8125 69.863281 C 4.816406 69.957031 4.832031 70.074219 4.84375 70.128906 C 4.855469 70.179688 4.875 70.300781 4.882812 70.390625 C 4.890625 70.492188 4.976562 70.558594 5.089844 70.558594 C 5.25 70.558594 5.28125 70.625 5.28125 70.945312 C 5.28125 71.265625 5.3125 71.328125 5.472656 71.328125 C 5.621094 71.328125 5.664062 71.390625 5.664062 71.609375 C 5.664062 72.011719 5.753906 72.191406 5.960938 72.191406 C 6.09375 72.191406 6.144531 72.261719 6.144531 72.433594 C 6.144531 72.609375 6.195312 72.671875 6.335938 72.671875 C 6.496094 72.671875 6.527344 72.734375 6.527344 73.054688 C 6.527344 73.375 6.558594 73.441406 6.71875 73.441406 C 6.859375 73.441406 6.910156 73.503906 6.910156 73.675781 C 6.910156 73.804688 6.953125 73.933594 7.003906 73.964844 C 7.054688 73.996094 7.070312 74.085938 7.042969 74.164062 C 7.003906 74.257812 7.050781 74.304688 7.183594 74.304688 C 7.3125 74.304688 7.390625 74.375 7.410156 74.519531 C 7.425781 74.640625 7.503906 74.734375 7.585938 74.734375 C 7.679688 74.734375 7.742188 74.863281 7.777344 75.121094 C 7.8125 75.425781 7.867188 75.511719 8.039062 75.535156 C 8.195312 75.558594 8.257812 75.628906 8.257812 75.796875 C 8.257812 75.964844 8.308594 76.03125 8.441406 76.03125 C 8.585938 76.03125 8.636719 76.109375 8.660156 76.386719 C 8.679688 76.648438 8.738281 76.757812 8.878906 76.796875 C 8.984375 76.824219 9.078125 76.902344 9.082031 76.96875 C 9.105469 77.246094 9.128906 77.28125 9.3125 77.28125 C 9.441406 77.28125 9.503906 77.34375 9.503906 77.472656 C 9.503906 77.601562 9.566406 77.664062 9.695312 77.664062 C 9.828125 77.664062 9.886719 77.726562 9.886719 77.863281 C 9.886719 77.984375 9.964844 78.085938 10.074219 78.113281 C 10.199219 78.148438 10.277344 78.28125 10.320312 78.539062 C 10.367188 78.8125 10.429688 78.910156 10.5625 78.910156 C 10.671875 78.910156 10.75 78.992188 10.769531 79.128906 C 10.789062 79.261719 10.878906 79.355469 11.003906 79.375 C 11.15625 79.394531 11.199219 79.453125 11.164062 79.589844 C 11.125 79.738281 11.164062 79.777344 11.363281 79.777344 C 11.570312 79.777344 11.617188 79.820312 11.617188 80.015625 C 11.617188 80.191406 11.667969 80.257812 11.808594 80.257812 C 11.9375 80.257812 12 80.320312 12 80.449219 C 12 80.574219 12.0625 80.640625 12.191406 80.640625 C 12.320312 80.640625 12.382812 80.703125 12.382812 80.832031 C 12.382812 80.972656 12.449219 81.023438 12.625 81.023438 C 12.816406 81.023438 12.863281 81.070312 12.863281 81.265625 C 12.863281 81.441406 12.914062 81.503906 13.054688 81.503906 C 13.183594 81.503906 13.246094 81.566406 13.246094 81.695312 C 13.246094 81.835938 13.3125 81.886719 13.488281 81.886719 C 13.664062 81.886719 13.726562 81.9375 13.726562 82.078125 C 13.726562 82.207031 13.792969 82.273438 13.921875 82.273438 C 14.0625 82.273438 14.113281 82.335938 14.113281 82.511719 C 14.113281 82.6875 14.164062 82.753906 14.304688 82.753906 C 14.433594 82.753906 14.496094 82.816406 14.496094 82.945312 C 14.496094 83.085938 14.558594 83.136719 14.734375 83.136719 C 14.929688 83.136719 14.976562 83.183594 14.976562 83.375 C 14.976562 83.550781 15.027344 83.617188 15.167969 83.617188 C 15.296875 83.617188 15.359375 83.679688 15.359375 83.808594 C 15.359375 83.933594 15.425781 84 15.546875 84 C 15.648438 84 15.757812 84.085938 15.792969 84.191406 C 15.824219 84.296875 15.9375 84.382812 16.039062 84.382812 C 16.171875 84.382812 16.222656 84.449219 16.222656 84.625 C 16.222656 84.796875 16.277344 84.863281 16.40625 84.863281 C 16.503906 84.863281 16.609375 84.949219 16.636719 85.054688 C 16.664062 85.171875 16.765625 85.246094 16.886719 85.246094 C 17.019531 85.246094 17.089844 85.308594 17.089844 85.429688 C 17.089844 85.628906 17.265625 85.726562 17.613281 85.726562 C 17.753906 85.726562 17.851562 85.796875 17.882812 85.921875 C 17.914062 86.035156 18.015625 86.113281 18.136719 86.113281 C 18.273438 86.113281 18.335938 86.171875 18.335938 86.304688 C 18.335938 86.433594 18.398438 86.496094 18.527344 86.496094 C 18.65625 86.496094 18.71875 86.558594 18.71875 86.6875 C 18.71875 86.871094 18.753906 86.894531 19.03125 86.917969 C 19.097656 86.921875 19.175781 87.015625 19.203125 87.121094 C 19.257812 87.3125 19.285156 87.324219 19.726562 87.347656 C 19.898438 87.355469 19.96875 87.414062 19.96875 87.550781 C 19.96875 87.691406 20.03125 87.742188 20.203125 87.742188 C 20.371094 87.742188 20.441406 87.804688 20.464844 87.960938 C 20.492188 88.140625 20.566406 88.179688 20.902344 88.207031 C 21.234375 88.230469 21.3125 88.269531 21.3125 88.421875 C 21.3125 88.542969 21.378906 88.609375 21.503906 88.609375 C 21.628906 88.609375 21.695312 88.671875 21.695312 88.789062 C 21.695312 88.996094 21.875 89.089844 22.28125 89.089844 C 22.496094 89.089844 22.558594 89.132812 22.558594 89.28125 C 22.558594 89.4375 22.625 89.472656 22.933594 89.472656 C 23.226562 89.472656 23.316406 89.511719 23.355469 89.664062 C 23.386719 89.777344 23.488281 89.855469 23.601562 89.855469 C 23.730469 89.855469 23.804688 89.929688 23.824219 90.070312 C 23.851562 90.25 23.925781 90.292969 24.265625 90.316406 C 24.59375 90.339844 24.671875 90.382812 24.671875 90.535156 C 24.671875 90.6875 24.738281 90.71875 25.054688 90.71875 C 25.265625 90.71875 25.441406 90.761719 25.441406 90.808594 C 25.441406 90.992188 25.75 91.199219 26.023438 91.199219 C 26.238281 91.199219 26.304688 91.242188 26.304688 91.390625 C 26.304688 91.554688 26.367188 91.585938 26.734375 91.585938 C 27.105469 91.585938 27.167969 91.613281 27.167969 91.777344 C 27.167969 91.9375 27.230469 91.96875 27.59375 91.96875 C 27.960938 91.96875 28.023438 91.996094 28.050781 92.183594 C 28.074219 92.363281 28.148438 92.40625 28.476562 92.429688 C 28.777344 92.449219 28.886719 92.503906 28.925781 92.644531 C 28.96875 92.804688 29.058594 92.832031 29.558594 92.832031 C 30.078125 92.832031 30.144531 92.851562 30.144531 93.023438 C 30.144531 93.195312 30.207031 93.214844 30.769531 93.214844 C 31.371094 93.214844 31.390625 93.226562 31.390625 93.457031 C 31.390625 93.675781 31.425781 93.695312 31.824219 93.695312 C 32.191406 93.695312 32.257812 93.722656 32.257812 93.886719 C 32.257812 94.066406 32.320312 94.078125 33.066406 94.078125 C 33.832031 94.078125 33.875 94.089844 33.90625 94.296875 C 33.933594 94.488281 33.996094 94.515625 34.527344 94.539062 C 35.015625 94.5625 35.125 94.601562 35.164062 94.757812 C 35.207031 94.925781 35.300781 94.945312 36.039062 94.945312 C 36.800781 94.945312 36.863281 94.957031 36.863281 95.136719 C 36.863281 95.316406 36.929688 95.328125 37.921875 95.328125 L 38.976562 95.328125 L 38.976562 95.808594 L 40.222656 95.808594 C 40.992188 95.808594 41.472656 95.84375 41.472656 95.902344 C 41.472656 95.96875 43.710938 96 48 96 C 52.152344 96 54.527344 95.964844 54.527344 95.90625 C 54.527344 95.851562 55.042969 95.800781 55.753906 95.785156 C 56.9375 95.761719 56.976562 95.753906 57.007812 95.542969 C 57.035156 95.335938 57.070312 95.328125 58.085938 95.328125 C 59.070312 95.328125 59.136719 95.316406 59.136719 95.136719 C 59.136719 94.957031 59.199219 94.945312 59.960938 94.945312 C 60.707031 94.945312 60.789062 94.925781 60.835938 94.753906 C 60.878906 94.589844 60.96875 94.558594 61.390625 94.558594 C 62.164062 94.558594 62.496094 94.46875 62.496094 94.261719 C 62.496094 94.101562 62.574219 94.078125 63.121094 94.078125 C 63.679688 94.078125 63.742188 94.058594 63.742188 93.886719 C 63.742188 93.71875 63.808594 93.695312 64.324219 93.695312 C 64.851562 93.695312 64.910156 93.675781 64.992188 93.457031 C 65.070312 93.253906 65.144531 93.214844 65.46875 93.214844 C 65.792969 93.214844 65.855469 93.183594 65.855469 93.023438 C 65.855469 92.851562 65.921875 92.832031 66.441406 92.832031 C 66.945312 92.832031 67.03125 92.804688 67.074219 92.640625 C 67.105469 92.523438 67.207031 92.449219 67.332031 92.445312 C 67.726562 92.445312 67.96875 92.332031 67.96875 92.148438 C 67.96875 92 68.039062 91.96875 68.398438 91.96875 C 68.769531 91.96875 68.832031 91.9375 68.832031 91.777344 C 68.832031 91.613281 68.894531 91.585938 69.265625 91.585938 C 69.628906 91.585938 69.695312 91.554688 69.695312 91.398438 C 69.695312 91.246094 69.773438 91.207031 70.105469 91.179688 C 70.441406 91.15625 70.515625 91.117188 70.542969 90.9375 C 70.570312 90.753906 70.632812 90.71875 70.949219 90.71875 C 71.265625 90.71875 71.328125 90.6875 71.328125 90.527344 C 71.328125 90.378906 71.390625 90.335938 71.609375 90.335938 C 72.011719 90.335938 72.191406 90.246094 72.191406 90.039062 C 72.191406 89.90625 72.261719 89.855469 72.433594 89.855469 C 72.609375 89.855469 72.671875 89.804688 72.671875 89.664062 C 72.671875 89.503906 72.734375 89.472656 73.054688 89.472656 C 73.367188 89.472656 73.441406 89.4375 73.441406 89.289062 C 73.441406 89.148438 73.535156 89.09375 73.871094 89.046875 C 74.214844 88.992188 74.304688 88.941406 74.304688 88.792969 C 74.304688 88.660156 74.371094 88.609375 74.542969 88.609375 C 74.71875 88.609375 74.785156 88.554688 74.785156 88.421875 C 74.785156 88.277344 74.863281 88.230469 75.144531 88.207031 C 75.433594 88.183594 75.511719 88.132812 75.535156 87.960938 C 75.558594 87.804688 75.628906 87.742188 75.796875 87.742188 C 75.96875 87.742188 76.03125 87.691406 76.03125 87.550781 C 76.03125 87.394531 76.097656 87.359375 76.375 87.359375 C 76.636719 87.359375 76.734375 87.3125 76.769531 87.175781 C 76.796875 87.074219 76.921875 86.964844 77.050781 86.933594 C 77.195312 86.898438 77.28125 86.808594 77.28125 86.6875 C 77.28125 86.558594 77.34375 86.496094 77.472656 86.496094 C 77.601562 86.496094 77.664062 86.433594 77.664062 86.304688 C 77.664062 86.164062 77.726562 86.113281 77.902344 86.113281 C 78.078125 86.113281 78.144531 86.0625 78.144531 85.921875 C 78.144531 85.78125 78.207031 85.726562 78.375 85.726562 C 78.734375 85.726562 78.910156 85.628906 78.910156 85.429688 C 78.910156 85.308594 78.980469 85.246094 79.113281 85.246094 C 79.234375 85.246094 79.335938 85.171875 79.363281 85.054688 C 79.390625 84.949219 79.496094 84.863281 79.59375 84.863281 C 79.722656 84.863281 79.777344 84.796875 79.777344 84.625 C 79.777344 84.433594 79.824219 84.382812 80.015625 84.382812 C 80.191406 84.382812 80.257812 84.332031 80.257812 84.191406 C 80.257812 84.0625 80.320312 84 80.449219 84 C 80.574219 84 80.640625 83.9375 80.640625 83.808594 C 80.640625 83.679688 80.703125 83.617188 80.832031 83.617188 C 80.972656 83.617188 81.023438 83.550781 81.023438 83.375 C 81.023438 83.183594 81.070312 83.136719 81.265625 83.136719 C 81.441406 83.136719 81.503906 83.085938 81.503906 82.945312 C 81.503906 82.816406 81.566406 82.753906 81.695312 82.753906 C 81.835938 82.753906 81.886719 82.6875 81.886719 82.511719 C 81.886719 82.335938 81.9375 82.273438 82.078125 82.273438 C 82.207031 82.273438 82.273438 82.207031 82.273438 82.078125 C 82.273438 81.9375 82.335938 81.886719 82.511719 81.886719 C 82.6875 81.886719 82.753906 81.835938 82.753906 81.695312 C 82.753906 81.566406 82.816406 81.503906 82.945312 81.503906 C 83.085938 81.503906 83.136719 81.441406 83.136719 81.265625 C 83.136719 81.070312 83.183594 81.023438 83.375 81.023438 C 83.550781 81.023438 83.617188 80.972656 83.617188 80.832031 C 83.617188 80.703125 83.679688 80.640625 83.808594 80.640625 C 83.9375 80.640625 84 80.574219 84 80.449219 C 84 80.320312 84.0625 80.257812 84.191406 80.257812 C 84.332031 80.257812 84.382812 80.191406 84.382812 80.015625 C 84.382812 79.824219 84.433594 79.777344 84.625 79.777344 C 84.796875 79.777344 84.863281 79.722656 84.863281 79.59375 C 84.863281 79.496094 84.949219 79.390625 85.054688 79.363281 C 85.171875 79.335938 85.246094 79.234375 85.246094 79.113281 C 85.246094 78.980469 85.308594 78.910156 85.429688 78.910156 C 85.628906 78.910156 85.726562 78.734375 85.726562 78.375 C 85.726562 78.207031 85.78125 78.144531 85.921875 78.144531 C 86.0625 78.144531 86.113281 78.078125 86.113281 77.902344 C 86.113281 77.726562 86.164062 77.664062 86.304688 77.664062 C 86.433594 77.664062 86.496094 77.601562 86.496094 77.472656 C 86.496094 77.34375 86.558594 77.28125 86.6875 77.28125 C 86.808594 77.28125 86.898438 77.195312 86.933594 77.050781 C 86.964844 76.921875 87.074219 76.796875 87.175781 76.769531 C 87.3125 76.734375 87.359375 76.636719 87.359375 76.375 C 87.359375 76.097656 87.394531 76.03125 87.550781 76.03125 C 87.691406 76.03125 87.742188 75.96875 87.742188 75.796875 C 87.742188 75.628906 87.804688 75.558594 87.960938 75.535156 C 88.132812 75.511719 88.183594 75.433594 88.207031 75.144531 C 88.230469 74.863281 88.277344 74.785156 88.421875 74.785156 C 88.554688 74.785156 88.609375 74.71875 88.609375 74.542969 C 88.609375 74.371094 88.660156 74.304688 88.789062 74.304688 C 88.996094 74.304688 89.089844 74.125 89.089844 73.71875 C 89.089844 73.503906 89.132812 73.441406 89.28125 73.441406 C 89.441406 73.441406 89.472656 73.375 89.472656 73.054688 C 89.472656 72.734375 89.503906 72.671875 89.664062 72.671875 C 89.804688 72.671875 89.855469 72.609375 89.855469 72.4375 C 89.855469 72.269531 89.914062 72.195312 90.070312 72.175781 C 90.25 72.148438 90.292969 72.074219 90.316406 71.734375 C 90.339844 71.40625 90.382812 71.328125 90.535156 71.328125 C 90.683594 71.328125 90.71875 71.261719 90.71875 70.96875 C 90.71875 70.683594 90.765625 70.585938 90.9375 70.511719 C 91.09375 70.441406 91.160156 70.320312 91.183594 70.054688 C 91.203125 69.773438 91.25 69.695312 91.398438 69.695312 C 91.554688 69.695312 91.585938 69.628906 91.585938 69.265625 C 91.585938 68.894531 91.613281 68.832031 91.777344 68.832031 C 91.9375 68.832031 91.96875 68.769531 91.96875 68.40625 C 91.96875 68.039062 91.996094 67.976562 92.183594 67.949219 C 92.363281 67.925781 92.40625 67.851562 92.429688 67.523438 C 92.449219 67.222656 92.503906 67.113281 92.644531 67.074219 C 92.804688 67.03125 92.832031 66.941406 92.832031 66.441406 C 92.832031 65.921875 92.851562 65.855469 93.023438 65.855469 C 93.195312 65.855469 93.214844 65.792969 93.214844 65.230469 C 93.214844 64.628906 93.226562 64.609375 93.457031 64.609375 C 93.675781 64.609375 93.695312 64.574219 93.695312 64.175781 C 93.695312 63.808594 93.722656 63.742188 93.886719 63.742188 C 94.066406 63.742188 94.078125 63.679688 94.078125 62.933594 C 94.078125 62.167969 94.089844 62.125 94.296875 62.09375 C 94.488281 62.066406 94.515625 62.003906 94.539062 61.472656 C 94.5625 60.984375 94.601562 60.875 94.757812 60.835938 C 94.925781 60.792969 94.945312 60.699219 94.945312 59.960938 C 94.945312 59.199219 94.957031 59.136719 95.136719 59.136719 C 95.316406 59.136719 95.328125 59.070312 95.328125 58.078125 L 95.328125 57.023438 L 95.808594 57.023438 L 95.808594 55.777344 C 95.808594 55.007812 95.84375 54.527344 95.902344 54.527344 C 95.96875 54.527344 96 52.289062 96 48 C 96 43.847656 95.964844 41.472656 95.90625 41.472656 C 95.851562 41.472656 95.800781 40.957031 95.785156 40.246094 C 95.761719 39.0625 95.753906 39.023438 95.542969 38.992188 C 95.335938 38.964844 95.328125 38.929688 95.328125 37.914062 C 95.328125 36.929688 95.316406 36.863281 95.136719 36.863281 C 94.957031 36.863281 94.945312 36.800781 94.945312 36.039062 C 94.945312 35.292969 94.925781 35.210938 94.753906 35.164062 C 94.589844 35.121094 94.558594 35.03125 94.558594 34.609375 C 94.558594 33.835938 94.46875 33.503906 94.261719 33.503906 C 94.101562 33.503906 94.078125 33.425781 94.078125 32.878906 C 94.078125 32.324219 94.058594 32.257812 93.890625 32.257812 C 93.730469 32.257812 93.703125 32.175781 93.675781 31.65625 C 93.652344 31.117188 93.625 31.054688 93.433594 31.023438 C 93.246094 31 93.214844 30.9375 93.214844 30.570312 C 93.214844 30.207031 93.1875 30.144531 93.023438 30.144531 C 92.851562 30.144531 92.832031 30.078125 92.832031 29.558594 C 92.832031 29.054688 92.804688 28.96875 92.640625 28.925781 C 92.523438 28.894531 92.449219 28.792969 92.445312 28.667969 C 92.445312 28.273438 92.332031 28.03125 92.148438 28.03125 C 92 28.03125 91.96875 27.960938 91.96875 27.601562 C 91.96875 27.230469 91.9375 27.167969 91.777344 27.167969 C 91.613281 27.167969 91.585938 27.105469 91.585938 26.734375 C 91.585938 26.371094 91.554688 26.304688 91.398438 26.304688 C 91.246094 26.304688 91.207031 26.226562 91.179688 25.894531 C 91.15625 25.558594 91.117188 25.484375 90.9375 25.457031 C 90.753906 25.429688 90.71875 25.367188 90.71875 25.050781 C 90.71875 24.734375 90.6875 24.671875 90.527344 24.671875 C 90.378906 24.671875 90.335938 24.609375 90.335938 24.390625 C 90.335938 23.988281 90.246094 23.808594 90.039062 23.808594 C 89.917969 23.808594 89.855469 23.742188 89.855469 23.605469 C 89.855469 23.488281 89.777344 23.386719 89.664062 23.355469 C 89.511719 23.316406 89.472656 23.226562 89.472656 22.933594 C 89.472656 22.632812 89.4375 22.558594 89.289062 22.558594 C 89.148438 22.558594 89.09375 22.464844 89.046875 22.128906 C 88.992188 21.785156 88.941406 21.695312 88.792969 21.695312 C 88.671875 21.695312 88.609375 21.628906 88.609375 21.503906 C 88.609375 21.378906 88.542969 21.3125 88.421875 21.3125 C 88.269531 21.3125 88.230469 21.234375 88.207031 20.902344 C 88.179688 20.566406 88.140625 20.492188 87.960938 20.464844 C 87.804688 20.441406 87.742188 20.371094 87.742188 20.203125 C 87.742188 20.03125 87.691406 19.96875 87.550781 19.96875 C 87.394531 19.96875 87.359375 19.902344 87.359375 19.625 C 87.359375 19.363281 87.3125 19.265625 87.175781 19.230469 C 87.074219 19.203125 86.964844 19.078125 86.933594 18.949219 C 86.898438 18.804688 86.808594 18.71875 86.6875 18.71875 C 86.558594 18.71875 86.496094 18.65625 86.496094 18.527344 C 86.496094 18.398438 86.433594 18.335938 86.304688 18.335938 C 86.171875 18.335938 86.113281 18.273438 86.113281 18.136719 C 86.113281 18.015625 86.035156 17.914062 85.921875 17.882812 C 85.796875 17.851562 85.726562 17.753906 85.726562 17.613281 C 85.726562 17.265625 85.628906 17.089844 85.429688 17.089844 C 85.308594 17.089844 85.246094 17.019531 85.246094 16.886719 C 85.246094 16.765625 85.171875 16.664062 85.054688 16.636719 C 84.949219 16.609375 84.863281 16.503906 84.863281 16.40625 C 84.863281 16.277344 84.796875 16.222656 84.625 16.222656 C 84.449219 16.222656 84.382812 16.171875 84.382812 16.039062 C 84.382812 15.9375 84.296875 15.824219 84.191406 15.792969 C 84.085938 15.757812 84 15.648438 84 15.546875 C 84 15.425781 83.933594 15.359375 83.808594 15.359375 C 83.679688 15.359375 83.617188 15.296875 83.617188 15.167969 C 83.617188 15.027344 83.550781 14.976562 83.375 14.976562 C 83.183594 14.976562 83.136719 14.929688 83.136719 14.734375 C 83.136719 14.558594 83.085938 14.496094 82.945312 14.496094 C 82.816406 14.496094 82.753906 14.433594 82.753906 14.304688 C 82.753906 14.164062 82.6875 14.113281 82.511719 14.113281 C 82.335938 14.113281 82.273438 14.0625 82.273438 13.921875 C 82.273438 13.792969 82.207031 13.726562 82.078125 13.726562 C 81.9375 13.726562 81.886719 13.664062 81.886719 13.488281 C 81.886719 13.3125 81.835938 13.246094 81.695312 13.246094 C 81.566406 13.246094 81.503906 13.183594 81.503906 13.054688 C 81.503906 12.914062 81.441406 12.863281 81.265625 12.863281 C 81.070312 12.863281 81.023438 12.816406 81.023438 12.625 C 81.023438 12.449219 80.972656 12.382812 80.832031 12.382812 C 80.703125 12.382812 80.640625 12.320312 80.640625 12.191406 C 80.640625 12.0625 80.574219 12 80.449219 12 C 80.320312 12 80.257812 11.9375 80.257812 11.808594 C 80.257812 11.667969 80.191406 11.617188 80.015625 11.617188 C 79.824219 11.617188 79.777344 11.566406 79.777344 11.375 C 79.777344 11.203125 79.722656 11.136719 79.59375 11.136719 C 79.496094 11.136719 79.390625 11.050781 79.363281 10.945312 C 79.335938 10.828125 79.234375 10.753906 79.113281 10.753906 C 78.980469 10.753906 78.910156 10.691406 78.910156 10.570312 C 78.910156 10.429688 78.820312 10.371094 78.539062 10.320312 C 78.28125 10.277344 78.148438 10.199219 78.113281 10.074219 C 78.085938 9.964844 77.984375 9.886719 77.863281 9.886719 C 77.726562 9.886719 77.664062 9.828125 77.664062 9.695312 C 77.664062 9.566406 77.601562 9.503906 77.472656 9.503906 C 77.34375 9.503906 77.28125 9.441406 77.28125 9.3125 C 77.28125 9.191406 77.195312 9.101562 77.050781 9.066406 C 76.921875 9.035156 76.796875 8.925781 76.769531 8.824219 C 76.734375 8.6875 76.636719 8.640625 76.375 8.640625 C 76.097656 8.640625 76.03125 8.605469 76.03125 8.449219 C 76.03125 8.308594 75.96875 8.257812 75.796875 8.257812 C 75.628906 8.257812 75.558594 8.195312 75.535156 8.039062 C 75.511719 7.867188 75.433594 7.816406 75.152344 7.792969 C 74.902344 7.773438 74.789062 7.710938 74.753906 7.578125 C 74.726562 7.46875 74.625 7.390625 74.503906 7.390625 C 74.371094 7.390625 74.304688 7.332031 74.304688 7.210938 C 74.304688 7.003906 74.125 6.910156 73.71875 6.910156 C 73.503906 6.910156 73.441406 6.867188 73.441406 6.71875 C 73.441406 6.558594 73.375 6.527344 73.054688 6.527344 C 72.734375 6.527344 72.671875 6.496094 72.671875 6.335938 C 72.671875 6.195312 72.609375 6.144531 72.4375 6.144531 C 72.269531 6.144531 72.195312 6.085938 72.175781 5.929688 C 72.148438 5.75 72.074219 5.707031 71.734375 5.683594 C 71.40625 5.660156 71.328125 5.617188 71.328125 5.464844 C 71.328125 5.3125 71.261719 5.28125 70.949219 5.28125 C 70.664062 5.28125 70.558594 5.234375 70.515625 5.09375 C 70.476562 4.972656 70.332031 4.890625 70.074219 4.847656 C 69.789062 4.796875 69.695312 4.738281 69.695312 4.597656 C 69.695312 4.445312 69.625 4.414062 69.265625 4.414062 C 68.894531 4.414062 68.832031 4.386719 68.832031 4.222656 C 68.832031 4.0625 68.769531 4.03125 68.40625 4.03125 C 68.039062 4.03125 67.976562 4.003906 67.949219 3.816406 C 67.925781 3.636719 67.851562 3.59375 67.523438 3.570312 C 67.222656 3.550781 67.113281 3.496094 67.074219 3.355469 C 67.03125 3.195312 66.941406 3.167969 66.441406 3.167969 C 65.921875 3.167969 65.855469 3.148438 65.855469 2.976562 C 65.855469 2.804688 65.792969 2.785156 65.230469 2.785156 C 64.628906 2.785156 64.609375 2.773438 64.609375 2.542969 C 64.609375 2.324219 64.574219 2.304688 64.175781 2.304688 C 63.808594 2.304688 63.742188 2.277344 63.742188 2.113281 C 63.742188 1.933594 63.679688 1.921875 62.933594 1.921875 C 62.167969 1.921875 62.125 1.910156 62.09375 1.703125 C 62.066406 1.511719 62.003906 1.484375 61.472656 1.460938 C 60.984375 1.4375 60.875 1.398438 60.835938 1.242188 C 60.792969 1.074219 60.699219 1.054688 59.960938 1.054688 C 59.199219 1.054688 59.136719 1.042969 59.136719 0.863281 C 59.136719 0.683594 59.070312 0.671875 58.078125 0.671875 L 57.023438 0.671875 L 57.023438 0.191406 L 55.777344 0.191406 C 55.007812 0.191406 54.527344 0.15625 54.527344 0.0976562 C 54.527344 0.03125 52.289062 0 48 0 C 43.847656 0 41.472656 0.0351562 41.472656 0.09375 M 57.550781 21.019531 C 58.34375 21.074219 59.683594 21.160156 60.527344 21.210938 C 64.375 21.4375 65.988281 21.601562 66.382812 21.804688 C 67.765625 22.511719 68.515625 24.28125 67.992188 25.585938 C 67.886719 25.847656 67.679688 26.386719 67.535156 26.785156 C 67.386719 27.179688 67.1875 27.679688 67.089844 27.894531 C 66.992188 28.109375 66.910156 28.355469 66.910156 28.445312 C 66.910156 28.53125 66.824219 28.746094 66.71875 28.917969 C 66.613281 29.089844 66.527344 29.292969 66.527344 29.371094 C 66.527344 29.445312 66.445312 29.683594 66.34375 29.898438 C 66.242188 30.113281 66.117188 30.4375 66.0625 30.625 C 65.949219 31.03125 65.597656 31.914062 65.394531 32.296875 C 65.160156 32.746094 65.1875 33.683594 65.449219 34.046875 C 65.566406 34.214844 65.664062 34.414062 65.664062 34.492188 C 65.664062 34.570312 65.730469 34.6875 65.8125 34.757812 C 65.894531 34.824219 66.027344 35.015625 66.105469 35.175781 C 66.359375 35.707031 66.550781 36.046875 66.683594 36.195312 C 66.753906 36.277344 66.96875 36.644531 67.160156 37.011719 C 67.355469 37.378906 67.625 37.851562 67.765625 38.0625 C 67.902344 38.273438 68.101562 38.609375 68.207031 38.808594 C 68.308594 39.007812 68.425781 39.167969 68.460938 39.167969 C 68.5 39.167969 68.558594 39.296875 68.589844 39.453125 C 68.625 39.613281 68.695312 39.765625 68.746094 39.796875 C 68.792969 39.828125 68.921875 40.011719 69.027344 40.207031 C 69.136719 40.402344 69.328125 40.734375 69.457031 40.945312 C 69.585938 41.15625 69.757812 41.457031 69.839844 41.617188 C 69.921875 41.773438 70.117188 42.097656 70.273438 42.335938 C 70.429688 42.574219 70.628906 42.917969 70.714844 43.105469 C 70.800781 43.289062 70.898438 43.460938 70.933594 43.488281 C 70.96875 43.515625 71.050781 43.644531 71.113281 43.777344 C 71.179688 43.90625 71.351562 44.21875 71.496094 44.464844 C 71.640625 44.710938 71.953125 45.246094 72.191406 45.652344 C 72.429688 46.058594 72.71875 46.546875 72.832031 46.738281 C 73.6875 48.179688 74.109375 49.683594 73.921875 50.648438 C 73.863281 50.960938 73.75 51.605469 73.671875 52.078125 C 73.59375 52.554688 73.472656 53.136719 73.398438 53.375 C 73.324219 53.613281 73.238281 54.078125 73.210938 54.414062 C 73.179688 54.746094 73.109375 55.101562 73.054688 55.203125 C 73 55.304688 72.894531 55.796875 72.820312 56.296875 C 72.6875 57.167969 72.453125 58.058594 72.273438 58.367188 C 72.226562 58.445312 72.125 58.648438 72.046875 58.816406 C 71.492188 60.023438 70.03125 61.292969 68.980469 61.484375 C 68.769531 61.519531 68.480469 61.613281 68.335938 61.6875 C 68.191406 61.761719 67.941406 61.824219 67.78125 61.824219 C 67.621094 61.824219 66.980469 61.929688 66.359375 62.054688 C 65.738281 62.183594 64.953125 62.332031 64.609375 62.386719 C 63.128906 62.621094 62.304688 62.980469 62.304688 63.382812 C 62.304688 63.429688 62.195312 63.609375 62.0625 63.785156 C 61.933594 63.957031 61.824219 64.128906 61.824219 64.164062 C 61.824219 64.542969 59.160156 66.960938 57.898438 67.726562 C 57.8125 67.78125 57.605469 67.921875 57.4375 68.039062 C 57.273438 68.160156 57.113281 68.257812 57.085938 68.257812 C 57.054688 68.257812 56.78125 68.421875 56.476562 68.625 C 55.605469 69.203125 55.386719 69.332031 54.71875 69.679688 C 54.375 69.855469 54.027344 70.0625 53.945312 70.136719 C 53.859375 70.210938 53.742188 70.273438 53.679688 70.273438 C 53.617188 70.273438 53.363281 70.375 53.113281 70.503906 C 52.691406 70.714844 52.375 70.863281 51.15625 71.414062 C 50.914062 71.527344 50.652344 71.617188 50.578125 71.617188 C 50.5 71.617188 50.398438 71.65625 50.347656 71.703125 C 50.175781 71.863281 47.875 72.574219 46.03125 73.03125 C 45.609375 73.136719 44.960938 73.300781 44.59375 73.390625 C 43.386719 73.691406 42.394531 73.929688 41.902344 74.03125 C 41.640625 74.089844 41.230469 74.1875 40.992188 74.257812 C 40.753906 74.324219 40.324219 74.429688 40.03125 74.492188 C 39.742188 74.554688 39.308594 74.660156 39.070312 74.734375 C 38.835938 74.804688 38.378906 74.914062 38.0625 74.972656 C 37.746094 75.035156 37.292969 75.144531 37.054688 75.214844 C 36.820312 75.285156 36.453125 75.371094 36.238281 75.40625 C 36.027344 75.441406 35.660156 75.539062 35.425781 75.621094 C 34.722656 75.871094 32.914062 75.839844 32.316406 75.570312 C 32.058594 75.453125 31.808594 75.359375 31.757812 75.359375 C 31.449219 75.359375 29.867188 73.890625 29.859375 73.589844 C 29.855469 73.542969 29.785156 73.425781 29.699219 73.328125 C 29.53125 73.144531 29.265625 72.472656 29.035156 71.664062 C 28.570312 70.007812 28.378906 69.375 28.082031 68.496094 C 27.992188 68.230469 27.859375 67.753906 27.785156 67.433594 C 27.710938 67.109375 27.585938 66.722656 27.507812 66.566406 C 27.425781 66.414062 27.359375 66.179688 27.359375 66.046875 C 27.359375 65.914062 27.257812 65.503906 27.132812 65.136719 C 27.003906 64.765625 26.804688 64.140625 26.6875 63.742188 C 26.574219 63.347656 26.398438 62.765625 26.300781 62.449219 C 26.085938 61.761719 25.828125 60.8125 25.765625 60.480469 C 25.742188 60.347656 25.617188 59.765625 25.488281 59.183594 C 25.363281 58.601562 25.214844 57.804688 25.160156 57.40625 C 25.105469 57.011719 25.015625 56.449219 24.964844 56.160156 C 24.800781 55.28125 24.550781 50.886719 24.613281 50.015625 C 24.644531 49.566406 24.714844 48.492188 24.769531 47.628906 C 24.828125 46.679688 24.921875 45.933594 25.003906 45.753906 C 25.078125 45.589844 25.1875 45.207031 25.246094 44.90625 C 25.308594 44.601562 25.398438 44.332031 25.445312 44.300781 C 25.496094 44.269531 25.585938 44.054688 25.644531 43.820312 C 25.703125 43.589844 25.808594 43.347656 25.882812 43.289062 C 25.957031 43.226562 26.015625 43.128906 26.015625 43.070312 C 26.015625 43.011719 26.132812 42.734375 26.273438 42.453125 C 26.550781 41.90625 26.546875 41.859375 26.207031 40.894531 C 26.140625 40.710938 25.980469 40.257812 25.851562 39.886719 C 25.71875 39.519531 25.53125 39.03125 25.429688 38.804688 C 25.332031 38.578125 25.246094 38.328125 25.246094 38.25 C 25.246094 38.167969 25.167969 37.921875 25.066406 37.699219 C 24.96875 37.476562 24.855469 37.144531 24.816406 36.960938 C 24.777344 36.773438 24.675781 36.496094 24.589844 36.335938 C 24.355469 35.902344 24.363281 33.648438 24.601562 33.316406 C 24.691406 33.183594 24.769531 33.007812 24.769531 32.921875 C 24.769531 32.371094 25.796875 30.992188 26.878906 30.09375 C 27.117188 29.898438 27.558594 29.515625 27.859375 29.246094 C 28.15625 28.972656 28.757812 28.449219 29.191406 28.078125 C 29.625 27.710938 30.308594 27.117188 30.710938 26.765625 C 31.171875 26.355469 31.773438 25.953125 32.351562 25.660156 L 33.265625 25.199219 L 42.011719 25.234375 L 50.761719 25.269531 L 51.101562 24.800781 C 51.289062 24.546875 51.503906 24.269531 51.574219 24.1875 C 51.648438 24.105469 51.941406 23.695312 52.226562 23.273438 C 53.527344 21.367188 54.449219 20.734375 55.726562 20.875 C 55.9375 20.898438 56.761719 20.964844 57.550781 21.019531 M 56.183594 25.585938 C 56.066406 25.667969 55.96875 25.796875 55.96875 25.867188 C 55.96875 25.9375 55.90625 26.019531 55.832031 26.046875 C 55.757812 26.078125 55.535156 26.386719 55.339844 26.738281 C 55.144531 27.089844 54.921875 27.398438 54.851562 27.425781 C 54.777344 27.453125 54.71875 27.519531 54.71875 27.570312 C 54.71875 27.667969 54.46875 28.015625 54.070312 28.480469 C 53.953125 28.617188 53.855469 28.761719 53.855469 28.796875 C 53.855469 28.9375 52.917969 29.460938 52.367188 29.628906 C 51.726562 29.828125 51.304688 29.828125 40.355469 29.703125 C 34.546875 29.636719 34.519531 29.636719 33.921875 30.132812 C 32.972656 30.917969 32.65625 31.195312 32.242188 31.585938 C 31.988281 31.820312 31.679688 32.101562 31.554688 32.207031 C 29.144531 34.214844 28.785156 34.722656 29.234375 35.503906 C 29.398438 35.792969 29.703125 36.652344 29.921875 37.441406 C 30.003906 37.730469 30.128906 38.054688 30.203125 38.15625 C 30.277344 38.261719 30.335938 38.429688 30.335938 38.53125 C 30.335938 38.632812 30.417969 38.890625 30.515625 39.109375 C 30.734375 39.59375 30.992188 40.320312 31.15625 40.914062 C 31.226562 41.160156 31.328125 41.449219 31.382812 41.554688 C 31.652344 42.054688 31.410156 43.257812 30.933594 43.800781 C 30.648438 44.125 29.855469 45.6875 29.855469 45.925781 C 29.855469 46.015625 29.792969 46.183594 29.71875 46.300781 C 29.589844 46.503906 29.46875 47.632812 29.328125 49.96875 C 29.25 51.226562 29.523438 55.265625 29.765625 56.464844 C 29.867188 56.976562 29.953125 57.523438 29.953125 57.679688 C 29.953125 57.832031 30.019531 58.148438 30.105469 58.378906 C 30.1875 58.609375 30.296875 59.078125 30.34375 59.417969 C 30.394531 59.753906 30.476562 60.082031 30.523438 60.140625 C 30.574219 60.199219 30.683594 60.5625 30.773438 60.953125 C 30.863281 61.34375 30.992188 61.804688 31.066406 61.980469 C 31.140625 62.15625 31.199219 62.394531 31.199219 62.515625 C 31.199219 62.636719 31.269531 62.867188 31.351562 63.023438 C 31.433594 63.183594 31.546875 63.546875 31.601562 63.839844 C 31.652344 64.128906 31.753906 64.472656 31.824219 64.609375 C 31.894531 64.746094 31.980469 65.027344 32.015625 65.234375 C 32.050781 65.445312 32.160156 65.832031 32.253906 66.097656 C 32.472656 66.707031 32.804688 67.808594 32.921875 68.304688 C 33.109375 69.097656 33.425781 70.128906 33.507812 70.230469 C 33.558594 70.289062 33.632812 70.503906 33.675781 70.710938 C 33.773438 71.1875 34.003906 71.230469 35.03125 70.960938 C 35.433594 70.855469 35.953125 70.71875 36.191406 70.664062 C 37.851562 70.261719 38.820312 70.039062 39.371094 69.9375 C 39.71875 69.875 40.050781 69.792969 40.105469 69.757812 C 40.164062 69.722656 40.589844 69.609375 41.054688 69.507812 C 41.523438 69.40625 42.097656 69.273438 42.335938 69.210938 C 43.859375 68.824219 44.375 68.703125 44.929688 68.589844 C 47.339844 68.101562 50.769531 66.773438 53.039062 65.441406 C 53.144531 65.382812 53.511719 65.152344 53.855469 64.933594 C 54.199219 64.714844 54.695312 64.402344 54.960938 64.238281 C 55.222656 64.074219 55.484375 63.902344 55.542969 63.855469 C 55.597656 63.808594 55.75 63.714844 55.878906 63.648438 C 56.8125 63.15625 58.179688 61.660156 58.792969 60.460938 C 59.5 59.078125 59.972656 58.644531 60.910156 58.515625 C 61.175781 58.480469 61.578125 58.386719 61.804688 58.3125 C 62.03125 58.238281 62.390625 58.175781 62.605469 58.175781 C 62.820312 58.175781 63.347656 58.089844 63.777344 57.988281 C 64.207031 57.882812 64.941406 57.753906 65.410156 57.703125 C 65.878906 57.648438 66.308594 57.566406 66.371094 57.519531 C 66.429688 57.472656 66.695312 57.402344 66.960938 57.367188 C 67.222656 57.332031 67.511719 57.28125 67.597656 57.253906 C 67.871094 57.175781 68.234375 56.523438 68.304688 55.976562 C 68.34375 55.691406 68.433594 55.316406 68.507812 55.140625 C 68.582031 54.964844 68.640625 54.683594 68.640625 54.515625 C 68.640625 54.347656 68.746094 53.75 68.871094 53.191406 C 69 52.632812 69.148438 51.917969 69.199219 51.601562 C 69.253906 51.28125 69.347656 50.808594 69.410156 50.550781 C 69.515625 50.121094 69.507812 50.035156 69.328125 49.683594 C 69.222656 49.472656 69.105469 49.230469 69.078125 49.152344 C 69.046875 49.074219 68.890625 48.8125 68.734375 48.574219 C 68.578125 48.339844 68.382812 48.015625 68.300781 47.855469 C 68.21875 47.699219 67.9375 47.222656 67.675781 46.800781 C 67.414062 46.378906 67.113281 45.859375 67.003906 45.648438 C 66.894531 45.4375 66.703125 45.089844 66.574219 44.878906 C 66.445312 44.667969 66.277344 44.359375 66.195312 44.191406 C 66.117188 44.023438 66.003906 43.855469 65.945312 43.820312 C 65.882812 43.78125 65.773438 43.617188 65.695312 43.453125 C 65.617188 43.289062 65.449219 42.980469 65.320312 42.769531 C 65.195312 42.558594 65.011719 42.234375 64.917969 42.046875 C 64.824219 41.863281 64.585938 41.460938 64.390625 41.15625 C 64.191406 40.855469 64.03125 40.566406 64.03125 40.515625 C 64.03125 40.46875 63.976562 40.371094 63.90625 40.304688 C 63.835938 40.234375 63.699219 40.023438 63.605469 39.839844 C 63.507812 39.65625 63.34375 39.34375 63.242188 39.148438 C 63.140625 38.957031 62.996094 38.746094 62.921875 38.683594 C 62.84375 38.621094 62.785156 38.523438 62.785156 38.46875 C 62.785156 38.417969 62.621094 38.128906 62.425781 37.832031 C 62.226562 37.539062 61.988281 37.144531 61.898438 36.960938 C 61.726562 36.609375 61.609375 36.414062 61.328125 35.984375 C 61.234375 35.84375 61.132812 35.609375 61.09375 35.457031 C 61.058594 35.308594 60.945312 34.992188 60.839844 34.757812 C 60.597656 34.214844 60.628906 32.023438 60.886719 31.535156 C 61.105469 31.125 61.535156 29.972656 61.535156 29.808594 C 61.535156 29.730469 61.648438 29.417969 61.789062 29.113281 C 62.261719 28.066406 62.296875 27.984375 62.359375 27.695312 C 62.394531 27.539062 62.507812 27.269531 62.609375 27.097656 C 62.808594 26.769531 62.867188 26.0625 62.710938 25.90625 C 62.613281 25.808594 62.484375 25.796875 59.328125 25.632812 C 58.296875 25.578125 57.21875 25.511719 56.929688 25.480469 C 56.535156 25.445312 56.34375 25.46875 56.183594 25.585938 "/>
</g>
</svg>
