<svg id="svg" version="1.1" xmlns="http://www.w3.org/2000/svg" xmlns:xlink="http://www.w3.org/1999/xlink" width="400" height="400" viewBox="0, 0, 400,400"><g id="svgg"><path id="path0" d="M227.955 87.542 C 223.896 88.669,222.259 90.162,217.612 96.978 C 216.420 98.725,215.198 100.435,214.896 100.778 C 214.595 101.120,213.707 102.273,212.924 103.341 L 211.501 105.282 175.050 105.141 L 138.600 105.000 134.800 106.917 C 132.393 108.131,129.884 109.817,127.955 111.517 C 126.281 112.993,123.434 115.460,121.629 117.000 C 119.824 118.540,117.324 120.724,116.073 121.853 C 114.823 122.982,112.990 124.577,112.000 125.397 C 107.494 129.131,103.200 134.875,103.200 137.167 C 103.200 137.527,102.886 138.267,102.501 138.811 C 101.515 140.207,101.481 149.597,102.455 151.400 C 102.812 152.060,103.236 153.230,103.397 154.000 C 103.559 154.770,104.030 156.155,104.445 157.078 C 104.860 158.001,105.200 159.031,105.200 159.367 C 105.200 159.704,105.543 160.748,105.962 161.689 C 106.380 162.630,107.167 164.660,107.710 166.200 C 108.253 167.740,108.920 169.630,109.192 170.400 C 110.615 174.418,110.623 174.617,109.477 176.883 C 108.885 178.054,108.400 179.212,108.400 179.457 C 108.400 179.702,108.150 180.110,107.844 180.363 C 107.539 180.617,107.089 181.618,106.845 182.588 C 106.600 183.559,106.232 184.456,106.027 184.583 C 105.822 184.710,105.449 185.846,105.200 187.107 C 104.950 188.368,104.490 189.961,104.179 190.647 C 103.838 191.398,103.451 194.499,103.205 198.447 C 102.981 202.051,102.690 206.530,102.558 208.400 C 102.302 212.036,103.344 230.343,104.015 234.000 C 104.237 235.210,104.603 237.550,104.829 239.200 C 105.055 240.850,105.673 244.180,106.202 246.600 C 106.732 249.020,107.251 251.450,107.357 252.000 C 107.624 253.391,108.694 257.340,109.579 260.200 C 109.988 261.520,110.720 263.950,111.206 265.600 C 111.692 267.250,112.521 269.860,113.047 271.400 C 113.573 272.940,114.004 274.650,114.004 275.200 C 114.005 275.750,114.279 276.725,114.613 277.367 C 114.948 278.009,115.469 279.629,115.771 280.967 C 116.074 282.305,116.628 284.300,117.002 285.400 C 118.249 289.058,119.047 291.703,120.987 298.600 C 121.933 301.966,123.044 304.765,123.739 305.532 C 124.102 305.934,124.405 306.429,124.411 306.631 C 124.449 307.871,131.037 314.000,132.331 314.000 C 132.533 314.000,133.576 314.396,134.649 314.881 C 137.136 316.004,144.675 316.127,147.600 315.092 C 148.590 314.742,150.120 314.338,151.000 314.195 C 151.880 314.051,153.410 313.690,154.400 313.393 C 155.390 313.095,157.280 312.644,158.600 312.391 C 159.920 312.138,161.810 311.687,162.800 311.389 C 163.790 311.091,165.590 310.637,166.800 310.380 C 168.010 310.123,169.810 309.682,170.800 309.401 C 171.790 309.120,173.500 308.700,174.600 308.469 C 176.640 308.040,180.783 307.053,185.800 305.800 C 187.340 305.416,190.040 304.742,191.800 304.304 C 199.476 302.391,209.066 299.434,209.780 298.759 C 209.989 298.562,210.419 298.400,210.736 298.400 C 211.053 298.400,212.142 298.023,213.156 297.563 C 218.223 295.264,219.549 294.644,221.300 293.760 C 222.345 293.232,223.411 292.800,223.669 292.800 C 223.926 292.800,224.421 292.546,224.769 292.235 C 225.116 291.924,226.570 291.065,228.000 290.326 C 230.780 288.890,231.694 288.342,235.313 285.937 C 236.584 285.092,237.727 284.400,237.851 284.400 C 237.975 284.400,238.641 283.995,239.330 283.500 C 240.019 283.005,240.880 282.420,241.243 282.200 C 246.503 279.011,257.600 268.931,257.600 267.343 C 257.600 267.196,258.050 266.486,258.600 265.764 C 259.150 265.043,259.600 264.295,259.600 264.102 C 259.600 262.417,263.040 260.927,269.200 259.943 C 270.630 259.715,273.917 259.094,276.504 258.564 C 279.090 258.034,281.754 257.600,282.423 257.600 C 283.092 257.600,284.132 257.345,284.734 257.034 C 285.335 256.723,286.541 256.339,287.414 256.180 C 291.799 255.384,297.885 250.094,300.200 245.068 C 300.521 244.371,300.942 243.530,301.136 243.200 C 301.888 241.918,302.869 238.201,303.414 234.573 C 303.727 232.485,304.169 230.431,304.396 230.007 C 304.623 229.584,304.913 228.104,305.040 226.718 C 305.167 225.333,305.521 223.390,305.826 222.400 C 306.131 221.410,306.646 218.980,306.970 217.000 C 307.294 215.020,307.763 212.334,308.013 211.030 C 308.782 207.012,307.032 200.749,303.464 194.745 C 302.989 193.945,301.790 191.908,300.800 190.218 C 299.810 188.527,298.504 186.302,297.898 185.272 C 297.291 184.243,296.575 182.950,296.306 182.400 C 296.037 181.850,295.698 181.310,295.553 181.200 C 295.408 181.090,294.999 180.370,294.644 179.600 C 294.288 178.830,293.465 177.390,292.814 176.400 C 292.163 175.410,291.347 174.060,291.001 173.400 C 290.655 172.740,289.935 171.480,289.401 170.600 C 288.867 169.720,288.066 168.337,287.621 167.527 C 287.176 166.717,286.643 165.950,286.436 165.823 C 286.230 165.695,285.943 165.053,285.799 164.395 C 285.655 163.738,285.412 163.200,285.259 163.200 C 285.107 163.200,284.626 162.525,284.191 161.700 C 283.756 160.875,282.929 159.480,282.353 158.600 C 281.777 157.720,280.647 155.749,279.842 154.220 C 279.037 152.691,278.138 151.161,277.843 150.820 C 277.296 150.188,276.498 148.777,275.438 146.568 C 275.112 145.891,274.566 145.104,274.223 144.819 C 273.880 144.535,273.600 144.037,273.600 143.713 C 273.600 143.389,273.195 142.556,272.700 141.862 C 271.617 140.343,271.501 136.449,272.483 134.572 C 273.320 132.971,274.785 129.300,275.266 127.600 C 275.483 126.830,276.008 125.468,276.431 124.574 C 276.854 123.679,277.201 122.689,277.201 122.374 C 277.202 122.058,277.562 121.211,278.001 120.490 C 278.441 119.770,278.800 118.882,278.800 118.517 C 278.800 118.151,279.133 117.121,279.540 116.226 C 279.948 115.332,280.780 113.250,281.390 111.600 C 282.000 109.950,282.859 107.704,283.300 106.608 C 285.487 101.171,282.350 93.792,276.600 90.848 C 274.945 90.001,268.229 89.321,252.200 88.377 C 244.360 87.915,234.358 87.217,232.200 86.982 C 231.319 86.885,229.412 87.137,227.955 87.542 M247.200 106.799 C 260.353 107.490,260.894 107.534,261.301 107.941 C 261.954 108.594,261.702 111.538,260.876 112.912 C 260.451 113.621,259.983 114.740,259.838 115.400 C 259.573 116.597,259.431 116.947,257.449 121.309 C 256.872 122.579,256.400 123.880,256.400 124.201 C 256.400 124.891,254.598 129.686,253.695 131.400 C 252.625 133.430,252.494 142.562,253.503 144.825 C 253.938 145.801,254.416 147.113,254.565 147.740 C 254.714 148.367,255.150 149.357,255.534 149.940 C 256.713 151.730,257.190 152.545,257.909 154.000 C 258.290 154.770,259.276 156.409,260.101 157.641 C 260.925 158.874,261.600 160.067,261.600 160.292 C 261.600 160.518,261.857 160.915,262.170 161.175 C 262.484 161.436,263.087 162.313,263.511 163.124 C 263.934 163.936,264.612 165.230,265.017 166.000 C 265.421 166.770,265.988 167.638,266.276 167.929 C 266.564 168.219,266.800 168.621,266.800 168.821 C 266.800 169.021,267.472 170.223,268.294 171.492 C 269.116 172.762,270.107 174.430,270.496 175.200 C 270.886 175.970,271.642 177.320,272.175 178.200 C 272.709 179.080,273.409 180.363,273.732 181.051 C 274.054 181.739,274.519 182.427,274.765 182.579 C 275.011 182.730,275.486 183.427,275.820 184.127 C 276.155 184.827,276.862 186.120,277.392 187.000 C 277.922 187.880,278.727 189.320,279.180 190.200 C 279.634 191.080,280.896 193.240,281.985 195.000 C 283.073 196.760,284.242 198.740,284.583 199.400 C 284.924 200.060,285.739 201.410,286.395 202.400 C 287.050 203.390,287.692 204.470,287.819 204.800 C 287.947 205.130,288.422 206.130,288.875 207.022 C 289.614 208.479,289.649 208.846,289.214 210.622 C 288.948 211.710,288.551 213.680,288.332 215.000 C 288.113 216.320,287.498 219.305,286.967 221.632 C 286.435 223.960,286.000 226.441,286.000 227.145 C 286.000 227.849,285.751 229.022,285.446 229.752 C 285.141 230.481,284.765 232.050,284.609 233.239 C 284.313 235.510,282.802 238.232,281.654 238.565 C 281.294 238.669,280.100 238.877,279.000 239.028 C 277.900 239.178,276.794 239.464,276.543 239.664 C 276.292 239.863,274.492 240.207,272.543 240.428 C 270.594 240.648,267.535 241.182,265.745 241.614 C 263.955 242.047,261.757 242.400,260.859 242.400 C 259.962 242.400,258.457 242.657,257.514 242.971 C 256.571 243.285,254.900 243.665,253.800 243.815 C 249.888 244.351,247.923 246.155,244.974 251.921 C 242.419 256.917,236.714 263.151,232.825 265.196 C 232.289 265.478,231.659 265.869,231.425 266.065 C 231.191 266.261,230.100 266.979,229.000 267.662 C 227.900 268.344,225.830 269.647,224.400 270.556 C 216.381 275.656,206.471 280.213,197.000 283.154 C 192.085 284.681,190.239 285.177,187.200 285.790 C 184.888 286.256,182.748 286.771,176.400 288.387 C 175.410 288.639,173.010 289.193,171.067 289.619 C 169.123 290.045,167.343 290.512,167.110 290.656 C 166.876 290.800,165.496 291.138,164.043 291.408 C 161.755 291.833,157.720 292.753,150.800 294.429 C 149.810 294.668,147.632 295.225,145.961 295.665 C 141.685 296.791,140.717 296.614,140.308 294.631 C 140.130 293.769,139.820 292.865,139.619 292.622 C 139.266 292.198,137.961 287.903,137.180 284.600 C 136.692 282.532,135.300 277.948,134.387 275.400 C 133.993 274.300,133.549 272.686,133.401 271.814 C 133.253 270.941,132.894 269.768,132.603 269.206 C 132.312 268.644,131.891 267.197,131.668 265.992 C 131.444 264.786,130.978 263.260,130.633 262.600 C 130.287 261.940,130.004 260.989,130.002 260.487 C 130.001 259.985,129.751 258.978,129.446 258.248 C 129.141 257.519,128.590 255.595,128.221 253.972 C 127.852 252.349,127.385 250.823,127.183 250.580 C 126.981 250.336,126.647 248.982,126.440 247.569 C 126.233 246.156,125.779 244.212,125.432 243.250 C 125.084 242.287,124.800 240.972,124.800 240.327 C 124.800 239.682,124.448 237.409,124.018 235.277 C 123.009 230.278,121.874 213.443,122.193 208.206 C 122.785 198.466,123.289 193.760,123.832 192.914 C 124.144 192.427,124.400 191.726,124.400 191.356 C 124.400 190.360,127.698 183.857,128.890 182.503 C 130.875 180.247,131.884 175.225,130.769 173.143 C 130.533 172.700,130.106 171.497,129.822 170.469 C 129.137 167.994,128.064 164.981,127.145 162.956 C 126.735 162.052,126.400 160.967,126.400 160.545 C 126.400 160.123,126.151 159.423,125.847 158.989 C 125.543 158.555,125.019 157.210,124.682 156.000 C 123.768 152.722,122.489 149.138,121.805 147.938 C 119.944 144.674,121.431 142.561,131.471 134.200 C 131.999 133.760,133.291 132.590,134.341 131.600 C 136.063 129.976,137.387 128.833,141.341 125.557 C 143.838 123.489,143.946 123.482,168.154 123.762 C 213.769 124.289,215.530 124.279,218.200 123.459 C 220.492 122.756,224.400 120.570,224.400 119.991 C 224.400 119.840,224.805 119.245,225.300 118.669 C 226.960 116.737,228.000 115.277,228.000 114.880 C 228.000 114.663,228.246 114.391,228.547 114.276 C 228.848 114.160,229.763 112.869,230.581 111.407 C 231.399 109.945,232.322 108.651,232.634 108.532 C 232.945 108.412,233.200 108.074,233.200 107.780 C 233.200 106.635,234.903 105.951,237.200 106.175 C 238.410 106.293,242.910 106.574,247.200 106.799 " stroke="none" fill="#f8f7f9" fill-rule="evenodd"></path><path id="path1" d="M172.800 0.388 C 172.800 0.613,170.652 0.823,167.700 0.888 C 162.755 0.997,162.596 1.027,162.472 1.900 C 162.349 2.771,162.202 2.800,157.972 2.800 C 153.867 2.800,153.600 2.849,153.600 3.600 C 153.600 4.338,153.333 4.400,150.163 4.400 C 147.062 4.400,146.705 4.478,146.516 5.200 C 146.340 5.872,145.970 6.000,144.203 6.000 C 140.984 6.000,139.600 6.376,139.600 7.250 C 139.600 7.906,139.276 8.000,137.000 8.000 C 134.688 8.000,134.400 8.086,134.400 8.781 C 134.400 9.459,134.072 9.577,131.900 9.681 C 129.655 9.788,129.387 9.892,129.272 10.700 C 129.162 11.479,128.905 11.600,127.372 11.600 C 125.867 11.600,125.600 11.720,125.600 12.400 C 125.600 13.112,125.333 13.200,123.163 13.200 C 121.062 13.200,120.696 13.310,120.516 14.000 C 120.390 14.482,119.967 14.802,119.453 14.805 C 117.806 14.816,116.800 15.287,116.800 16.047 C 116.800 16.673,116.496 16.800,115.000 16.800 C 113.467 16.800,113.200 16.919,113.200 17.600 C 113.200 18.281,112.933 18.400,111.400 18.400 C 109.867 18.400,109.600 18.519,109.600 19.200 C 109.600 19.761,109.332 20.002,108.700 20.005 C 107.008 20.016,106.000 20.479,106.000 21.247 C 106.000 21.859,105.700 22.000,104.400 22.000 C 103.067 22.000,102.800 22.133,102.800 22.800 C 102.800 23.417,102.533 23.600,101.633 23.600 C 99.945 23.600,99.200 23.981,99.200 24.843 C 99.200 25.345,98.918 25.600,98.363 25.600 C 97.862 25.600,97.441 25.921,97.316 26.400 C 97.152 27.027,96.770 27.200,95.553 27.200 C 94.298 27.200,94.000 27.345,94.000 27.955 C 94.000 28.542,93.602 28.769,92.200 28.979 C 90.778 29.192,90.400 29.412,90.400 30.025 C 90.400 30.533,90.125 30.800,89.600 30.800 C 89.075 30.800,88.800 31.067,88.800 31.577 C 88.800 32.205,88.474 32.378,87.100 32.477 C 85.687 32.579,85.378 32.752,85.272 33.500 C 85.180 34.151,84.876 34.400,84.172 34.400 C 83.477 34.400,83.200 34.621,83.200 35.176 C 83.200 35.782,82.875 35.979,81.716 36.076 C 80.632 36.167,80.173 36.416,80.016 37.000 C 79.897 37.440,79.575 37.818,79.300 37.840 C 78.143 37.933,78.000 38.038,78.000 38.800 C 78.000 39.333,77.733 39.600,77.200 39.600 C 76.667 39.600,76.400 39.867,76.400 40.400 C 76.400 40.945,76.133 41.200,75.563 41.200 C 75.072 41.200,74.642 41.519,74.523 41.971 C 74.385 42.500,73.830 42.826,72.761 43.007 C 71.583 43.206,71.200 43.458,71.200 44.035 C 71.200 44.545,70.921 44.800,70.363 44.800 C 69.862 44.800,69.441 45.121,69.316 45.600 C 69.200 46.043,68.770 46.400,68.353 46.400 C 67.816 46.400,67.600 46.687,67.600 47.400 C 67.600 48.122,67.385 48.400,66.827 48.400 C 66.402 48.400,65.940 48.760,65.800 49.200 C 65.660 49.640,65.198 50.000,64.773 50.000 C 64.267 50.000,64.000 50.276,64.000 50.800 C 64.000 51.333,63.733 51.600,63.200 51.600 C 62.613 51.600,62.400 51.867,62.400 52.600 C 62.400 53.405,62.201 53.600,61.382 53.600 C 60.635 53.600,60.396 53.786,60.482 54.300 C 60.561 54.767,60.301 55.042,59.700 55.128 C 59.049 55.220,58.800 55.524,58.800 56.228 C 58.800 56.933,58.581 57.200,58.000 57.200 C 57.467 57.200,57.200 57.467,57.200 58.000 C 57.200 58.581,56.933 58.800,56.228 58.800 C 55.524 58.800,55.220 59.049,55.128 59.700 C 55.042 60.301,54.767 60.561,54.300 60.482 C 53.786 60.396,53.600 60.635,53.600 61.382 C 53.600 62.201,53.405 62.400,52.600 62.400 C 52.050 62.400,51.621 62.535,51.647 62.700 C 51.776 63.513,51.529 63.925,50.800 64.116 C 50.360 64.231,50.000 64.600,50.000 64.936 C 50.000 65.271,49.640 65.660,49.200 65.800 C 48.760 65.940,48.400 66.402,48.400 66.827 C 48.400 67.394,48.121 67.600,47.353 67.600 C 46.514 67.600,46.347 67.754,46.510 68.378 C 46.659 68.949,46.486 69.188,45.857 69.278 C 45.321 69.354,44.952 69.738,44.872 70.300 C 44.792 70.861,44.467 71.200,44.007 71.200 C 43.462 71.200,43.202 71.607,43.007 72.761 C 42.826 73.830,42.500 74.385,41.971 74.523 C 41.519 74.642,41.200 75.072,41.200 75.563 C 41.200 76.133,40.945 76.400,40.400 76.400 C 39.867 76.400,39.600 76.667,39.600 77.200 C 39.600 77.718,39.333 78.000,38.843 78.000 C 38.081 78.000,37.427 78.996,37.796 79.593 C 37.905 79.770,37.546 80.027,36.997 80.165 C 36.173 80.372,36.000 80.657,36.000 81.808 C 36.000 82.933,35.847 83.200,35.200 83.200 C 34.619 83.200,34.400 83.467,34.400 84.172 C 34.400 84.876,34.151 85.180,33.500 85.272 C 32.752 85.378,32.579 85.687,32.477 87.100 C 32.378 88.474,32.205 88.800,31.577 88.800 C 31.067 88.800,30.800 89.075,30.800 89.600 C 30.800 90.118,30.533 90.400,30.043 90.400 C 29.181 90.400,28.800 91.145,28.800 92.833 C 28.800 93.733,28.617 94.000,28.000 94.000 C 27.337 94.000,27.200 94.267,27.200 95.553 C 27.200 96.770,27.027 97.152,26.400 97.316 C 25.932 97.438,25.600 97.862,25.600 98.335 C 25.600 98.870,25.295 99.188,24.700 99.272 C 23.952 99.378,23.779 99.687,23.677 101.100 C 23.578 102.474,23.405 102.800,22.777 102.800 C 22.139 102.800,22.000 103.082,22.000 104.373 C 22.000 105.595,21.821 106.003,21.200 106.200 C 20.760 106.340,20.378 106.802,20.350 107.227 C 20.323 107.652,20.255 108.180,20.200 108.400 C 20.145 108.620,20.078 108.980,20.050 109.200 C 20.023 109.420,19.640 109.600,19.200 109.600 C 18.519 109.600,18.400 109.867,18.400 111.400 C 18.400 112.933,18.281 113.200,17.600 113.200 C 16.920 113.200,16.800 113.467,16.800 114.972 C 16.800 116.505,16.679 116.762,15.900 116.872 C 15.130 116.982,15.000 117.242,15.000 118.682 C 15.000 120.093,14.855 120.400,14.100 120.590 C 13.292 120.792,13.200 121.060,13.200 123.208 C 13.200 125.333,13.111 125.600,12.400 125.600 C 11.683 125.600,11.600 125.867,11.600 128.172 C 11.600 130.535,11.527 130.755,10.700 130.872 C 9.956 130.978,9.765 131.312,9.600 132.800 C 9.440 134.241,9.259 134.576,8.694 134.481 C 8.305 134.416,8.012 134.506,8.041 134.681 C 8.476 137.263,7.920 141.156,7.100 141.272 C 6.347 141.379,6.193 141.662,6.155 143.000 C 6.069 146.063,6.003 146.306,5.200 146.516 C 4.478 146.705,4.400 147.062,4.400 150.163 C 4.400 153.333,4.338 153.600,3.600 153.600 C 2.848 153.600,2.800 153.867,2.800 158.000 L 2.800 162.400 1.787 162.400 L 0.774 162.400 0.827 167.487 C 0.862 170.873,0.733 172.622,0.440 172.720 C -0.181 172.927,-0.185 227.072,0.436 227.279 C 0.715 227.372,0.895 229.222,0.936 232.412 C 0.998 237.258,1.026 237.404,1.900 237.528 C 2.771 237.651,2.800 237.798,2.800 242.028 C 2.800 246.133,2.849 246.400,3.600 246.400 C 4.338 246.400,4.400 246.667,4.400 249.837 C 4.400 252.938,4.478 253.295,5.200 253.484 C 5.727 253.622,6.016 254.053,6.046 254.747 C 6.071 255.326,6.135 256.430,6.187 257.200 C 6.240 257.970,6.310 259.005,6.342 259.500 C 6.382 260.114,6.654 260.400,7.200 260.400 C 7.918 260.400,8.000 260.667,8.000 262.987 C 8.000 265.040,8.116 265.530,8.560 265.360 C 9.365 265.051,9.595 265.638,9.653 268.155 C 9.682 269.380,9.849 270.293,10.025 270.185 C 10.201 270.076,10.460 270.173,10.600 270.400 C 10.740 270.627,11.023 270.709,11.228 270.583 C 11.439 270.452,11.600 271.229,11.600 272.376 C 11.600 274.133,11.705 274.400,12.400 274.400 C 13.112 274.400,13.200 274.667,13.200 276.837 C 13.200 278.938,13.310 279.304,14.000 279.484 C 14.440 279.599,14.822 279.852,14.850 280.047 C 14.963 280.847,15.103 282.037,15.150 282.600 C 15.178 282.930,15.560 283.200,16.000 283.200 C 16.681 283.200,16.800 283.467,16.800 285.000 C 16.800 286.533,16.919 286.800,17.600 286.800 C 18.281 286.800,18.400 287.067,18.400 288.600 C 18.400 290.133,18.519 290.400,19.200 290.400 C 19.678 290.400,20.019 290.682,20.046 291.100 C 20.072 291.485,20.134 291.980,20.185 292.200 C 20.236 292.420,20.306 292.915,20.339 293.300 C 20.375 293.713,20.728 294.000,21.200 294.000 C 21.867 294.000,22.000 294.267,22.000 295.600 C 22.000 296.933,22.133 297.200,22.800 297.200 C 23.417 297.200,23.600 297.467,23.600 298.367 C 23.600 300.055,23.981 300.800,24.843 300.800 C 25.384 300.800,25.600 301.086,25.600 301.800 C 25.600 302.533,25.813 302.800,26.400 302.800 C 27.067 302.800,27.200 303.067,27.200 304.400 C 27.200 305.733,27.333 306.000,28.000 306.000 C 28.582 306.000,28.800 306.267,28.800 306.976 C 28.800 307.513,28.972 308.059,29.183 308.189 C 29.393 308.319,29.464 308.690,29.340 309.013 C 29.187 309.411,29.377 309.600,29.929 309.600 C 30.470 309.600,30.787 309.903,30.872 310.500 C 30.942 310.995,31.270 311.400,31.600 311.400 C 32.000 311.400,32.267 311.933,32.400 313.000 C 32.560 314.280,32.780 314.626,33.500 314.728 C 34.151 314.820,34.400 315.124,34.400 315.828 C 34.400 316.523,34.621 316.800,35.176 316.800 C 35.782 316.800,35.979 317.125,36.076 318.284 C 36.167 319.368,36.416 319.827,37.000 319.984 C 37.440 320.103,37.818 320.425,37.840 320.700 C 37.933 321.857,38.038 322.000,38.800 322.000 C 39.333 322.000,39.600 322.267,39.600 322.800 C 39.600 323.333,39.867 323.600,40.400 323.600 C 40.945 323.600,41.200 323.867,41.200 324.437 C 41.200 324.928,41.519 325.358,41.971 325.477 C 42.500 325.615,42.826 326.170,43.007 327.239 C 43.202 328.393,43.462 328.800,44.007 328.800 C 44.467 328.800,44.792 329.139,44.872 329.700 C 44.952 330.262,45.321 330.646,45.857 330.722 C 46.486 330.812,46.659 331.051,46.510 331.622 C 46.347 332.246,46.514 332.400,47.353 332.400 C 48.203 332.400,48.400 332.588,48.400 333.400 C 48.400 334.133,48.613 334.400,49.200 334.400 C 49.733 334.400,50.000 334.667,50.000 335.200 C 50.000 335.733,50.267 336.000,50.800 336.000 C 51.333 336.000,51.600 336.267,51.600 336.800 C 51.600 337.387,51.867 337.600,52.600 337.600 C 53.400 337.600,53.600 337.800,53.600 338.600 C 53.600 339.333,53.813 339.600,54.400 339.600 C 54.933 339.600,55.200 339.867,55.200 340.400 C 55.200 340.987,55.467 341.200,56.200 341.200 C 56.933 341.200,57.200 341.413,57.200 342.000 C 57.200 342.533,57.467 342.800,58.000 342.800 C 58.587 342.800,58.800 343.067,58.800 343.800 C 58.800 344.533,59.013 344.800,59.600 344.800 C 60.133 344.800,60.400 345.067,60.400 345.600 C 60.400 346.187,60.667 346.400,61.400 346.400 C 62.200 346.400,62.400 346.600,62.400 347.400 C 62.400 348.133,62.613 348.400,63.200 348.400 C 63.733 348.400,64.000 348.667,64.000 349.200 C 64.000 349.724,64.267 350.000,64.773 350.000 C 65.198 350.000,65.660 350.360,65.800 350.800 C 65.940 351.240,66.402 351.600,66.827 351.600 C 67.385 351.600,67.600 351.878,67.600 352.600 C 67.600 353.313,67.816 353.600,68.353 353.600 C 68.770 353.600,69.200 353.957,69.316 354.400 C 69.441 354.879,69.862 355.200,70.363 355.200 C 70.918 355.200,71.200 355.455,71.200 355.957 C 71.200 356.779,71.940 357.200,73.386 357.200 C 73.970 357.200,74.383 357.492,74.516 358.000 C 74.641 358.479,75.062 358.800,75.563 358.800 C 76.133 358.800,76.400 359.055,76.400 359.600 C 76.400 360.133,76.667 360.400,77.200 360.400 C 77.733 360.400,78.000 360.667,78.000 361.200 C 78.000 361.962,78.143 362.067,79.300 362.160 C 79.575 362.182,79.898 362.560,80.018 363.000 C 80.237 363.804,80.362 363.858,82.200 363.950 C 82.917 363.986,83.200 364.227,83.200 364.800 C 83.200 365.381,83.467 365.600,84.172 365.600 C 84.876 365.600,85.180 365.849,85.272 366.500 C 85.378 367.248,85.687 367.421,87.100 367.523 C 88.474 367.622,88.800 367.795,88.800 368.423 C 88.800 368.933,89.075 369.200,89.600 369.200 C 90.118 369.200,90.400 369.467,90.400 369.957 C 90.400 370.819,91.145 371.200,92.833 371.200 C 93.733 371.200,94.000 371.383,94.000 372.000 C 94.000 372.663,94.267 372.800,95.553 372.800 C 96.770 372.800,97.152 372.973,97.316 373.600 C 97.438 374.068,97.862 374.400,98.335 374.400 C 98.870 374.400,99.188 374.705,99.272 375.300 C 99.378 376.048,99.687 376.221,101.100 376.323 C 102.474 376.422,102.800 376.595,102.800 377.223 C 102.800 377.863,103.082 378.000,104.400 378.000 C 105.280 378.000,106.000 378.167,106.000 378.371 C 106.000 379.132,107.295 380.000,108.429 380.000 C 109.333 380.000,109.600 380.182,109.600 380.800 C 109.600 381.481,109.867 381.600,111.400 381.600 C 112.933 381.600,113.200 381.719,113.200 382.400 C 113.200 383.080,113.467 383.200,114.972 383.200 C 116.505 383.200,116.762 383.321,116.872 384.100 C 116.978 384.844,117.288 385.021,118.659 385.121 C 119.907 385.212,120.368 385.435,120.521 386.021 C 120.695 386.685,121.083 386.800,123.163 386.800 C 125.333 386.800,125.600 386.888,125.600 387.600 C 125.600 388.318,125.867 388.400,128.200 388.400 C 130.707 388.400,130.800 388.436,130.800 389.400 C 130.800 390.319,130.947 390.400,132.600 390.400 C 134.133 390.400,134.400 390.519,134.400 391.200 C 134.400 391.937,134.667 392.000,137.772 392.000 C 140.965 392.000,141.151 392.048,141.272 392.900 C 141.387 393.706,141.656 393.812,143.858 393.918 C 145.905 394.016,146.350 394.167,146.521 394.818 C 146.704 395.517,147.088 395.600,150.163 395.600 C 153.333 395.600,153.600 395.662,153.600 396.400 C 153.600 397.152,153.867 397.200,158.000 397.200 L 162.400 397.200 162.400 398.200 L 162.400 399.200 167.600 399.200 C 170.800 399.200,172.800 399.354,172.800 399.600 C 172.800 399.863,182.133 400.000,200.000 400.000 C 217.308 400.000,227.200 399.859,227.200 399.612 C 227.200 399.387,229.348 399.177,232.300 399.112 C 237.245 399.003,237.404 398.973,237.528 398.100 C 237.651 397.229,237.798 397.200,242.028 397.200 C 246.133 397.200,246.400 397.151,246.400 396.400 C 246.400 395.662,246.667 395.600,249.837 395.600 C 252.938 395.600,253.295 395.522,253.484 394.800 C 253.660 394.128,254.030 394.000,255.797 394.000 C 259.016 394.000,260.400 393.624,260.400 392.750 C 260.400 392.094,260.724 392.000,263.000 392.000 C 265.333 392.000,265.600 391.918,265.600 391.200 C 265.600 390.489,265.867 390.400,268.010 390.400 C 270.212 390.400,270.453 390.314,270.800 389.400 C 271.119 388.562,271.441 388.400,272.790 388.400 C 274.133 388.400,274.400 388.267,274.400 387.600 C 274.400 386.888,274.667 386.800,276.837 386.800 C 278.938 386.800,279.304 386.690,279.484 386.000 C 279.610 385.518,280.033 385.198,280.547 385.195 C 282.194 385.184,283.200 384.713,283.200 383.953 C 283.200 383.327,283.504 383.200,285.000 383.200 C 286.533 383.200,286.800 383.081,286.800 382.400 C 286.800 381.719,287.067 381.600,288.600 381.600 C 290.116 381.600,290.400 381.477,290.400 380.823 C 290.400 380.195,290.726 380.022,292.100 379.923 C 293.513 379.821,293.822 379.648,293.928 378.900 C 294.036 378.141,294.302 378.000,295.628 378.000 C 296.933 378.000,297.200 377.864,297.200 377.200 C 297.200 376.583,297.467 376.400,298.367 376.400 C 300.055 376.400,300.800 376.019,300.800 375.157 C 300.800 374.616,301.086 374.400,301.800 374.400 C 302.533 374.400,302.800 374.187,302.800 373.600 C 302.800 372.933,303.067 372.800,304.400 372.800 C 305.701 372.800,306.000 372.659,306.000 372.045 C 306.000 371.458,306.398 371.231,307.800 371.021 C 309.222 370.808,309.600 370.588,309.600 369.975 C 309.600 369.415,309.877 369.200,310.600 369.200 C 311.323 369.200,311.600 368.985,311.600 368.424 C 311.600 367.816,311.925 367.621,313.100 367.524 C 314.305 367.424,314.625 367.223,314.728 366.500 C 314.820 365.849,315.124 365.600,315.828 365.600 C 316.533 365.600,316.800 365.381,316.800 364.800 C 316.800 364.148,317.067 364.000,318.237 364.000 C 319.317 364.000,319.725 363.809,319.875 363.234 C 319.985 362.813,320.509 362.359,321.038 362.226 C 321.649 362.073,322.000 361.696,322.000 361.192 C 322.000 360.667,322.269 360.400,322.800 360.400 C 323.333 360.400,323.600 360.133,323.600 359.600 C 323.600 359.013,323.867 358.800,324.600 358.800 C 325.333 358.800,325.600 358.587,325.600 358.000 C 325.600 357.421,325.867 357.200,326.567 357.200 C 328.059 357.200,328.800 356.787,328.800 355.957 C 328.800 355.455,329.082 355.200,329.637 355.200 C 330.138 355.200,330.559 354.879,330.684 354.400 C 330.800 353.957,331.230 353.600,331.647 353.600 C 332.184 353.600,332.400 353.313,332.400 352.600 C 332.400 351.800,332.600 351.600,333.400 351.600 C 334.133 351.600,334.400 351.387,334.400 350.800 C 334.400 350.267,334.667 350.000,335.200 350.000 C 335.733 350.000,336.000 349.733,336.000 349.200 C 336.000 348.667,336.267 348.400,336.800 348.400 C 337.387 348.400,337.600 348.133,337.600 347.400 C 337.600 346.600,337.800 346.400,338.600 346.400 C 339.333 346.400,339.600 346.187,339.600 345.600 C 339.600 345.067,339.867 344.800,340.400 344.800 C 340.987 344.800,341.200 344.533,341.200 343.800 C 341.200 343.067,341.413 342.800,342.000 342.800 C 342.533 342.800,342.800 342.533,342.800 342.000 C 342.800 341.413,343.067 341.200,343.800 341.200 C 344.533 341.200,344.800 340.987,344.800 340.400 C 344.800 339.867,345.067 339.600,345.600 339.600 C 346.187 339.600,346.400 339.333,346.400 338.600 C 346.400 337.800,346.600 337.600,347.400 337.600 C 348.133 337.600,348.400 337.387,348.400 336.800 C 348.400 336.267,348.667 336.000,349.200 336.000 C 349.733 336.000,350.000 335.733,350.000 335.200 C 350.000 334.667,350.267 334.400,350.800 334.400 C 351.387 334.400,351.600 334.133,351.600 333.400 C 351.600 332.600,351.800 332.400,352.600 332.400 C 353.313 332.400,353.600 332.184,353.600 331.647 C 353.600 331.230,353.957 330.800,354.400 330.684 C 354.879 330.559,355.200 330.138,355.200 329.637 C 355.200 329.082,355.455 328.800,355.957 328.800 C 356.787 328.800,357.200 328.059,357.200 326.567 C 357.200 325.867,357.421 325.600,358.000 325.600 C 358.587 325.600,358.800 325.333,358.800 324.600 C 358.800 323.867,359.013 323.600,359.600 323.600 C 360.133 323.600,360.400 323.333,360.400 322.800 C 360.400 322.269,360.667 322.000,361.192 322.000 C 361.696 322.000,362.073 321.649,362.226 321.038 C 362.359 320.509,362.813 319.985,363.234 319.875 C 363.809 319.725,364.000 319.317,364.000 318.237 C 364.000 317.067,364.148 316.800,364.800 316.800 C 365.381 316.800,365.600 316.533,365.600 315.828 C 365.600 315.124,365.849 314.820,366.500 314.728 C 367.223 314.625,367.424 314.305,367.524 313.100 C 367.621 311.925,367.816 311.600,368.424 311.600 C 368.985 311.600,369.200 311.323,369.200 310.600 C 369.200 309.886,369.416 309.600,369.957 309.600 C 370.819 309.600,371.200 308.855,371.200 307.167 C 371.200 306.267,371.383 306.000,372.000 306.000 C 372.667 306.000,372.800 305.733,372.800 304.400 C 372.800 303.067,372.933 302.800,373.600 302.800 C 374.181 302.800,374.400 302.533,374.400 301.828 C 374.400 301.124,374.649 300.820,375.300 300.728 C 376.048 300.622,376.221 300.313,376.323 298.900 C 376.422 297.526,376.595 297.200,377.223 297.200 C 377.855 297.200,378.000 296.918,378.000 295.695 C 378.000 294.518,378.196 294.104,378.900 293.795 C 379.562 293.505,379.833 293.003,379.924 291.900 C 380.021 290.725,380.216 290.400,380.824 290.400 C 381.477 290.400,381.600 290.115,381.600 288.600 C 381.600 287.067,381.719 286.800,382.400 286.800 C 383.080 286.800,383.200 286.533,383.200 285.028 C 383.200 283.495,383.321 283.238,384.100 283.128 C 384.844 283.022,385.021 282.712,385.121 281.341 C 385.212 280.093,385.435 279.632,386.021 279.479 C 386.685 279.305,386.800 278.917,386.800 276.837 C 386.800 274.667,386.888 274.400,387.600 274.400 C 388.318 274.400,388.400 274.133,388.400 271.800 C 388.400 269.293,388.436 269.200,389.400 269.200 C 390.319 269.200,390.400 269.053,390.400 267.400 C 390.400 265.867,390.519 265.600,391.200 265.600 C 391.937 265.600,392.000 265.333,392.000 262.228 C 392.000 259.035,392.048 258.849,392.900 258.728 C 393.706 258.613,393.812 258.344,393.918 256.142 C 394.016 254.095,394.167 253.650,394.818 253.479 C 395.517 253.296,395.600 252.912,395.600 249.837 C 395.600 246.667,395.662 246.400,396.400 246.400 C 397.152 246.400,397.200 246.133,397.200 242.000 L 397.200 237.600 398.200 237.600 L 399.200 237.600 399.200 232.400 C 399.200 229.200,399.354 227.200,399.600 227.200 C 399.863 227.200,400.000 217.867,400.000 200.000 C 400.000 182.692,399.859 172.800,399.612 172.800 C 399.387 172.800,399.177 170.652,399.112 167.700 C 399.003 162.755,398.973 162.596,398.100 162.472 C 397.229 162.349,397.200 162.202,397.200 157.972 C 397.200 153.867,397.151 153.600,396.400 153.600 C 395.662 153.600,395.600 153.333,395.600 150.163 C 395.600 147.062,395.522 146.705,394.800 146.516 C 394.128 146.340,394.000 145.970,394.000 144.203 C 394.000 140.984,393.624 139.600,392.750 139.600 C 392.094 139.600,392.000 139.276,392.000 137.000 C 392.000 134.688,391.914 134.400,391.219 134.400 C 390.541 134.400,390.423 134.072,390.319 131.900 C 390.212 129.655,390.108 129.387,389.300 129.272 C 388.521 129.162,388.400 128.905,388.400 127.372 C 388.400 125.867,388.280 125.600,387.600 125.600 C 386.888 125.600,386.800 125.333,386.800 123.163 C 386.800 121.062,386.690 120.696,386.000 120.516 C 385.518 120.390,385.198 119.967,385.195 119.453 C 385.184 117.806,384.713 116.800,383.953 116.800 C 383.327 116.800,383.200 116.496,383.200 115.000 C 383.200 113.467,383.081 113.200,382.400 113.200 C 381.719 113.200,381.600 112.933,381.600 111.400 C 381.600 109.884,381.477 109.600,380.823 109.600 C 380.195 109.600,380.022 109.274,379.923 107.900 C 379.821 106.487,379.648 106.178,378.900 106.072 C 378.141 105.964,378.000 105.698,378.000 104.372 C 378.000 103.067,377.864 102.800,377.200 102.800 C 376.583 102.800,376.400 102.533,376.400 101.633 C 376.400 99.945,376.019 99.200,375.157 99.200 C 374.655 99.200,374.400 98.918,374.400 98.363 C 374.400 97.862,374.079 97.441,373.600 97.316 C 372.973 97.152,372.800 96.770,372.800 95.553 C 372.800 94.298,372.655 94.000,372.045 94.000 C 371.458 94.000,371.231 93.602,371.021 92.200 C 370.808 90.778,370.588 90.400,369.975 90.400 C 369.467 90.400,369.200 90.125,369.200 89.600 C 369.200 89.075,368.933 88.800,368.423 88.800 C 367.795 88.800,367.622 88.474,367.523 87.100 C 367.421 85.687,367.248 85.378,366.500 85.272 C 365.849 85.180,365.600 84.876,365.600 84.172 C 365.600 83.467,365.381 83.200,364.800 83.200 C 364.148 83.200,364.000 82.933,364.000 81.763 C 364.000 80.683,363.809 80.275,363.234 80.125 C 362.813 80.015,362.359 79.491,362.226 78.962 C 362.073 78.351,361.696 78.000,361.192 78.000 C 360.667 78.000,360.400 77.731,360.400 77.200 C 360.400 76.667,360.133 76.400,359.600 76.400 C 359.055 76.400,358.800 76.133,358.800 75.563 C 358.800 75.062,358.479 74.641,358.000 74.516 C 357.492 74.383,357.200 73.970,357.200 73.386 C 357.200 71.940,356.779 71.200,355.957 71.200 C 355.455 71.200,355.200 70.918,355.200 70.363 C 355.200 69.862,354.879 69.441,354.400 69.316 C 353.957 69.200,353.600 68.770,353.600 68.353 C 353.600 67.816,353.313 67.600,352.600 67.600 C 351.878 67.600,351.600 67.385,351.600 66.827 C 351.600 66.402,351.240 65.940,350.800 65.800 C 350.360 65.660,350.000 65.198,350.000 64.773 C 350.000 64.267,349.724 64.000,349.200 64.000 C 348.667 64.000,348.400 63.733,348.400 63.200 C 348.400 62.613,348.133 62.400,347.400 62.400 C 346.600 62.400,346.400 62.200,346.400 61.400 C 346.400 60.667,346.187 60.400,345.600 60.400 C 345.067 60.400,344.800 60.133,344.800 59.600 C 344.800 59.013,344.533 58.800,343.800 58.800 C 343.067 58.800,342.800 58.587,342.800 58.000 C 342.800 57.467,342.533 57.200,342.000 57.200 C 341.413 57.200,341.200 56.933,341.200 56.200 C 341.200 55.467,340.987 55.200,340.400 55.200 C 339.867 55.200,339.600 54.933,339.600 54.400 C 339.600 53.813,339.333 53.600,338.600 53.600 C 337.800 53.600,337.600 53.400,337.600 52.600 C 337.600 51.867,337.387 51.600,336.800 51.600 C 336.267 51.600,336.000 51.333,336.000 50.800 C 336.000 50.267,335.733 50.000,335.200 50.000 C 334.667 50.000,334.400 49.733,334.400 49.200 C 334.400 48.613,334.133 48.400,333.400 48.400 C 332.600 48.400,332.400 48.200,332.400 47.400 C 332.400 46.687,332.184 46.400,331.647 46.400 C 331.230 46.400,330.800 46.043,330.684 45.600 C 330.559 45.121,330.138 44.800,329.637 44.800 C 329.079 44.800,328.800 44.545,328.800 44.035 C 328.800 43.458,328.417 43.206,327.239 43.007 C 326.170 42.826,325.615 42.500,325.477 41.971 C 325.358 41.519,324.928 41.200,324.437 41.200 C 323.867 41.200,323.600 40.945,323.600 40.400 C 323.600 39.867,323.333 39.600,322.800 39.600 C 322.269 39.600,322.000 39.333,322.000 38.808 C 322.000 38.304,321.649 37.927,321.038 37.774 C 320.509 37.641,319.985 37.187,319.875 36.766 C 319.725 36.191,319.317 36.000,318.237 36.000 C 317.067 36.000,316.800 35.852,316.800 35.200 C 316.800 34.619,316.533 34.400,315.828 34.400 C 315.124 34.400,314.820 34.151,314.728 33.500 C 314.626 32.782,314.304 32.575,313.141 32.478 C 312.093 32.391,311.625 32.137,311.478 31.578 C 311.359 31.120,310.931 30.800,310.437 30.800 C 309.882 30.800,309.600 30.545,309.600 30.043 C 309.600 29.181,308.855 28.800,307.167 28.800 C 306.267 28.800,306.000 28.617,306.000 28.000 C 306.000 27.333,305.733 27.200,304.400 27.200 C 303.067 27.200,302.800 27.067,302.800 26.400 C 302.800 25.819,302.533 25.600,301.828 25.600 C 301.124 25.600,300.820 25.351,300.728 24.700 C 300.622 23.952,300.313 23.779,298.900 23.677 C 297.526 23.578,297.200 23.405,297.200 22.777 C 297.200 22.139,296.918 22.000,295.627 22.000 C 294.427 22.000,293.996 21.818,293.810 21.232 C 293.647 20.718,293.044 20.376,291.983 20.197 C 290.784 19.995,290.400 19.744,290.400 19.165 C 290.400 18.525,290.106 18.400,288.600 18.400 C 287.067 18.400,286.800 18.281,286.800 17.600 C 286.800 16.920,286.533 16.800,285.028 16.800 C 283.495 16.800,283.238 16.679,283.128 15.900 C 283.022 15.156,282.712 14.979,281.341 14.879 C 280.093 14.788,279.632 14.565,279.479 13.979 C 279.305 13.315,278.917 13.200,276.837 13.200 C 274.667 13.200,274.400 13.112,274.400 12.400 C 274.400 11.682,274.133 11.600,271.800 11.600 C 269.293 11.600,269.200 11.564,269.200 10.600 C 269.200 9.681,269.053 9.600,267.400 9.600 C 265.867 9.600,265.600 9.481,265.600 8.800 C 265.600 8.063,265.333 8.000,262.228 8.000 C 259.035 8.000,258.849 7.952,258.728 7.100 C 258.613 6.294,258.344 6.188,256.142 6.082 C 254.095 5.984,253.650 5.833,253.479 5.182 C 253.296 4.483,252.912 4.400,249.837 4.400 C 246.667 4.400,246.400 4.338,246.400 3.600 C 246.400 2.848,246.133 2.800,242.000 2.800 L 237.600 2.800 237.600 1.800 L 237.600 0.800 232.400 0.800 C 229.200 0.800,227.200 0.646,227.200 0.400 C 227.200 0.137,217.867 0.000,200.000 0.000 C 182.692 0.000,172.800 0.141,172.800 0.388 M239.800 87.578 C 243.100 87.810,248.680 88.169,252.200 88.377 C 268.229 89.321,274.945 90.001,276.600 90.848 C 282.350 93.792,285.487 101.171,283.300 106.608 C 282.859 107.704,282.000 109.950,281.390 111.600 C 280.780 113.250,279.948 115.332,279.540 116.226 C 279.133 117.121,278.800 118.151,278.800 118.517 C 278.800 118.882,278.441 119.770,278.001 120.490 C 277.562 121.211,277.202 122.058,277.201 122.374 C 277.201 122.689,276.854 123.679,276.431 124.574 C 276.008 125.468,275.483 126.830,275.266 127.600 C 274.785 129.300,273.320 132.971,272.483 134.572 C 271.501 136.449,271.617 140.343,272.700 141.862 C 273.195 142.556,273.600 143.389,273.600 143.713 C 273.600 144.037,273.880 144.535,274.223 144.819 C 274.566 145.104,275.112 145.891,275.438 146.568 C 276.498 148.777,277.296 150.188,277.843 150.820 C 278.138 151.161,279.037 152.691,279.842 154.220 C 280.647 155.749,281.777 157.720,282.353 158.600 C 282.929 159.480,283.756 160.875,284.191 161.700 C 284.626 162.525,285.107 163.200,285.259 163.200 C 285.412 163.200,285.655 163.738,285.799 164.395 C 285.943 165.053,286.230 165.695,286.436 165.823 C 286.643 165.950,287.176 166.717,287.621 167.527 C 288.066 168.337,288.867 169.720,289.401 170.600 C 289.935 171.480,290.655 172.740,291.001 173.400 C 291.347 174.060,292.163 175.410,292.814 176.400 C 293.465 177.390,294.288 178.830,294.644 179.600 C 294.999 180.370,295.408 181.090,295.553 181.200 C 295.698 181.310,296.037 181.850,296.306 182.400 C 296.575 182.950,297.291 184.243,297.898 185.272 C 298.504 186.302,299.810 188.527,300.800 190.218 C 301.790 191.908,302.989 193.945,303.464 194.745 C 307.032 200.749,308.782 207.012,308.013 211.030 C 307.763 212.334,307.294 215.020,306.970 217.000 C 306.646 218.980,306.131 221.410,305.826 222.400 C 305.521 223.390,305.167 225.333,305.040 226.718 C 304.913 228.104,304.623 229.584,304.396 230.007 C 304.169 230.431,303.727 232.485,303.414 234.573 C 302.869 238.201,301.888 241.918,301.136 243.200 C 300.942 243.530,300.521 244.371,300.200 245.068 C 297.885 250.094,291.799 255.384,287.414 256.180 C 286.541 256.339,285.335 256.723,284.734 257.034 C 284.132 257.345,283.092 257.600,282.423 257.600 C 281.754 257.600,279.090 258.034,276.504 258.564 C 273.917 259.094,270.630 259.715,269.200 259.943 C 263.040 260.927,259.600 262.417,259.600 264.102 C 259.600 264.295,259.150 265.043,258.600 265.764 C 258.050 266.486,257.600 267.196,257.600 267.343 C 257.600 268.931,246.503 279.011,241.243 282.200 C 240.880 282.420,240.019 283.005,239.330 283.500 C 238.641 283.995,237.975 284.400,237.851 284.400 C 237.727 284.400,236.584 285.092,235.313 285.937 C 231.694 288.342,230.780 288.890,228.000 290.326 C 226.570 291.065,225.116 291.924,224.769 292.235 C 224.421 292.546,223.926 292.800,223.669 292.800 C 223.411 292.800,222.345 293.232,221.300 293.760 C 219.549 294.644,218.223 295.264,213.156 297.563 C 212.142 298.023,211.053 298.400,210.736 298.400 C 210.419 298.400,209.989 298.562,209.780 298.759 C 209.066 299.434,199.476 302.391,191.800 304.304 C 190.040 304.742,187.340 305.416,185.800 305.800 C 180.783 307.053,176.640 308.040,174.600 308.469 C 173.500 308.700,171.790 309.120,170.800 309.401 C 169.810 309.682,168.010 310.123,166.800 310.380 C 165.590 310.637,163.790 311.091,162.800 311.389 C 161.810 311.687,159.920 312.138,158.600 312.391 C 157.280 312.644,155.390 313.095,154.400 313.393 C 153.410 313.690,151.880 314.051,151.000 314.195 C 150.120 314.338,148.590 314.742,147.600 315.092 C 144.675 316.127,137.136 316.004,134.649 314.881 C 133.576 314.396,132.533 314.000,132.331 314.000 C 131.037 314.000,124.449 307.871,124.411 306.631 C 124.405 306.429,124.102 305.934,123.739 305.532 C 123.044 304.765,121.933 301.966,120.987 298.600 C 119.047 291.703,118.249 289.058,117.002 285.400 C 116.628 284.300,116.074 282.305,115.771 280.967 C 115.469 279.629,114.948 278.009,114.613 277.367 C 114.279 276.725,114.005 275.750,114.004 275.200 C 114.004 274.650,113.573 272.940,113.047 271.400 C 112.521 269.860,111.692 267.250,111.206 265.600 C 110.720 263.950,109.988 261.520,109.579 260.200 C 108.694 257.340,107.624 253.391,107.357 252.000 C 107.251 251.450,106.732 249.020,106.202 246.600 C 105.673 244.180,105.055 240.850,104.829 239.200 C 104.603 237.550,104.237 235.210,104.015 234.000 C 103.344 230.343,102.302 212.036,102.558 208.400 C 102.690 206.530,102.981 202.051,103.205 198.447 C 103.451 194.499,103.838 191.398,104.179 190.647 C 104.490 189.961,104.950 188.368,105.200 187.107 C 105.449 185.846,105.822 184.710,106.027 184.583 C 106.232 184.456,106.600 183.559,106.845 182.588 C 107.089 181.618,107.539 180.617,107.844 180.363 C 108.150 180.110,108.400 179.702,108.400 179.457 C 108.400 179.212,108.885 178.054,109.477 176.883 C 110.623 174.617,110.615 174.418,109.192 170.400 C 108.920 169.630,108.253 167.740,107.710 166.200 C 107.167 164.660,106.380 162.630,105.962 161.689 C 105.543 160.748,105.200 159.704,105.200 159.367 C 105.200 159.031,104.860 158.001,104.445 157.078 C 104.030 156.155,103.559 154.770,103.397 154.000 C 103.236 153.230,102.812 152.060,102.455 151.400 C 101.481 149.597,101.515 140.207,102.501 138.811 C 102.886 138.267,103.200 137.527,103.200 137.167 C 103.200 134.875,107.494 129.131,112.000 125.397 C 112.990 124.577,114.823 122.982,116.073 121.853 C 117.324 120.724,119.824 118.540,121.629 117.000 C 123.434 115.460,126.281 112.993,127.955 111.517 C 129.884 109.817,132.393 108.131,134.800 106.917 L 138.600 105.000 175.050 105.141 L 211.501 105.282 212.924 103.341 C 213.707 102.273,214.595 101.120,214.896 100.778 C 215.198 100.435,216.420 98.725,217.612 96.978 C 223.028 89.035,226.872 86.400,232.200 86.982 C 233.080 87.078,236.500 87.346,239.800 87.578 M234.100 106.603 C 233.605 106.956,233.200 107.486,233.200 107.780 C 233.200 108.074,232.945 108.412,232.634 108.532 C 232.322 108.651,231.399 109.945,230.581 111.407 C 229.763 112.869,228.848 114.160,228.547 114.276 C 228.246 114.391,228.000 114.663,228.000 114.880 C 228.000 115.277,226.960 116.737,225.300 118.669 C 224.805 119.245,224.400 119.840,224.400 119.991 C 224.400 120.570,220.492 122.756,218.200 123.459 C 215.530 124.279,213.769 124.289,168.154 123.762 C 143.946 123.482,143.838 123.489,141.341 125.557 C 137.387 128.833,136.063 129.976,134.341 131.600 C 133.291 132.590,131.999 133.760,131.471 134.200 C 121.431 142.561,119.944 144.674,121.805 147.938 C 122.489 149.138,123.768 152.722,124.682 156.000 C 125.019 157.210,125.543 158.555,125.847 158.989 C 126.151 159.423,126.400 160.123,126.400 160.545 C 126.400 160.967,126.735 162.052,127.145 162.956 C 128.064 164.981,129.137 167.994,129.822 170.469 C 130.106 171.497,130.533 172.700,130.769 173.143 C 131.884 175.225,130.875 180.247,128.890 182.503 C 127.698 183.857,124.400 190.360,124.400 191.356 C 124.400 191.726,124.144 192.427,123.832 192.914 C 123.289 193.760,122.785 198.466,122.193 208.206 C 121.874 213.443,123.009 230.278,124.018 235.277 C 124.448 237.409,124.800 239.682,124.800 240.327 C 124.800 240.972,125.084 242.287,125.432 243.250 C 125.779 244.212,126.233 246.156,126.440 247.569 C 126.647 248.982,126.981 250.336,127.183 250.580 C 127.385 250.823,127.852 252.349,128.221 253.972 C 128.590 255.595,129.141 257.519,129.446 258.248 C 129.751 258.978,130.001 259.985,130.002 260.487 C 130.004 260.989,130.287 261.940,130.633 262.600 C 130.978 263.260,131.444 264.786,131.668 265.992 C 131.891 267.197,132.312 268.644,132.603 269.206 C 132.894 269.768,133.253 270.941,133.401 271.814 C 133.549 272.686,133.993 274.300,134.387 275.400 C 135.300 277.948,136.692 282.532,137.180 284.600 C 137.961 287.903,139.266 292.198,139.619 292.622 C 139.820 292.865,140.130 293.769,140.308 294.631 C 140.717 296.614,141.685 296.791,145.961 295.665 C 147.632 295.225,149.810 294.668,150.800 294.429 C 157.720 292.753,161.755 291.833,164.043 291.408 C 165.496 291.138,166.876 290.800,167.110 290.656 C 167.343 290.512,169.123 290.045,171.067 289.619 C 173.010 289.193,175.410 288.639,176.400 288.387 C 182.748 286.771,184.888 286.256,187.200 285.790 C 197.252 283.763,211.542 278.220,221.000 272.679 C 221.440 272.421,222.970 271.466,224.400 270.556 C 225.830 269.647,227.900 268.344,229.000 267.662 C 230.100 266.979,231.191 266.261,231.425 266.065 C 231.659 265.869,232.289 265.478,232.825 265.196 C 236.714 263.151,242.419 256.917,244.974 251.921 C 247.923 246.155,249.888 244.351,253.800 243.815 C 254.900 243.665,256.571 243.285,257.514 242.971 C 258.457 242.657,259.962 242.400,260.859 242.400 C 261.757 242.400,263.955 242.047,265.745 241.614 C 267.535 241.182,270.594 240.648,272.543 240.428 C 274.492 240.207,276.292 239.863,276.543 239.664 C 276.794 239.464,277.900 239.178,279.000 239.028 C 280.100 238.877,281.294 238.669,281.654 238.565 C 282.802 238.232,284.313 235.510,284.609 233.239 C 284.765 232.050,285.141 230.481,285.446 229.752 C 285.751 229.022,286.000 227.849,286.000 227.145 C 286.000 226.441,286.435 223.960,286.967 221.632 C 287.498 219.305,288.113 216.320,288.332 215.000 C 288.551 213.680,288.948 211.710,289.214 210.622 C 289.649 208.846,289.614 208.479,288.875 207.022 C 288.422 206.130,287.947 205.130,287.819 204.800 C 287.692 204.470,287.050 203.390,286.395 202.400 C 285.739 201.410,284.924 200.060,284.583 199.400 C 284.242 198.740,283.073 196.760,281.985 195.000 C 280.896 193.240,279.634 191.080,279.180 190.200 C 278.727 189.320,277.922 187.880,277.392 187.000 C 276.862 186.120,276.155 184.827,275.820 184.127 C 275.486 183.427,275.011 182.730,274.765 182.579 C 274.519 182.427,274.054 181.739,273.732 181.051 C 273.409 180.363,272.709 179.080,272.175 178.200 C 271.642 177.320,270.886 175.970,270.496 175.200 C 270.107 174.430,269.116 172.762,268.294 171.492 C 267.472 170.223,266.800 169.021,266.800 168.821 C 266.800 168.621,266.564 168.219,266.276 167.929 C 265.988 167.638,265.421 166.770,265.017 166.000 C 264.612 165.230,263.934 163.936,263.511 163.124 C 263.087 162.313,262.484 161.436,262.170 161.175 C 261.857 160.915,261.600 160.518,261.600 160.292 C 261.600 160.067,260.925 158.874,260.101 157.641 C 259.276 156.409,258.290 154.770,257.909 154.000 C 257.190 152.545,256.713 151.730,255.534 149.940 C 255.150 149.357,254.714 148.367,254.565 147.740 C 254.416 147.113,253.938 145.801,253.503 144.825 C 252.494 142.562,252.625 133.430,253.695 131.400 C 254.598 129.686,256.400 124.891,256.400 124.201 C 256.400 123.880,256.872 122.579,257.449 121.309 C 259.431 116.947,259.573 116.597,259.838 115.400 C 259.983 114.740,260.451 113.621,260.876 112.912 C 261.702 111.538,261.954 108.594,261.301 107.941 C 260.894 107.534,260.353 107.490,247.200 106.799 C 242.910 106.574,238.410 106.293,237.200 106.175 C 235.556 106.015,234.773 106.123,234.100 106.603 " stroke="none" fill="#6b49b5" fill-rule="evenodd"></path></g></svg>